<?xml version="1.0" encoding="utf-8"?>
<!-- Generator: Adobe Illustrator 26.2.1, SVG Export Plug-In . SVG Version: 6.00 Build 0)  -->
<svg version="1.1" id="Layer_1" xmlns="http://www.w3.org/2000/svg" xmlns:xlink="http://www.w3.org/1999/xlink" x="0px" y="0px"
	 viewBox="0 0 696.1 477.6" style="enable-background:new 0 0 696.1 477.6;" xml:space="preserve">
<style type="text/css">
	.st0{fill:none;stroke:#C6C6C6;stroke-miterlimit:10;}
	.st1{fill:#FEFFFF;stroke:#C6C6C6;stroke-miterlimit:10;}
	.st2{fill:#58CFED;}
	.st3{fill:#929293;}
	.st4{fill:#FEFFFF;}
	.st5{fill:#CF6710;}
	.st6{fill:#FBC5A9;}
	.st7{fill:#F7A28B;}
	.st8{fill:#FFAB51;}
	.st9{fill:none;stroke:#929293;stroke-miterlimit:10;}
	.st10{fill:#5B1D12;}
	.st11{opacity:0.3;fill:#7C2B1A;enable-background:new    ;}
	.st12{fill:none;stroke:#F38F37;stroke-miterlimit:10;}
	.st13{fill:none;stroke:#F38F37;stroke-linecap:round;stroke-linejoin:round;}
	.st14{fill:none;stroke:#7C2B1A;stroke-linecap:round;stroke-linejoin:round;}
	.st15{fill:none;stroke:#F7A28B;stroke-linecap:round;stroke-linejoin:round;}
	.st16{fill:none;stroke:#5B1D12;stroke-width:2;stroke-linecap:round;stroke-linejoin:round;}
	.st17{fill:#59B17D;}
	.st18{fill:#EB5532;}
	.st19{fill:none;stroke:#706F75;stroke-miterlimit:10;}
	.st20{fill:none;stroke:#59B17D;stroke-miterlimit:10;}
	.st21{fill:none;stroke:#EB5532;stroke-miterlimit:10;}
	.st22{fill:#1F1513;}
	.st23{fill:#815041;}
	.st24{fill:#683B30;}
	.st25{fill:none;stroke:#1F1513;stroke-linecap:round;stroke-linejoin:round;}
	.st26{fill:none;stroke:#317A4D;stroke-linecap:round;stroke-linejoin:round;}
	.st27{fill:#E3DFDE;}
	.st28{fill:none;stroke:#1F1513;stroke-width:2;stroke-linecap:round;stroke-linejoin:round;}
	.st29{fill:#FFE06C;}
	.st30{fill:none;stroke:#58CFED;stroke-width:2;stroke-linecap:round;stroke-linejoin:round;}
	.st31{fill:#706F75;}
	.st32{fill:#606068;}
	.st33{fill:#459264;}
	.st34{fill:none;stroke:#317A4D;stroke-miterlimit:10;}
	.st35{fill:none;stroke:#515159;stroke-miterlimit:10;}
	.st36{fill:#515159;}
	.st37{font-family:'Roboto-Bold';}
	.st38{font-size:15.99px;}
	.st39{fill:#405978;}
	.st40{fill:none;stroke:#2F405E;stroke-linecap:round;stroke-linejoin:round;}
	.st41{fill:none;stroke:#5B1D12;stroke-linecap:round;stroke-linejoin:round;}
	.st42{fill:none;stroke:#FEFFFF;stroke-miterlimit:10;}
</style>
<g id="OBJECTS">
	<polyline class="st0" points="190.8,77.9 190.8,20.9 441,20.9 	"/>
	<polyline class="st0" points="95,268.1 95,411.3 233.4,411.3 	"/>
	<line class="st0" x1="551.1" y1="230.1" x2="551.1" y2="276"/>
	<path class="st1" d="M547.2,450.9c-1.4,0-2.7,0.3-4,0.8v-3.5H504v14.5c0,7.9,6.4,14.4,14.4,14.4h10.5c5.2,0,10.1-2.9,12.6-7.5
		c4.7,3.2,11.1,2,14.2-2.7s2-11.1-2.7-14.2C551.3,451.6,549.3,450.9,547.2,450.9L547.2,450.9z M547.2,467.4c-1.6,0-3.2-0.6-4.3-1.7
		c0.2-1,0.3-2,0.3-3v-6.3c1.1-0.9,2.5-1.5,4-1.5c3.5,0,6.2,2.8,6.2,6.2S550.7,467.4,547.2,467.4z"/>
	<path class="st0" d="M280.5,89.5v161.1c0,12.2-9.8,22-22,22h-236c-12.2,0-22-9.8-22-22V89.5c0-12.2,9.8-22,22-22h236
		C270.7,67.5,280.5,77.3,280.5,89.5z"/>
	<path class="st2" d="M22.5,79.4h236c5.5,0,10,4.5,10,10v161.1c0,5.5-4.5,10-10,10h-236c-5.5,0-10-4.5-10-10V89.4
		C12.5,83.9,17,79.4,22.5,79.4z"/>
	<path class="st3" d="M326.5,135.6c0,0,12-7.5,41.3-9.3c17.6-1.1,23.5-11.7,23.5-11.7l-52.1-66c0,0-13.1,7.8-28.4,8.3
		c-20.6,0.6-36.9,11.1-36.9,11.1L326.5,135.6z"/>
	<path class="st4" d="M312.5,117.8l14,17.8c13.1-9,27.9-15.3,43.5-18.5c15.5-3.1,19.5-15.5,19.5-15.5l-54-67.8
		c0,0-10.8,10.1-24.2,12.2c-18.2,2.9-39.1,19.9-39.1,19.9L312.5,117.8z"/>
	<path class="st5" d="M308,157.3c0,0,3.3-10.8-6.8-21.5s-18.5-9.8-18.5-9.8l-4.1,7.9C278.5,133.9,290,158.6,308,157.3z"/>
	<path class="st6" d="M299.8,150.2l7.3-27.1l5.3-5.3l-5.8-8.5c0.5-1.8,0-5.8,0-5.8c-1-4.5-4.2-8.2-8.5-9.8c-0.2-2.9-0.2-5.8,0-8.7
		c0.3-5.2-3.2-9-5-8.7s0.8,9.2-2,15.2s0,16.3,0,16.3l-8.5,18.2C287,136.4,294.2,144.8,299.8,150.2z"/>
	<path class="st7" d="M299.8,150.2l2.5-9.3c-11.3-3.2-19.7-15-19.7-15C287,136.4,294.2,144.8,299.8,150.2z"/>
	<path class="st8" d="M138.6,116.4c-17.5-2.6-28.2-1.7-28.2-1.7l-4.9,5.9c0,0-28-6.2-42.2,8S4,201.3,6.7,248.9c0,0,4.7,19.3,36,19
		s88.7,2.3,88.7,2.3s7.9,0.1,13-9.7h53v-56c0,0,47.7,49.3,75,46.7s28.3-69.3,35.7-94c0,0-17.3-12.3-25.3-31.3l-31,59.7l-42.3-41.2
		c0,0-12.7-13.5-26.7-15.5l-12.7-0.2l-5.9-6.1C164.1,122.7,156.1,119,138.6,116.4z"/>
	<path class="st5" d="M145.2,144.4c0,0,21-5.8,19-21.8c0,0-8-3.7-25.5-6.2s-28.2-1.7-28.2-1.7S113.6,137.3,145.2,144.4z"/>
	<path class="st4" d="M149,256.6h59.2c0,0,9,4.2,9,22s4.8,50.8,15.2,58.5h-57.6c0,0-15.9-1.8-17.4-23.8S162.4,269.4,149,256.6z"/>
	<path class="st3" d="M174.9,337.1c0,0,13.9,2.8,15.9-16.4h58.3c0,0,2.8,16.4-16.6,16.4H174.9z"/>
	<line class="st9" x1="165.1" y1="272.2" x2="205" y2="272.2"/>
	<line class="st9" x1="166.4" y1="283.7" x2="206.4" y2="283.7"/>
	<line class="st9" x1="195.4" y1="295.4" x2="207.8" y2="295.4"/>
	<line class="st9" x1="167.9" y1="295.4" x2="187.8" y2="295.4"/>
	<line class="st9" x1="169.4" y1="308" x2="209.3" y2="308"/>
	<line class="st9" x1="171" y1="320.7" x2="186.6" y2="320.7"/>
	<path class="st10" d="M127,102.4c0,0-11.2-8.5-10.7-23.5s5.8-27.8,16-22.8c0,0,4.7-10.3,14.7-8.5s12.7,6,26.5,5.2s12.3,15,8.5,18.8
		c-4.5,4.5-8.7,4.7-8.7,4.7s1.8,12.5-8.7,18.3L127,102.4z"/>
	<path class="st6" d="M168.5,72.8c0,0-13.3,2.2-27.8-7.7c1.4,2.7,2.3,5.7,2.5,8.7c0.1,3.8-2,7.2-5.4,8.9l0,0
		c-0.7-3.1-3.4-5.3-6.6-5.5c-3.8,0-6.8,3.4-6.8,7.6c0,4,2.8,7.3,6.3,7.6l-9.7,27.6l-8.7,0.7l0,0c3.2,7.2,11.6,19,32.9,23.8
		c0,0,14-3.9,18-14.1v-0.1l-6.2-2.8l1-12.5c0,0,8.8,4.5,12-2.5S169,77.1,168.5,72.8z"/>
	<path class="st11" d="M158,114.9l3.9,1.3c2.8,0.5,6.3,0.2,8.1-3.8c1-2.3,1.3-6.9,1.1-12.2c0,0-4.4-7.6-24.5-5.9
		c-3.4-4-5.4-9-5.6-14.3c-0.9,1.1-2,2-3.3,2.7l0,0C137.8,82.7,130.7,101.7,158,114.9z"/>
	<path class="st7" d="M139.5,142.9c1.8,0.6,3.7,1.1,5.7,1.5c0,0,14-3.9,18-14.1v-0.1l-6.2-2.8C157,127.4,150.6,138.1,139.5,142.9z"
		/>
	<path class="st7" d="M168.7,74.4c-0.1-0.7-0.2-1.2-0.2-1.6c0,0-13.3,2.2-27.8-7.7c1.3,2.5,2.2,5.3,2.5,8.1
		C150.4,75,160.6,76.6,168.7,74.4z"/>
	<path class="st7" d="M158,114.9c0,0-10.5-5.3-13.7-9.7c0,0,3.3,11,13.3,15.3L158,114.9z"/>
	<path class="st12" d="M105.5,120.6c0,0,2.2,22.7,38.8,32c0,0,18.9-1.8,25.7-23.8"/>
	<line class="st13" x1="197.3" y1="204.6" x2="197.3" y2="192.5"/>
	<line class="st13" x1="251.7" y1="185.6" x2="244.7" y2="198.5"/>
	<path class="st14" d="M132.3,56.1c1.5,1.1,2.8,2.4,3.8,3.9"/>
	<path class="st14" d="M168.5,72.8c0,0,5.1-0.8,8.1-4.4"/>
	<polyline class="st15" points="130.3,80.4 132.5,85.7 128.2,86.3 	"/>
	<path class="st5" d="M131.3,270.3c0,0,0.9-34.4,11.6-37.6c0,0,10.3-1.3,1.4,28C144.3,260.6,139.9,269.6,131.3,270.3z"/>
	<path class="st6" d="M190.2,263.3c0,0-6-6.8-12.2-12.5s-19.2-9.2-19.2-9.2l-21.9-2.2c-3,6.7-4.4,16.7-5,23.6l17.3,1.1
		c2.6,8.8,10.3,8.6,10.3,8.6s2.7,8.4,5.2,14.6s8,4.6,8,4.6l2.5,4c3.9,5.6,7.8,1,7.8,1c5.9,7.2,7.9-0.9,7.9-0.9s2.2,5.1,5.2,0.8
		S190.2,263.3,190.2,263.3z"/>
	<path class="st7" d="M141.8,239.8l-5-0.5c-3,6.7-4.4,16.7-5,23.6l9.9,0.6C138.7,252,140.5,243.6,141.8,239.8z"/>
	<line class="st13" x1="139.6" y1="232.2" x2="60.9" y2="221.3"/>
	<path class="st13" d="M71.3,222.7c0,0,2-29.2,7-41.7"/>
	<line class="st15" x1="149.1" y1="264" x2="147.9" y2="259"/>
	<line class="st15" x1="172.6" y1="291.9" x2="168" y2="271.5"/>
	<path class="st15" d="M182.9,296.9c0,0-5.4-19.4-5.4-25.4"/>
	<line class="st15" x1="190.8" y1="296" x2="184.8" y2="271.5"/>
	<path class="st15" d="M165.8,268c0,0,12.4,0.9,22-3.2"/>
	<path class="st15" d="M306.7,103.4c0,0,1.1,6.8-1.7,9.8"/>
	<path class="st15" d="M162.4,80.5c-0.3,1.5-0.1,3.1,0.5,4.5c1,1.8,6.1,7.4,2.6,8.4c-1.6,0.6-3.2,0.9-4.9,1"/>
	<ellipse class="st10" cx="154.3" cy="81.5" rx="1.1" ry="1.5"/>
	<path class="st10" d="M166.7,82.5c-0.1,0.8-0.7,1.4-1.3,1.3c-0.8,0.1-1.6-0.5-1.6-1.3c-0.1-0.8,0.5-1.6,1.3-1.6
		c0.8-0.1,1.6,0.5,1.6,1.3C166.7,82.3,166.7,82.4,166.7,82.5z"/>
	<path class="st14" d="M153.5,96.6c0,0,1.4,2.4,5.5,2.2"/>
	<path class="st16" d="M152.1,75.8c1.7-1,3.8-1,5.4,0"/>
	<path class="st16" d="M163.8,77.1c1.6-0.9,3.7-0.6,4.9,0.8"/>
	<polyline class="st9" points="320,99.5 357.3,79.8 340.5,60 	"/>
	<polygon class="st8" points="324.9,95.2 318.9,98.3 307.4,84.5 313.4,81.4 	"/>
	<polygon class="st2" points="334.1,90.3 328.1,93.4 313.6,76.1 319.6,72.9 	"/>
	<polygon class="st17" points="353.9,79.8 347.9,83 329.7,61.1 335.7,58 	"/>
	<polygon class="st18" points="343.8,85.2 337.8,88.3 329.1,77.8 335.1,74.7 	"/>
	<polyline class="st19" points="301.9,82.3 313.3,69.6 326,69 328.8,54.6 	"/>
	<polyline class="st19" points="324.3,57.3 328.8,54.6 331.8,58 	"/>
	<line class="st19" x1="327.1" y1="106.1" x2="337.6" y2="100.7"/>
	<line class="st9" x1="328.6" y1="109.2" x2="345.9" y2="100.4"/>
	<line class="st9" x1="330.8" y1="112.8" x2="347.8" y2="104.2"/>
	<path class="st0" d="M695.6,61.5v161.1c0,12.2-9.8,22-22,22h-236c-12.2,0-22-9.8-22-22V61.5c0-12.2,9.8-22,22-22h236
		C685.7,39.5,695.6,49.3,695.6,61.5z"/>
	<path class="st2" d="M437.6,51.5h236c5.5,0,10,4.5,10,10v161.1c0,5.5-4.5,10-10,10h-236c-5.5,0-10-4.5-10-10V61.5
		C427.6,56,432,51.5,437.6,51.5z"/>
	<path class="st4" d="M449.7,0h59.7c4.4,0,8,3.6,8,8v80.6c0,4.4-3.6,8-8,8h-59.7c-4.4,0-8-3.6-8-8V8C441.7,3.6,445.3,0,449.7,0z"/>
	<circle class="st20" cx="458.1" cy="35.5" r="6.2"/>
	<line class="st19" x1="470.2" y1="31.1" x2="481.7" y2="31.1"/>
	<line class="st9" x1="470.2" y1="34.9" x2="507.2" y2="34.9"/>
	<line class="st9" x1="470.2" y1="38.9" x2="507.2" y2="38.9"/>
	<polyline class="st20" points="455.8,33.9 458.8,36.8 465.7,29.3 	"/>
	<circle class="st20" cx="458.1" cy="55.5" r="6.2"/>
	<line class="st19" x1="470.2" y1="51.1" x2="481.7" y2="51.1"/>
	<line class="st9" x1="470.2" y1="54.9" x2="507.2" y2="54.9"/>
	<line class="st9" x1="470.2" y1="58.9" x2="507.2" y2="58.9"/>
	<polyline class="st20" points="455.8,53.9 458.8,56.8 465.7,49.3 	"/>
	<circle class="st21" cx="458.1" cy="75.5" r="6.2"/>
	<line class="st19" x1="470.2" y1="71.1" x2="481.7" y2="71.1"/>
	<line class="st9" x1="470.2" y1="74.9" x2="507.2" y2="74.9"/>
	<line class="st9" x1="470.2" y1="78.9" x2="507.2" y2="78.9"/>
	<path class="st17" d="M548.3,72.9c-5.1,1.8-9,5.9-10.6,11l-26.8,7c-9,2.9-16.6,9-21.3,17.2c-7.7,13.5-27.3,63-27.3,63h41.3l1,61.3
		h140c0,0,20.8,15.3,37.5,3.3s10.8-38.7,5.8-51.3s-32.3-70-32.3-70S642,88.3,616.8,84.8c-21-2.9-26.7-5.3-26.7-5.3
		S578,60.4,548.3,72.9z"/>
	<path class="st22" d="M533,36.3c0,0-5.5-4.2-4.1-11c0,0,1-5.2,4.1-6c0,0-4.2-6.8,0-12s12.1-1,12.1-1s1.5-6.8,7.6-6.2
		s4.9,5.8,9.2,6.6s4.9-3.1,11-0.1s1.2,9.4,6,11.6s6.9,1.5,8.5,6.4s-2.9,7.6,0,13.1s-0.1,15.9-12.6,17.5h-43L533,36.3z"/>
	<path class="st23" d="M570,60.7c0.2,0,0.4,0,0.6,0c3.6,0,6.5-3.2,6.5-7.2s-2.9-7.2-6.5-7.2c-3.3,0.1-6.1,2.7-6.4,6
		c-5-4-6.4-11-3.2-16.6c0.1-0.1,0.1-0.2,0.2-0.3s-8.5-0.1-9.8-6.6c0,0-11,0.6-13.8-8c0,0-18.6,31.8-10.8,45.1
		c3.6,6.2,9.9,6.6,15.6,5.4l3.9,17.1c1,4.5,10.6,15.4,10.6,15.4s7.8-1.5,15-11.6c4.3-5.9,5.1-13.6,2.2-20.3L570,60.7z"/>
	<path class="st24" d="M545.5,83.9l1,4.6c1,4.5,10.6,15.4,10.6,15.4s3.7-0.7,8.4-4.5C556.8,97.8,549.8,90.2,545.5,83.9z"/>
	<path class="st24" d="M561,35.8c0.1-0.1,0.1-0.2,0.2-0.3s-8.5-0.1-9.8-6.6c0,0-11,0.6-13.8-8c0,0-0.6,9.2,10,11.1
		c0,0,1.8,6.6,11.8,7.7C559.8,38.4,560.3,37.1,561,35.8z"/>
	<path class="st24" d="M542.6,71.4c0,0,7.2-1.7,11.4-5.9c0,0-3.1,10.2-10.2,10.9L542.6,71.4z"/>
	<path class="st4" d="M536.4,50.5l7.9-2c0,0,1,4.6-2.8,5.2S536.4,50.5,536.4,50.5z"/>
	<polyline class="st25" points="572.2,51.2 566.6,54.5 571.6,54.5 	"/>
	<path class="st25" d="M538.9,31.6c0.2,2.4-0.7,4.7-2.5,6.3c-4.1,3.5-7.7,7.4,1.1,9"/>
	<path class="st23" d="M462.2,171.1c0,0-26.2,21.7-26.7,39.7S447.8,240,471,233s33.1-22.5,33.1-22.5l-0.6-39.4L462.2,171.1z"/>
	<path class="st26" d="M537.7,83.9c0,0-4.8,8.8-2.3,16.5s8.3,14.8,8.3,14.8s9.4-9.8,13.5-11.4c5.5,3.3,10,8,12.9,13.7
		c0,0,23.1-6,20.2-38.2"/>
	<line class="st26" x1="543.3" y1="84.8" x2="549.5" y2="94.2"/>
	<path class="st23" d="M614.2,193.6c0,0,18.2,33.5,32.5,41.7s34.3,10.7,34.3-14.5s-20.7-30.7-32.5-37.3s-24-14.8-24-14.8
		s-10-6.2-18.3-3.5c-12.4,4-17.7,12.5-22.7,15.5c-1.3,0.8-2.2,2.1-2.3,3.6c-1,7.2-2.1,23.4-7.1,28.3c-4,3.9-1.3,11,9,1.3
		c0,0-0.8,10.7,2.3,12.3s4.2-2.3,4.2-2.3s2.7,5.2,7.7-0.7c0,0,3.5,1.2,6.8-4.5s2.5-15.2,2.5-15.2S613.5,199.9,614.2,193.6z"/>
	<path class="st24" d="M665.4,192.5c4.9,7.4,11.6,23.7-2.3,48.4c9.7,0.8,17.9-3.9,17.9-20.1C681,205.9,673.8,197.9,665.4,192.5z"/>
	<line class="st25" x1="583" y1="213.9" x2="585.6" y2="194.1"/>
	<line class="st25" x1="589.5" y1="223.9" x2="591.9" y2="198.5"/>
	<line class="st25" x1="597.2" y1="223.3" x2="599.1" y2="202.7"/>
	<path class="st25" d="M585.6,189.1c4.1,5.3,9.5,9.5,15.6,12.2"/>
	<path class="st24" d="M614.2,193.6l1.1-9c0,0,4.4,7.6,1.5,13.4L614.2,193.6z"/>
	<line class="st26" x1="620.7" y1="130.6" x2="629.9" y2="172.1"/>
	<path class="st26" d="M669.7,184.1c4,1.2,7.7,2.9,11.3,5.1c13.8,8.3,11.3,29.2,11.3,29.2"/>
	<path class="st26" d="M648.5,183.4c4-1.1,8.1-1.5,12.2-1.1"/>
	<path class="st4" d="M619.3,223.3h-33l0.4,2c0.7,3.2-1.4,6.4-4.6,7.1c-0.4,0.1-0.8,0.1-1.3,0.1h38.5c1.1,0,2-0.9,2-2v-5.3
		C621.3,224.2,620.4,223.3,619.3,223.3z"/>
	<path class="st4" d="M580.8,232.6H470.7c-4.7,0-8.8-3.3-9.8-7.9l-16.6-78.4c-0.7-3.2,1.4-6.4,4.6-7.1c0.4-0.1,0.8-0.1,1.3-0.1
		h110.1c4.7,0,8.8,3.3,9.8,7.9l16.6,78.4c0.7,3.2-1.4,6.4-4.6,7.1C581.7,232.5,581.2,232.6,580.8,232.6z"/>
	<path class="st27" d="M586.7,225.3l-16.6-78.4c-1-4.6-5.1-7.9-9.8-7.9h-4c4.7,0,8.8,3.3,9.8,7.9l16.6,78.4c0.7,3.2-1.4,6.4-4.6,7.1
		c-0.4,0.1-0.8,0.1-1.3,0.1h4c3.3,0,6-2.7,6-6C586.8,226.2,586.8,225.8,586.7,225.3z"/>
	
		<ellipse transform="matrix(0.6689 -0.7434 0.7434 0.6689 31.9462 443.2233)" class="st27" cx="513.5" cy="185.8" rx="9.3" ry="11.6"/>
	<line class="st26" x1="505.1" y1="138.9" x2="506.2" y2="129.6"/>
	<path class="st22" d="M536.1,34.9c-0.4,0.5-1.1,0.6-1.6,0.2s-0.6-1.1-0.2-1.6c0.3-0.4,0.9-0.5,1.4-0.3
		C536.2,33.5,536.4,34.3,536.1,34.9z"/>
	<path class="st22" d="M544.8,38c-0.4,0.5-1.1,0.6-1.6,0.2s-0.6-1.1-0.2-1.6c0.3-0.4,0.9-0.5,1.4-0.3C545,36.6,545.2,37.4,544.8,38z
		"/>
	<path class="st28" d="M543.3,31.6c0,0,4.3-1.1,5.9,3.1"/>
	<path class="st28" d="M537.7,29.5c0,0-0.7-1.9-3.5-2"/>
	<line class="st19" x1="469.3" y1="12.3" x2="492.3" y2="12.3"/>
	<line class="st19" x1="464.3" y1="17.8" x2="497.3" y2="17.8"/>
	<path class="st29" d="M414.4,104.6l45.5-10.7c1.6-0.4,3.2,0.6,3.6,2.2l6.2,26.3c0.4,1.6-0.6,3.2-2.2,3.6L422,136.7
		c-1.6,0.4-3.2-0.6-3.6-2.2l-6.2-26.3C411.8,106.6,412.8,105,414.4,104.6z"/>
	<path class="st13" d="M417.7,108.3l20,8.9c2.5,1.1,5.3,0.4,7.1-1.7l14-16.9"/>
	<line class="st13" x1="434.6" y1="115.9" x2="422.8" y2="130.2"/>
	<line class="st13" x1="463.9" y1="120.5" x2="446.9" y2="113"/>
	<path class="st30" d="M340.8,180.2c0,0,19.3,10.4,39-1.9s6.9-43.6-8.1-33.7c-14.7,9.7,18.8,36.4,40.7-2"/>
	<rect x="576.4" y="397.3" class="st31" width="37.7" height="29.8"/>
	<rect x="499" y="273" class="st3" width="192.6" height="124.2"/>
	<rect x="504" y="278" class="st4" width="174.6" height="114.2"/>
	<rect x="683.6" y="273" class="st32" width="8" height="124.2"/>
	<path class="st29" d="M484.8,285.6H517c0,0-1.7,24.5,1.5,31.7H485C482.8,306.8,482.8,296.1,484.8,285.6z"/>
	<line class="st12" x1="490" y1="291.9" x2="503.5" y2="291.9"/>
	<line class="st12" x1="490" y1="296.6" x2="507.8" y2="296.6"/>
	<line class="st12" x1="490" y1="301.4" x2="509.2" y2="301.4"/>
	<line class="st12" x1="490" y1="309.8" x2="498.9" y2="309.8"/>
	<polygon class="st17" points="485.3,328.9 518.5,328.9 518.5,352.6 510,363.1 485.3,360.9 	"/>
	<polygon class="st33" points="510,363.1 510,350.9 518.5,352.6 	"/>
	<line class="st34" x1="490.8" y1="336.4" x2="510.8" y2="336.4"/>
	<line class="st34" x1="490.8" y1="342.9" x2="510" y2="342.9"/>
	<line class="st34" x1="490.8" y1="349.3" x2="500.9" y2="349.3"/>
	<path class="st17" d="M620.7,364c-20.4,0-37-16.6-37-37s16.6-37,37-37s37,16.6,37,37l0,0C657.7,347.4,641.1,364,620.7,364z
		 M620.7,302c-13.8,0-25,11.2-25,25s11.2,25,25,25s25-11.2,25-25l0,0C645.7,313.2,634.5,302,620.7,302z"/>
	<path class="st2" d="M597.7,327h-16c0-21.5,17.5-39,39-39v16C608,304,597.7,314.3,597.7,327L597.7,327z"/>
	<path class="st8" d="M657.7,327h-12c0-13.8-11.2-25-25-25v-12C641.1,290,657.7,306.6,657.7,327L657.7,327z"/>
	<path class="st18" d="M657.7,327h-12c0-5-1.5-9.9-4.3-14l9.9-6.7C655.5,312.4,657.7,319.6,657.7,327z"/>
	<path class="st2" d="M536.8,330c0,1.7-1.3,3-3,3s-3-1.3-3-3s1.3-3,3-3S536.8,328.3,536.8,330z"/>
	<line class="st9" x1="543.2" y1="330" x2="567.8" y2="330"/>
	<path class="st2" d="M536.8,341c0,1.7-1.3,3-3,3s-3-1.3-3-3s1.3-3,3-3S536.8,339.3,536.8,341z"/>
	<line class="st9" x1="543.2" y1="341" x2="567.8" y2="341"/>
	<path class="st2" d="M536.8,351c0,1.7-1.3,3-3,3s-3-1.3-3-3s1.3-3,3-3S536.8,349.3,536.8,351z"/>
	<line class="st9" x1="543.2" y1="351" x2="567.8" y2="351"/>
	<line class="st35" x1="553.9" y1="295.5" x2="567.5" y2="295.5"/>
	<line class="st9" x1="553.9" y1="300.2" x2="571.8" y2="300.2"/>
	<line class="st9" x1="553.9" y1="305" x2="573.1" y2="305"/>
	<line class="st35" x1="651.9" y1="285.2" x2="665.5" y2="285.2"/>
	<line class="st9" x1="651.9" y1="289.9" x2="669.8" y2="289.9"/>
	<line class="st9" x1="651.9" y1="294.7" x2="671.1" y2="294.7"/>
	<line class="st35" x1="629.6" y1="371.9" x2="643.1" y2="371.9"/>
	<line class="st9" x1="629.6" y1="376.5" x2="647.4" y2="376.5"/>
	<line class="st9" x1="629.6" y1="381.4" x2="648.8" y2="381.4"/>
	<line class="st9" x1="571.8" y1="308.5" x2="585.1" y2="316.6"/>
	<line class="st9" x1="636.3" y1="300.2" x2="647.4" y2="291.9"/>
	<line class="st9" x1="618.2" y1="358.6" x2="623.8" y2="374.5"/>
	<text transform="matrix(1 0 0 1 604.37 332.21)" class="st36 st37 st38">35 %</text>
	<rect x="549.4" y="427.1" class="st3" width="93.7" height="9.8"/>
	<rect x="622.4" y="427.1" class="st32" width="20.7" height="9.8"/>
	<polygon class="st36" points="614.1,397.3 576.4,397.3 614.1,404.5 	"/>
	<path class="st6" d="M404.7,259.1c-0.8-7.3-5.9-13.3-9.5-16.7c-1.1,9.8-5.6,18.9-12.7,25.8c-1.8-3.2-5.1-5.2-8.5-4.6
		c-4.5,0.7-7.5,5.6-6.7,10.9s5.2,9,9.8,8.3c0.2,0,0.3-0.1,0.5-0.1c-2.2,6-6.4,12.3-13.8,13.6l-6.7,19.4l35.2,1.2l0.3-21.5
		c2.2,3,13.8,7.2,18.7,4.3s-1.7-27.8-1.7-27.8s4.7-0.5,5.2-3.4S404.7,259.1,404.7,259.1z"/>
	<path class="st7" d="M400.6,248.8c-1.6-2.3-3.4-4.5-5.5-6.4c-1.1,9.8-5.6,18.9-12.7,25.8l0,0C382.5,268.2,395.3,260.1,400.6,248.8z
		"/>
	<path class="st10" d="M377,282.8c-4.5,0.7-8.9-3-9.8-8.3s2.1-10.2,6.7-10.9c3.4-0.5,6.7,1.4,8.5,4.6c19.6-18.8,13.5-49.9,4.2-43.8
		c-9.7,6.3-27.5,7-38,11s-8.3,22.3-8.3,22.3c2.5,24.9,23.3,38.6,23.3,38.6c7.5-1.3,11.6-7.5,13.8-13.6
		C377.4,282.8,377.2,282.8,377,282.8z"/>
	<path class="st8" d="M353.1,257.5c1.7,5.7-0.9,11.5-5.6,12.9s-10-2.1-11.7-7.8s0.9-11.5,5.6-12.9S351.4,251.8,353.1,257.5z"/>
	<path class="st6" d="M599.8,323.3c-4.8,4.2-20.5,11.2-20.5,11.2c2.5-1.8,3.2-7.5,0-7.6s-7.5,6.8-13.5,7.6S554,359.3,554,359.3
		l-49.5,27.7l-10.2-10.3c-0.1,2-1.6,30.4-14.8,46.1l16.8,11.8c20,8.5,33-10,33-10l35.5-50.2c0,0,12.7-5.8,18.8-8
		c9-3.2,6-24.8,6-24.8l8-6.8C605.5,329.8,604.5,319,599.8,323.3z"/>
	<path class="st7" d="M479.5,422.7l8,5.7c11.9-16.6,7.1-49.3,6.8-51.7l0,0C494.2,378.6,492.7,407,479.5,422.7z"/>
	<path class="st6" d="M291.4,408.2l-7.4,18.4l-37.7-27.5c0,0,3.3-10.7-4-16s-4.9-12.4-8.5-12s0,13.9,0,13.9s-22-4-29.4-13.9
		c0,0-5.2-4.9-7.6-2.7s2.1,6.2,2.6,9.9c0.3,2.9,1.5,5.6,3.4,7.8c0,0,2.4,7,7.6,11.2s17.8,9.5,20.9,14s34.2,46.5,34.2,46.5
		s24.8,28.8,42.4,16.2c0,0,7-5.8,8.2-9.5S325,436,325,436S304,434.1,291.4,408.2z"/>
	<path class="st7" d="M322.9,442.9l2.1-6.9c0,0-21-2-33.6-27.8C291.4,408.2,293,434.8,322.9,442.9z"/>
	<path class="st39" d="M340.1,322.8c0,0,11.9-26.8,59.1-7.2c0,0,23.2-14.5,39.5-5s35.2,47.5,55.5,66c0,0-1.2,34.5-18,49.5
		l-18.5-14.8c0,0,0,7.8-10,16l-3.8,50H332.5c0,0,9.5-48,7.8-53s-6.5-11.5-6.5-11.5L325,436c0,0-24.2-2.2-36.2-34l26.2-62
		C315,340,319,325.5,340.1,322.8z"/>
	<path class="st10" d="M336.1,252.4c0,0-19.6-3.2-24,9.6c-2.6,7.5-3,15.7-1.2,23.5c0,0-18.8-4.7-21.6,6.2s12.3,18.9,9.7,27
		s-9.4-2.7-15.9,2l-3.4,3.3c0,0,13.2,4.1,15,11c2.5,10.1,24,19.4,41.4,8.1c18.6-12.2,3-25.4,6.3-35c0,0,1.6-5.4,6.1-6.7
		c6.9-2,7.4-13.9-1.9-19.7c-7-4.3-2.4-11.8,0.3-15.3c1.3-1.7,1.7-3.9,1-5.9C346.8,257.3,343.8,253.2,336.1,252.4z"/>
	<circle class="st4" cx="379.5" cy="283.3" r="3.6"/>
	<polyline class="st15" points="372.7,270.3 379.5,274.9 374.2,275.8 	"/>
	<path class="st7" d="M392.5,295.4l-7.3-6.3c0,0,3.3,10.5,7.2,13.2L392.5,295.4z"/>
	<path class="st40" d="M399.2,315.5c0,0-22.3,14.8-50.6,10.8"/>
	<line class="st40" x1="457.8" y1="411.3" x2="428.7" y2="386.9"/>
	<path class="st40" d="M333.8,412.8c0,0-12.2-20.5-13.2-34.8"/>
	<line class="st15" x1="504.5" y1="386.9" x2="511" y2="395.4"/>
	<line class="st15" x1="579.2" y1="334.5" x2="570.8" y2="338.3"/>
	<line class="st15" x1="589.5" y1="341.5" x2="581.7" y2="346.8"/>
	<line class="st15" x1="589.5" y1="347.6" x2="583" y2="352.6"/>
	<line class="st15" x1="589.5" y1="353.8" x2="584.2" y2="358.6"/>
	<path class="st15" d="M199.1,376.7c1.9,2,4,3.8,6.1,5.5c4.5,3.3,14.2,6.8,14.2,6.8"/>
	<path class="st15" d="M202.9,386c0,0,8.6,6.4,15.1,8"/>
	<line class="st15" x1="284" y1="426.6" x2="281.3" y2="433.1"/>
	<path class="st41" d="M397.8,261c0,0,1.5-3.8,4.9-2.8"/>
	<path class="st16" d="M395.5,252.3c0,0,1.9-5,5.1-4.1"/>
	<path class="st15" d="M401.4,275.8c1.3,2,3.9,2.8,6.1,2"/>
	<path class="st14" d="M342.8,254.4c0,0-12.8-2-17.6,3.6"/>
	<line class="st14" x1="345.4" y1="256.4" x2="338.8" y2="261"/>
	<line class="st14" x1="310.9" y1="285.5" x2="312.2" y2="291.6"/>
	<path class="st14" d="M378.2,264.2c4.3-4.2,6.8-10,6.9-16.1"/>
	<path class="st14" d="M346.5,250c0,0,1.7-6.4,5.1-8.2"/>
	<line class="st0" x1="316.6" y1="477.1" x2="649.5" y2="477.1"/>
	<line class="st0" x1="525.1" y1="436.9" x2="672" y2="436.9"/>
	<circle class="st18" cx="190.8" cy="23.1" r="23.1"/>
	<path class="st42" d="M202.4,24.2c-0.6,6.5-6.4,11.2-12.9,10.5c-6.5-0.6-11.2-6.4-10.5-12.9c0.6-6,5.6-10.6,11.7-10.6"/>
	<polygon class="st4" points="197.3,27 198,27.9 202.2,24.6 205.1,29.1 206,28.5 202.5,23.1 	"/>
	<circle class="st18" cx="95" cy="411.3" r="23.1"/>
	<polyline class="st42" points="108.5,402.1 94.3,420.5 84.2,412.6 	"/>
</g>
</svg>
