<svg xmlns="http://www.w3.org/2000/svg" xmlns:xlink="http://www.w3.org/1999/xlink" viewBox="0 0 425.73 351.51"><defs><style>.cls-1{isolation:isolate;}.cls-2{fill:#f0f5f9;}.cls-3{fill:url(#Degradado_sin_nombre_18);}.cls-4{fill:#fff;}.cls-32,.cls-33,.cls-34,.cls-35,.cls-40,.cls-42,.cls-43,.cls-5{fill:none;}.cls-42,.cls-5{stroke:#fff;}.cls-32,.cls-33,.cls-34,.cls-35,.cls-5{stroke-miterlimit:10;}.cls-5{stroke-width:0.92px;}.cls-6{fill:url(#Degradado_sin_nombre_18-2);}.cls-7{fill:#31244c;}.cls-8{fill:url(#linear-gradient);}.cls-10,.cls-9{fill:#f37b1f;}.cls-12,.cls-14,.cls-19,.cls-9{mix-blend-mode:multiply;}.cls-9{opacity:0.2;}.cls-11{fill:url(#Degradado_sin_nombre_16);}.cls-12,.cls-15{fill:#ccccdb;}.cls-12,.cls-39,.cls-41{opacity:0.5;}.cls-13{fill:#afafc6;}.cls-14{opacity:0.6;}.cls-16{fill:#e28f56;}.cls-17{fill:#edb28a;}.cls-18,.cls-19{fill:#a2dfff;}.cls-20{fill:#ffcb4c;}.cls-21{fill:#dd6b1f;}.cls-22{fill:#e7afa7;}.cls-23{fill:#d3d3dd;}.cls-24{fill:#e6e6f0;}.cls-25{fill:#ffe471;}.cls-26{fill:#291034;}.cls-27{fill:#412e5e;}.cls-28{fill:#1a55b5;}.cls-29{fill:#b4e6fc;}.cls-30{fill:#001868;}.cls-31{fill:#c8987e;}.cls-32{stroke:#4e4254;stroke-width:0.42px;}.cls-33,.cls-34,.cls-35{stroke:#0070ff;stroke-width:0.65px;}.cls-34{stroke-dasharray:2.79 3.72;}.cls-35{stroke-dasharray:2.77 3.69;}.cls-36{fill:#deeaff;}.cls-37{fill:#acc5ff;}.cls-38{fill:#7da8ff;}.cls-39{fill:#7cfc81;}.cls-40{stroke:#109309;stroke-width:0.58px;}.cls-40,.cls-42,.cls-43{stroke-linecap:round;stroke-linejoin:round;}.cls-41{fill:#7ec47e;}.cls-42{stroke-width:0.27px;}.cls-43{stroke:#1a55b5;stroke-width:0.33px;}</style><linearGradient id="Degradado_sin_nombre_18" x1="66.27" y1="118.44" x2="219.64" y2="271.81" gradientUnits="userSpaceOnUse"><stop offset="0.23" stop-color="#e5f2ff"/><stop offset="1" stop-color="#c1defd"/></linearGradient><linearGradient id="Degradado_sin_nombre_18-2" x1="219.42" y1="81.12" x2="339.87" y2="118.93" gradientTransform="translate(101.02 -131.11) rotate(27.57)" xlink:href="#Degradado_sin_nombre_18"/><linearGradient id="linear-gradient" x1="162.33" y1="220.83" x2="237.01" y2="295.51" gradientUnits="userSpaceOnUse"><stop offset="0" stop-color="#d8e7fd"/><stop offset="1" stop-color="#f37b1f"/></linearGradient><linearGradient id="Degradado_sin_nombre_16" x1="145.19" y1="50.59" x2="254.15" y2="159.56" gradientUnits="userSpaceOnUse"><stop offset="0" stop-color="#e6e6f0"/><stop offset="1" stop-color="#d3d3dd"/></linearGradient></defs><g class="cls-1"><g id="OBJECTS"><path class="cls-2" d="M370,304.41c-3.25-6.73-3.8-14.41-5.77-21.63s-6.13-14.65-13.25-16.95c-6.05-2-12.75.37-17.93,4.06-4.24,3-8.72,7.18-13.8,6.08-4.33-.94-6.88-5.38-8.44-9.52-6.31-16.73-5.85-36.53-17.24-50.32-9.39-11.36-25.79-15.9-40.09-12.29s-23,14.68-29,28.16-5.56,72.41-5.56,72.41Z"/><path class="cls-3" d="M170.48,90.3l-28.95-3.55a10,10,0,0,0-11.17,8.74l-1.24,10.12a9.91,9.91,0,0,1-7.26,8.41c-.88.23-1.76.47-2.62.73a9.91,9.91,0,0,1-10.59-3.45l-6.28-8a10,10,0,0,0-14.07-1.72l-23,18a10,10,0,0,0-1.72,14.07l6.29,8a9.89,9.89,0,0,1,.79,11.1c-.46.78-.9,1.57-1.34,2.37a9.9,9.9,0,0,1-9.91,5L49.3,158.87a10,10,0,0,0-11.17,8.73l-3.55,29a10,10,0,0,0,8.74,11.17L53.44,209a9.9,9.9,0,0,1,8.41,7.26c.23.88.47,1.75.73,2.62a9.9,9.9,0,0,1-3.45,10.58l-8,6.29a10,10,0,0,0-1.72,14.07l18,23a10,10,0,0,0,14.07,1.73l8-6.29a9.89,9.89,0,0,1,11.1-.79c.78.45,1.57.9,2.37,1.34a9.9,9.9,0,0,1,5,9.91l-1.24,10.12A10,10,0,0,0,115.43,300l29,3.54a10,10,0,0,0,11.17-8.73l1.24-10.12a9.9,9.9,0,0,1,7.26-8.41c.88-.23,1.75-.47,2.62-.73A9.89,9.89,0,0,1,177.27,279l6.28,8a10,10,0,0,0,14.07,1.72l23-18a10,10,0,0,0,1.73-14.07l-6.29-8a9.89,9.89,0,0,1-.79-11.1c.46-.78.9-1.57,1.34-2.37a9.89,9.89,0,0,1,9.91-5l10.12,1.24a10,10,0,0,0,11.17-8.74l3.54-29a10,10,0,0,0-8.73-11.17l-10.12-1.24a9.89,9.89,0,0,1-8.41-7.27c-.23-.87-.47-1.75-.73-2.62a9.9,9.9,0,0,1,3.45-10.58l8-6.28a10,10,0,0,0,1.72-14.07l-18-23a10,10,0,0,0-14.07-1.72l-8,6.28a9.87,9.87,0,0,1-11.1.8c-.78-.46-1.57-.9-2.37-1.34a9.9,9.9,0,0,1-5-9.91l1.24-10.12A10,10,0,0,0,170.48,90.3Z"/><circle class="cls-4" cx="143.41" cy="196.09" r="36.99"/><circle class="cls-5" cx="143.41" cy="196.09" r="53.65" transform="translate(-90.33 262.28) rotate(-69.63)"/><circle class="cls-5" cx="143.41" cy="196.09" r="75.79" transform="translate(-96.65 158.84) rotate(-45)"/><path class="cls-6" d="M345.05,40.32l-14-9.64a5.85,5.85,0,0,0-8.12,1.5l-3.36,4.89a5.77,5.77,0,0,1-6,2.38c-.51-.12-1-.23-1.55-.33a5.75,5.75,0,0,1-4.53-4.63l-1.08-5.84A5.83,5.83,0,0,0,299.61,24l-16.7,3.08a5.84,5.84,0,0,0-4.68,6.8l1.07,5.84a5.75,5.75,0,0,1-2.58,5.94c-.45.28-.89.57-1.33.86a5.76,5.76,0,0,1-6.47-.08L264,43.05a5.84,5.84,0,0,0-8.12,1.49l-9.63,14a5.84,5.84,0,0,0,1.49,8.12L252.67,70a5.77,5.77,0,0,1,2.38,6c-.11.51-.22,1-.32,1.55a5.78,5.78,0,0,1-4.64,4.53l-5.84,1.07a5.84,5.84,0,0,0-4.68,6.8l3.08,16.7a5.84,5.84,0,0,0,6.8,4.68l5.84-1.07a5.75,5.75,0,0,1,5.94,2.58l.86,1.33a5.73,5.73,0,0,1-.08,6.46l-3.36,4.89a5.84,5.84,0,0,0,1.49,8.12l14,9.63a5.83,5.83,0,0,0,8.12-1.5l3.36-4.88a5.77,5.77,0,0,1,6-2.39c.51.12,1,.23,1.55.33a5.77,5.77,0,0,1,4.53,4.63l1.08,5.84a5.84,5.84,0,0,0,6.79,4.69l16.7-3.08a5.85,5.85,0,0,0,4.69-6.8l-1.08-5.84a5.76,5.76,0,0,1,2.58-6c.45-.27.89-.56,1.33-.86a5.78,5.78,0,0,1,6.47.08l4.89,3.37a5.82,5.82,0,0,0,8.11-1.5l9.63-14a5.84,5.84,0,0,0-1.49-8.12L352.52,104a5.75,5.75,0,0,1-2.38-6c.11-.52.22-1,.32-1.55a5.77,5.77,0,0,1,4.64-4.53l5.84-1.08A5.83,5.83,0,0,0,365.62,84L362.54,67.3a5.84,5.84,0,0,0-6.8-4.68L349.9,63.7A5.76,5.76,0,0,1,344,61.12c-.28-.45-.57-.89-.86-1.33a5.75,5.75,0,0,1,.08-6.47l3.36-4.89A5.83,5.83,0,0,0,345.05,40.32Z"/><circle class="cls-4" cx="302.57" cy="87.61" r="21.53" transform="translate(18.05 222.79) rotate(-41.56)"/><circle class="cls-5" cx="302.57" cy="87.61" r="31.23" transform="translate(26.67 239.61) rotate(-45)"/><circle class="cls-5" cx="302.57" cy="87.61" r="44.12" transform="translate(26.67 239.61) rotate(-45)"/><path class="cls-7" d="M230.88,211.93H168.47a2.84,2.84,0,0,1-2.84-2.84h0a2.84,2.84,0,0,1,2.84-2.84h62.41a2.84,2.84,0,0,1,2.84,2.84h0A2.84,2.84,0,0,1,230.88,211.93Z"/><rect class="cls-8" x="171.23" y="211.93" width="56.88" height="92.48"/><rect class="cls-9" x="171.23" y="211.93" width="11.89" height="92.48"/><path class="cls-10" d="M234.06,152.32s19.76,14.63,24.52,26,0,68.06,0,68.06h0a9.51,9.51,0,0,1-9.52-9.51v-9.5a45.47,45.47,0,0,0-20.51-38l-2.91-1.9Z"/><path class="cls-10" d="M165.28,152.32s-19.76,14.63-24.51,26,0,68.06,0,68.06h0a9.51,9.51,0,0,0,9.51-9.51v-9.5a45.47,45.47,0,0,1,20.51-38l2.91-1.9Z"/><path class="cls-11" d="M239,92.34C235.87,63,226.65,25,206.59,3a9.39,9.39,0,0,0-13.83,0C172.69,25,163.47,63,160.37,92.34c-3.3,31.34.41,63.59,11.39,92.95a6.52,6.52,0,0,0,6.1,4.25h43.62a6.54,6.54,0,0,0,6.11-4.25A205.62,205.62,0,0,0,239,92.34Z"/><path class="cls-10" d="M230.88,50.52c-5.27-18-13.09-35.24-24.29-47.48-2.47-2.7-11.37-2.7-13.83,0-11.21,12.24-19,29.5-24.29,47.48Z"/><path class="cls-12" d="M239,92.34C235.87,63,226.65,25,206.59,3a9.31,9.31,0,0,0-7.23-3,9.06,9.06,0,0,1,1.71,1.68c18.56,23.87,24.82,63.19,25.57,93.22.8,32.06-5.59,64.46-19.12,93.35a6.64,6.64,0,0,1-.8,1.27h14.76a6.54,6.54,0,0,0,6.11-4.25A205.62,205.62,0,0,0,239,92.34Z"/><polygon class="cls-13" points="220.06 206.19 179.28 206.19 177.24 189.54 222.1 189.54 220.06 206.19"/><g class="cls-14"><path class="cls-15" d="M184.31,206.19h-2.79l-1.12-12.32a1.48,1.48,0,0,1,1.48-1.61h0a1.47,1.47,0,0,1,1.47,1.36Z"/><path class="cls-15" d="M189.1,206.19h-2.79l-.83-12.36a1.48,1.48,0,0,1,1.48-1.57h0a1.47,1.47,0,0,1,1.48,1.4Z"/><path class="cls-15" d="M193.89,206.19h-2.8l-.53-12.39a1.48,1.48,0,0,1,1.48-1.54h0a1.48,1.48,0,0,1,1.48,1.43Z"/><path class="cls-15" d="M198.68,206.19h-2.8l-.24-12.43a1.49,1.49,0,0,1,1.48-1.5h0a1.47,1.47,0,0,1,1.48,1.47Z"/><path class="cls-15" d="M203.46,206.19h-2.79l.06-12.46a1.47,1.47,0,0,1,1.48-1.47h0a1.48,1.48,0,0,1,1.48,1.5Z"/><path class="cls-15" d="M208.25,206.19h-2.8l.36-12.5a1.48,1.48,0,0,1,1.48-1.43h0a1.48,1.48,0,0,1,1.48,1.54Z"/><path class="cls-15" d="M213,206.19h-2.8l.66-12.53a1.47,1.47,0,0,1,1.48-1.4h0a1.47,1.47,0,0,1,1.48,1.57Z"/><path class="cls-15" d="M217.82,206.19H215l1-12.57a1.48,1.48,0,0,1,1.48-1.36h0a1.48,1.48,0,0,1,1.47,1.61Z"/></g><path class="cls-10" d="M199.67,246.36h0a7,7,0,0,1-7-6.87l-.88-46.1a85.17,85.17,0,0,1,1.44-17.53l4.44-23.54h4l4.44,23.54a85.17,85.17,0,0,1,1.45,17.53l-.88,46.1A7,7,0,0,1,199.67,246.36Z"/><circle class="cls-16" cx="199.67" cy="83.32" r="22.35" transform="translate(-0.43 165.59) rotate(-45)"/><path class="cls-17" d="M218.68,71.56a22.68,22.68,0,0,0-4.13-4.92L202.67,80.8Z"/><path class="cls-17" d="M219.36,72.73l-16,9.25,18.21-3.21A22.38,22.38,0,0,0,219.36,72.73Z"/><path class="cls-17" d="M201.63,79.93l11.88-14.16A22.44,22.44,0,0,0,208,62.56Z"/><path class="cls-17" d="M200.35,79.46l6.32-17.37A22.4,22.4,0,0,0,200.35,61Z"/><path class="cls-17" d="M196.67,80.8,184.79,66.64a22.36,22.36,0,0,0-4.12,4.92Z"/><path class="cls-17" d="M221.79,86.53a22.52,22.52,0,0,0,0-6.42l-18.2,3.21Z"/><path class="cls-17" d="M202.67,85.83,214.55,100a22.45,22.45,0,0,0,4.13-4.92Z"/><path class="cls-17" d="M180.67,95.07a22.13,22.13,0,0,0,4.12,4.92l11.88-14.16Z"/><path class="cls-17" d="M177.55,80.11a22.52,22.52,0,0,0,0,6.42l18.21-3.21Z"/><path class="cls-17" d="M199,61a22.4,22.4,0,0,0-6.32,1.11L199,79.46Z"/><path class="cls-17" d="M200.35,87.17v18.48a22.4,22.4,0,0,0,6.32-1.11Z"/><path class="cls-17" d="M201.63,86.71,208,104.08a22.79,22.79,0,0,0,5.56-3.22Z"/><path class="cls-17" d="M203.35,84.66l16,9.24a22.44,22.44,0,0,0,2.2-6Z"/><path class="cls-17" d="M199,87.17l-6.32,17.37a22.4,22.4,0,0,0,6.32,1.11Z"/><path class="cls-17" d="M196,84.66l-18.2,3.21a22.42,22.42,0,0,0,2.19,6Z"/><path class="cls-17" d="M196,82l-16-9.25a22.36,22.36,0,0,0-2.19,6Z"/><path class="cls-17" d="M197.71,79.93l-6.32-17.37a22.2,22.2,0,0,0-5.55,3.21Z"/><path class="cls-17" d="M197.71,86.71l-11.87,14.15a22.55,22.55,0,0,0,5.55,3.22Z"/><circle class="cls-18" cx="199.67" cy="83.32" r="15.8"/><path class="cls-19" d="M204.14,68.16a13.63,13.63,0,1,1-20.11,13,14.93,14.93,0,0,0-.16,2.13,15.8,15.8,0,1,0,20.27-15.16Z"/><path class="cls-20" d="M322.88,313.63h0a1.31,1.31,0,0,0,1.26-1.69l-43.48-143.4a1.32,1.32,0,0,0-1.26-.93h0a1.32,1.32,0,0,0-1.26,1.7l2.37,7.81H251.79l-2.6-8.58a1.32,1.32,0,0,0-1.26-.93h0a1.31,1.31,0,0,0-1.26,1.7L290.15,312.7a1.3,1.3,0,0,0,1.26.93h0a1.32,1.32,0,0,0,1.26-1.69l-5.23-17.24h28.72l5.46,18A1.31,1.31,0,0,0,322.88,313.63Zm-42.45-42h28.73l2.87,9.48H283.31Zm7.09-71.38H258.79l-2.87-9.48h28.72Zm.62,2.07,2.88,9.49H262.29l-2.87-9.49Zm3.51,11.55,2.87,9.49H265.8l-2.88-9.49Zm3.5,11.55,2.87,9.49H269.3l-2.88-9.49Zm3.5,11.55,2.88,9.49H272.8l-2.87-9.49Zm3.5,11.55L305,258H276.31l-2.88-9.49Zm3.51,11.56,2.87,9.48H279.81l-2.88-9.48Zm-24.52-80.86,2.87,9.48H255.29l-2.88-9.48Zm5.67,113.44-2.87-9.48h28.72l2.88,9.48Z"/><path class="cls-20" d="M333.74,206.24l-3.38,5.62,14.95,10.27a3.65,3.65,0,0,0,5.42-1.08h0c1.1-1.93-.11-5.88-2.63-8S333.74,206.24,333.74,206.24Z"/><path class="cls-21" d="M341.76,205.16c4.36-.57,3.63-5.35,3.74-6.09a.28.28,0,0,1,0-.09c.33-3.57,2.55-7.64,6.49-8a11,11,0,0,1,10.58,5.56c2.42,4.43,1,9.11-1.6,13.06a11.89,11.89,0,0,1-5,4Z"/><rect class="cls-22" x="350.32" y="206.34" width="4.56" height="9.55" transform="translate(686.13 451.22) rotate(-175.16)"/><path class="cls-20" d="M353.15,239.43l8.47-20.77a3,3,0,0,0-2.46-3.64L347,212.27a2.94,2.94,0,0,0-3.33,2.84l-4.16,22.66Z"/><path class="cls-22" d="M351.78,195.09c-1.4,1.77-3.93,2.52-4.52,4.15l-.13.75v.08l-.38,2.28a5.29,5.29,0,1,0,10.44,1.77l.44-2.57C357.32,198.94,352.55,198.74,351.78,195.09Z"/><path class="cls-23" d="M345.5,238.5l6.09,15-5.82,70.28H341.3l-4.1-55a104.67,104.67,0,0,1,2.31-31h0Z"/><path class="cls-24" d="M345.5,238.5h0A80,80,0,0,0,351,267.56l22,56.26h4.29l-12.79-59a64.16,64.16,0,0,0-11.27-25.42h0Z"/><polygon class="cls-22" points="344.72 327.49 341.93 327.49 341.93 323.82 345.28 323.82 344.72 327.49"/><polygon class="cls-22" points="377.93 327.49 375.13 327.49 373.29 323.82 376.63 323.82 377.93 327.49"/><path class="cls-20" d="M347.75,223.6a3.84,3.84,0,1,1-3.84-3.84A3.84,3.84,0,0,1,347.75,223.6Z"/><polygon class="cls-22" points="347.35 212.37 347.84 220.61 354.96 213.35 347.35 212.37"/><polygon class="cls-25" points="350.3 232.63 363.61 238.14 364.4 231.9 350.91 228.88 350.3 232.63"/><path class="cls-25" d="M362.63,232.66a3.29,3.29,0,1,0,4.64.22A3.29,3.29,0,0,0,362.63,232.66Z"/><path class="cls-25" d="M362,236.76l6-2.73-6.51-16.92a3.66,3.66,0,0,0-5.09-2.17h0c-2,1-3.24,4.91-2.36,8.1S362,236.76,362,236.76Z"/><polygon class="cls-10" points="336.56 241.19 348.88 241.19 342.68 223.53 330.37 223.53 336.56 241.19"/><path class="cls-22" d="M343.37,229.46h0a1.56,1.56,0,0,0,1.42,1.79l3.55.27,2,1.11.64-3.13-.82-.56a5.07,5.07,0,0,0-3.18-.9l-2.11.11A1.55,1.55,0,0,0,343.37,229.46Z"/><polygon class="cls-20" points="317.33 201.03 330.37 211.86 333.74 206.24 318.37 196.3 317.33 201.03"/><path class="cls-22" d="M309.88,193.15l3.58,1.15,1.52.49h0a5.86,5.86,0,0,1,3,2.24l.13.17-.72,3.26-2.34-1.41-2.4,0a2.48,2.48,0,0,1-2.47-1.85,2.47,2.47,0,0,1,.81-2.43l-1.54-.5a.6.6,0,1,1,.37-1.15Z"/><path class="cls-22" d="M355.92,202.79a1.9,1.9,0,1,0,2.45-1.1A1.89,1.89,0,0,0,355.92,202.79Z"/><path class="cls-21" d="M356.89,205.17l3.3,3.59L356,213.57c-5.33-.6-5-6.47-5-6.47,4.37.42,5.62-1.22,5.89-1.93"/><path class="cls-26" d="M341.54,326l1.42.62,2.25-.62,1.18,3.87H334.48c0-1.94,4.13-1.94,4.13-1.94Z"/><path class="cls-26" d="M374.74,326l1.43.62,2.24-.62,1.18,3.87H367.68c0-1.94,4.13-1.94,4.13-1.94Z"/><polygon class="cls-18" points="87.78 209.09 94.69 226.9 87.59 227.56 83.51 209.65 87.78 209.09"/><path class="cls-18" d="M90,224.57a3.72,3.72,0,1,1-2.33,4.72A3.72,3.72,0,0,1,90,224.57Z"/><path class="cls-18" d="M90.71,225.31l1.65,6.31c-2.3,1-12.25,7.29-16.62,5.94a5.59,5.59,0,0,1-3.72-3c-1.27-3.19.32-5.56,3.08-6.79C78.11,226.45,90.71,225.31,90.71,225.31Z"/><path class="cls-22" d="M82.31,203.6h0a1.76,1.76,0,0,0-.43,2.55l2.46,3.2.55,2.49L88,210l-.15-1.12a5.89,5.89,0,0,0-1.65-3.37l-1.7-1.7A1.77,1.77,0,0,0,82.31,203.6Z"/><polygon class="cls-22" points="77.41 345.27 81.69 345.27 82.06 340.8 77.79 340.8 77.41 345.27"/><polygon class="cls-22" points="46.8 345.27 51.08 345.27 52.75 340.8 48.47 340.8 46.8 345.27"/><polygon class="cls-22" points="72.09 229.1 64.17 230.64 65.62 220.93 70.29 221.14 72.09 229.1"/><path class="cls-18" d="M64.76,265l-10-31.16a3.43,3.43,0,0,1,2.33-4.21l20.86-2.57a2.94,2.94,0,0,1,3.63,2.46l4.09,33.94Z"/><polygon class="cls-27" points="64.76 265.03 72.76 275.75 76.14 342.25 84.12 342.25 85.66 263.49 64.76 265.03"/><path class="cls-7" d="M81.81,263.77l-1.9,10.34A5,5,0,0,1,75,278.2h0L54.39,342.25H46.6L64.76,265Z"/><path class="cls-28" d="M57.8,217a7.67,7.67,0,0,0,14.52-3.7c-.07-2.14,1-4.17.81-6.33-.2-2.44-2.49-3.46-4.71-2.82-1.2.35-2.28,1-3.46,1.4-1,.34-2.1.48-3.13.78a5.88,5.88,0,0,0-3,2,7.87,7.87,0,0,0-1.76,4.19A8.15,8.15,0,0,0,57.8,217Z"/><path class="cls-22" d="M62.85,216.29a1.46,1.46,0,1,1-1.67-1.23A1.46,1.46,0,0,1,62.85,216.29Z"/><path class="cls-22" d="M68.25,209a4.56,4.56,0,0,1,3.1,1.21,4.41,4.41,0,0,1,1.36,2.56h0l.13.87a.48.48,0,0,1,0,.12l0,0,.37,2.4a6.09,6.09,0,0,1-4.65,7.08,5.92,5.92,0,0,1-6.71-5.11l-.45-2.94h0S60.57,209.39,68.25,209Z"/><path class="cls-28" d="M67,209.14a9.67,9.67,0,0,0-2.08.6,4.53,4.53,0,0,0-1.38.8c-1.33,1.16-.2,3.71.23,5a1.12,1.12,0,0,1,0,1,.68.68,0,0,1-1,0,3.4,3.4,0,0,1-.6-.92,1.06,1.06,0,0,0-.82-.59s-.21-6-.21-6,4.18-.11,4.46-.12A4.92,4.92,0,0,1,67,209.14Z"/><path class="cls-20" d="M72.59,213.49c.5,1.38.32,2.71-.4,3s-1.72-.63-2.23-2-.32-2.71.41-3S72.09,212.11,72.59,213.49Z"/><polygon class="cls-20" points="70.36 211.48 97.59 198.69 101.24 208.66 72.19 216.46 70.36 211.48"/><path class="cls-25" d="M102,202.72c1,2.75.65,5.41-.8,5.94s-3.44-1.27-4.45-4-.65-5.42.8-5.95S101,200,102,202.72Z"/><path class="cls-20" d="M101.24,203c.7,1.91.45,3.76-.56,4.13s-2.39-.89-3.08-2.8-.45-3.75.55-4.12S100.54,201.1,101.24,203Z"/><path class="cls-4" d="M100.32,203.35c-.57-1.57-1.82-2.55-2.88-2.36a5.64,5.64,0,0,0,2.2,6C100.58,206.47,100.89,204.91,100.32,203.35Z"/><path class="cls-22" d="M76.7,211.3h0A1.77,1.77,0,0,1,78,213.52l-1.14,3.88.39,2.52-3.58-.58-.27-1.09a5.86,5.86,0,0,1,.33-3.74l1-2.2A1.77,1.77,0,0,1,76.7,211.3Z"/><polygon class="cls-29" points="77.27 219.92 78.05 239 71.11 237.32 73.05 219.06 77.27 219.92"/><path class="cls-29" d="M72.63,235.75a3.73,3.73,0,1,1-1.63,5A3.73,3.73,0,0,1,72.63,235.75Z"/><path class="cls-29" d="M76.14,235.61l-1.81,7.21c-2.84-.27-16.23.6-19.86-3.14a6.37,6.37,0,0,1-2.09-5c.48-3.89,3.37-5.39,6.8-5.1C62.91,229.86,76.14,235.61,76.14,235.61Z"/><path class="cls-26" d="M82,343.24l-2.35,1-2.19-1-2,6.41H93.67c0-3.21-6.84-3.21-6.84-3.21Z"/><path class="cls-26" d="M51.74,343.24l-2.35,1-2.19-1-2,6.41H63.43c0-3.21-6.84-3.21-6.84-3.21Z"/><path class="cls-22" d="M264.6,124.8a2.76,2.76,0,1,0,2.83,2.68A2.76,2.76,0,0,0,264.6,124.8Z"/><path class="cls-22" d="M263.37,125.11l2,5.14L283.62,124a3.53,3.53,0,0,0,2.52-4.72h0c-.77-2-4.7-3.56-6.58-2.51Z"/><path class="cls-26" d="M265.14,122.3l-5-3.15a2,2,0,0,0-2.81.64l-1.1,1.75a2,2,0,0,1-2.07.92l-.54-.09a2,2,0,0,1-1.65-1.55l-.46-2a2,2,0,0,0-2.44-1.53l-5.78,1.32a2,2,0,0,0-1.53,2.44l.46,2a2,2,0,0,1-.82,2.11l-.45.32a2,2,0,0,1-2.25.07l-1.76-1.11a2,2,0,0,0-2.81.64l-3.15,5a2,2,0,0,0,.64,2.8l1.75,1.11a2,2,0,0,1,.92,2.06l-.09.54a2,2,0,0,1-1.55,1.65l-2,.46a2,2,0,0,0-1.53,2.44L230.4,147a2,2,0,0,0,2.44,1.53l2-.46a2,2,0,0,1,2.11.81l.32.45a2,2,0,0,1,.07,2.26l-1.11,1.75a2,2,0,0,0,.65,2.81l5,3.16a2,2,0,0,0,2.81-.65l1.1-1.75a2,2,0,0,1,2.06-.92c.18,0,.36.07.55.09a2,2,0,0,1,1.64,1.55l.47,2a2,2,0,0,0,2.44,1.54l5.78-1.32a2,2,0,0,0,1.53-2.44l-.46-2a2,2,0,0,1,.81-2.12l.45-.31a2,2,0,0,1,2.26-.07l1.75,1.1a2,2,0,0,0,2.81-.64l3.16-5a2,2,0,0,0-.64-2.81l-1.76-1.1a2,2,0,0,1-.92-2.07,5.07,5.07,0,0,0,.09-.54,2,2,0,0,1,1.55-1.65l2-.46a2,2,0,0,0,1.54-2.44l-1.32-5.78a2,2,0,0,0-2.44-1.53l-2,.46a2,2,0,0,1-2.11-.82l-.32-.45a2,2,0,0,1-.07-2.25l1.1-1.76A2,2,0,0,0,265.14,122.3Z"/><path class="cls-30" d="M297.78,103a8.6,8.6,0,1,1-7.71-9.4A8.6,8.6,0,0,1,297.78,103Z"/><polygon class="cls-22" points="287.46 118.07 295.58 119.53 292.57 109.49 286.39 110.23 287.46 118.07"/><path class="cls-22" d="M292.11,104.57a1.4,1.4,0,1,0,1.29-1.51A1.41,1.41,0,0,0,292.11,104.57Z"/><path class="cls-22" d="M285.47,99a4.34,4.34,0,0,0-2.63,1.82,4.25,4.25,0,0,0-.71,2.69h0l.07.83a.35.35,0,0,0,0,.11l0,0,.19,2.33a5.82,5.82,0,0,0,5.9,5.58,5.67,5.67,0,0,0,5.14-6.24l-.23-2.85h0S292.73,97.63,285.47,99Z"/><path class="cls-30" d="M286.62,98.75a10,10,0,0,1,2.19,0,4.72,4.72,0,0,1,1.56.44c1.59.81,1,3.54.91,4.93,0,.33-.07.74.2,1a.69.69,0,0,0,.95-.23,3.12,3.12,0,0,0,.38-1,1.17,1.17,0,0,1,.66-.83l-1.66-5.72s-3.66.79-3.94.85A4.37,4.37,0,0,0,286.62,98.75Z"/><polygon class="cls-31" points="272.7 195.76 270.29 195.76 268.44 188.35 271.97 188.35 272.7 195.76"/><path class="cls-26" d="M269.69,195l1.94.84,1.79-.84,1.62,5.26h-15c0-2.63,5.62-2.63,5.62-2.63Z"/><path class="cls-27" d="M262.89,163.56l11.31,2.35L289,162.64l-3.38-11L269,156.27A7.41,7.41,0,0,0,262.89,163.56Z"/><polygon class="cls-27" points="268.9 194.41 274.54 195.12 274.2 165.91 262.89 163.56 268.9 194.41"/><path class="cls-20" d="M302.64,152.85,301,115.52l-19-.1-1.43,5.11c-1,9.26,6.6,26.55,5.06,31.06Z"/><path class="cls-20" d="M268.47,122.13l3.24,7,12-4.8a4.56,4.56,0,0,0,2.76-6.49h0a4.56,4.56,0,0,0-6-2Z"/><path class="cls-22" d="M289.07,134.2a3.73,3.73,0,1,0,5.28,0A3.73,3.73,0,0,0,289.07,134.2Z"/><path class="cls-22" d="M289.07,134.2l5.86,4.51,9.7-16.56a3.54,3.54,0,0,0-1.41-5.16h0c-2-.94-5.86.64-6.51,2.7Z"/><polygon class="cls-22" points="274.45 140.71 291.71 140.58 289.07 134.2 273.66 137.17 274.45 140.71"/><path class="cls-25" d="M290.77,130.09l7.76,3.69,6.59-11.09a4.55,4.55,0,0,0-1.76-6.82h0a4.54,4.54,0,0,0-6,2.08Z"/><path class="cls-22" d="M285.85,115.44l.11.51a4.78,4.78,0,0,0,4.23,3.83h0a4.79,4.79,0,0,0,5.18-3.85l.08-.42Z"/><polygon class="cls-22" points="310.46 230.32 306.19 230.32 304.51 225.85 308.79 225.85 310.46 230.32"/><path class="cls-7" d="M285.6,151.59l1.9,10.34a5,5,0,0,0,4.91,4.09h0l10.46,61.28h7.79l-8-74.45Z"/><path class="cls-26" d="M305.52,228.29l2.35,1,2.19-1,2,6.41H293.83c0-3.2,6.84-3.2,6.84-3.2Z"/><path class="cls-22" d="M265.82,140.67h0a1.77,1.77,0,0,0,2.3,1.19l3.8-1.38,2.54.23-.8-3.54-1.11-.2a5.87,5.87,0,0,0-3.71.56l-2.13,1.11A1.76,1.76,0,0,0,265.82,140.67Z"/><circle class="cls-4" cx="251.02" cy="139.42" r="4.91"/><circle class="cls-32" cx="251.02" cy="139.42" r="10.9"/><circle class="cls-32" cx="251.02" cy="139.42" r="15.4" transform="translate(57.32 351.39) rotate(-76.63)"/><path class="cls-33" d="M96.52,51.62l-1.13.8"/><path class="cls-34" d="M92.4,54.65c-16,12.24-32.07,30.6-39.52,48.75-3.82,9.32-4.38,20.57,1,29.06,11,17.24,37.09,19.09,52.58,8.27,9.3-6.51,17.46-17,15.56-28.24-.56-3.31-2.16-6.65-5-8.37-5-3-11.51,0-15.55,4.14-9.41,9.67-11,25.75-4.36,37.48,6.13,10.79,18.54,17.41,30.94,17.39"/><path class="cls-33" d="M129.91,163.08c.46,0,.92-.06,1.38-.11"/><path class="cls-35" d="M365.93,164.7A46.69,46.69,0,0,0,385,194c10.31,7.14,24.57,11.29,28.52,23.19,2.88,8.69-1.49,18.24-9.29,22.51-4.88,2.67-10.41,4-15.2,6.83-9.61,5.65-17.95,20.81-12.45,31.79"/><polygon class="cls-36" points="371.28 149.91 339.08 146.45 355.25 168.04 371.28 149.91"/><polygon class="cls-37" points="339.08 146.45 364.54 157.54 366.29 167.21 362.13 160.27 339.08 146.45"/><polygon class="cls-38" points="366.29 167.21 359.18 163.61 362.13 160.27 366.29 167.21"/><polygon class="cls-36" points="84.99 45.76 117.2 42.3 101.02 63.89 84.99 45.76"/><polygon class="cls-37" points="117.2 42.3 91.74 53.38 89.98 63.05 94.15 56.12 117.2 42.3"/><polygon class="cls-38" points="89.98 63.05 97.1 59.45 94.15 56.12 89.98 63.05"/><path class="cls-39" d="M20.3,245.2a3.61,3.61,0,0,1,2.27.81l.17.13c2.54,2,3.85,5.51,3.88,10.6a48.71,48.71,0,0,1-1.47,12A21.29,21.29,0,0,0,24,263.92a57.64,57.64,0,0,0-3-6.4c-.83-1.6-1.7-3.25-2.41-4.93a8.64,8.64,0,0,1-.93-4.5A3.26,3.26,0,0,1,20.3,245.2Z"/><path class="cls-39" d="M2.41,259.83a3.65,3.65,0,0,1,2.4-.23l.21,0c3.13.68,5.84,3.34,8,7.92A48.64,48.64,0,0,1,16.85,279a21,21,0,0,0-3.12-3.81,57.93,57.93,0,0,0-5.46-4.5c-1.44-1.09-2.93-2.21-4.29-3.42a8.73,8.73,0,0,1-2.76-3.67A3.28,3.28,0,0,1,2.41,259.83Z"/><path class="cls-39" d="M.08,275a2.39,2.39,0,0,1,1.08-1.23l.13-.09c1.87-1.13,4.46-1.07,7.71.18a33.08,33.08,0,0,1,7.24,3.91,14.19,14.19,0,0,0-3.34-.43,38.38,38.38,0,0,0-4.82.32c-1.23.13-2.49.27-3.74.31a5.89,5.89,0,0,1-3.09-.54A2.21,2.21,0,0,1,.08,275Z"/><path class="cls-40" d="M18.11,294.88s12.75-16.8,3.21-46.67"/><path class="cls-40" d="M18.11,294.88s4-18.26-13-31.3"/><path class="cls-40" d="M16.3,278.08s-3.11-2.77-14-2.85"/><path class="cls-39" d="M42,267.12a6.19,6.19,0,0,1-2.2,2.42c-1,.77-2.18,1.47-3.28,2.14a41.81,41.81,0,0,0-4.17,2.82A15.2,15.2,0,0,0,29.91,277a34.8,34.8,0,0,1,3.45-7.85c1.87-3.1,4-4.8,6.22-5.07l.16,0a2.56,2.56,0,0,1,1.68.33A2.31,2.31,0,0,1,42,267.12Z"/><path class="cls-39" d="M46.4,282.58a6.2,6.2,0,0,1-3,1.24c-1.27.25-2.59.39-3.87.54a40.79,40.79,0,0,0-5,.76,14.9,14.9,0,0,0-3.29,1.2,34.4,34.4,0,0,1,6.48-5.62c3-2,5.64-2.65,7.8-1.92l.14.05a2.48,2.48,0,0,1,1.38,1A2.31,2.31,0,0,1,46.4,282.58Z"/><path class="cls-39" d="M41.35,291a4.36,4.36,0,0,1-2.08-.8c-.75-.48-1.48-1-2.18-1.55a26.75,26.75,0,0,0-2.83-1.95,10,10,0,0,0-2.2-.95,23.56,23.56,0,0,1,5.86.24c2.43.42,4,1.32,4.78,2.7l0,.09A1.75,1.75,0,0,1,43,290,1.61,1.61,0,0,1,41.35,291Z"/><path class="cls-40" d="M24.69,295.57s-1.69-14.91,15-29.72"/><path class="cls-40" d="M24.69,295.57A23.08,23.08,0,0,1,44,281.15"/><path class="cls-40" d="M31.91,286s2.91-.56,9.59,3.34"/><path class="cls-27" d="M29.59,314H18.29A2.39,2.39,0,0,1,16,312.27L10.33,292H37.56l-5.68,20.3A2.37,2.37,0,0,1,29.59,314Z"/><path class="cls-41" d="M397.59,321.57c1.85-2.14,4.19-4,4.93-6.67.53-2,.11-4-.1-6.07s-.14-4.27,1.17-5.83a7.68,7.68,0,0,1,4.43-2.2,16.15,16.15,0,0,0,4.82-1.41c2.36-1.36,1.89-3.66,3.16-5.69,1.43-2.27,4.75-5.17,7.59-3.66,3,1.6,2.53,6.45.53,8.59-1.33,1.42-3,2.78-3.23,4.72-.29,2.91,3.05,5.54,2.13,8.32-.68,2.05-3.27,2.76-4.54,4.5s-1,4.15-.27,6.15,1.92,3.86,2.38,5.95c1,4.28-2.41,7.23-6.23,8.18-3.51.88-11.08.46-11.08.46a14.42,14.42,0,0,1-7.19-5.91,7.53,7.53,0,0,1-.41-6.53A11,11,0,0,1,397.59,321.57Z"/><path class="cls-42" d="M420.22,294.65s-12.93,20-14.34,42.15"/><path class="cls-39" d="M407.52,323.08c1.69,3.69,1.05,12-2.65,13.71s-9-3.89-10.73-7.59-7.23-23.7-3.54-25.39S405.82,319.38,407.52,323.08Z"/><line class="cls-43" x1="391.64" y1="306.24" x2="405.01" y2="336.35"/><path class="cls-27" d="M411.19,351.51H403.9a1.53,1.53,0,0,1-1.48-1.12l-3.67-13.11h17.59l-3.67,13.11A1.53,1.53,0,0,1,411.19,351.51Z"/></g></g></svg>