<svg width="420" height="108" viewBox="0 0 420 108" fill="none" xmlns="http://www.w3.org/2000/svg">
<g clip-path="url(#clip0_215_101)">
<path d="M0 8.73236H69.1756V28.1817H28.1252V43.9866H63.1823V62.2813H28.1252V99.2676H0V8.73236Z" fill="white"/>
<path d="M218.647 99.2676V8.73239H265.257C271.98 8.43816 278.708 9.14348 285.223 10.8253C289.66 12.3436 293.468 15.2873 296.054 19.1968C298.933 23.5431 300.396 28.673 300.242 33.8831C300.413 38.4268 299.34 42.9309 297.137 46.9095C294.996 50.5653 291.95 53.6095 288.292 55.7501C285.224 57.4504 281.911 58.6675 278.472 59.3585C281.032 60.0944 283.467 61.2137 285.692 62.6783C287.362 64.0892 288.865 65.6874 290.169 67.4414C291.654 69.191 292.971 71.0755 294.105 73.0705L307.644 99.3037H276.089L261.142 71.6271C259.955 68.9728 258.22 66.5994 256.051 64.6629C254.029 63.2281 251.598 62.4816 249.119 62.5339H246.628V99.2676H218.647ZM246.736 45.43H258.542C260.981 45.2186 263.397 44.796 265.763 44.1671C267.584 43.8457 269.212 42.8383 270.312 41.3525C271.555 39.8763 272.244 38.0134 272.262 36.0842C272.338 34.828 272.127 33.571 271.645 32.4083C271.164 31.2455 270.424 30.2074 269.482 29.3726C266.354 27.4698 262.689 26.6458 259.048 27.0271H246.736V45.43Z" fill="white"/>
<path d="M334.938 8.73236H420V31.1046H391.442V99.2676H363.461V31.1046H334.938V8.73236Z" fill="white"/>
<path d="M131.383 61.3431L130.047 63.2917V81.3338H138.64C138.64 77.1119 138.387 72.854 138.243 68.6321L131.383 61.3431Z" fill="#818282"/>
<path d="M142.864 72.8179V82.2359H151.493V62.1009L142.864 72.8179Z" fill="#818282"/>
<path d="M160.664 52.9355L155.717 59.2142V81.1894H164.31V57.5543L160.664 52.9355Z" fill="#818282"/>
<path d="M199.115 44.6001L186.731 41.569C185.976 39.2186 185.022 36.937 183.879 34.7491L189.655 25.2589C190.012 24.6506 190.156 23.941 190.064 23.2419C189.973 22.5428 189.651 21.8941 189.15 21.3979L180.232 12.3408C179.729 11.8371 179.071 11.517 178.364 11.432C177.656 11.3469 176.941 11.5018 176.333 11.8717L166.693 17.6452C164.535 16.489 162.275 15.5347 159.941 14.7945L156.909 2.41764C156.734 1.73357 156.339 1.12604 155.784 0.689017C155.23 0.251996 154.546 0.00983782 153.84 0L141.167 0C140.459 0.00368143 139.773 0.24355 139.217 0.681541C138.661 1.11953 138.267 1.73055 138.098 2.41764C138.098 2.41764 135.968 11.0418 135.066 14.7945C132.563 15.5746 130.144 16.6021 127.845 17.8617L117.88 11.8717C117.279 11.4981 116.568 11.341 115.866 11.4263C115.163 11.5116 114.511 11.8343 114.017 12.3408L105.063 21.2897C104.559 21.8107 104.248 22.4885 104.182 23.2106C104.116 23.9327 104.3 24.6555 104.702 25.2589L110.912 35.579C109.866 37.4931 108.996 39.4979 108.312 41.569L95.8926 44.6001C95.2119 44.7757 94.6086 45.1721 94.1774 45.7272C93.7462 46.2822 93.5114 46.9645 93.5098 47.6672V60.3328C93.5114 61.0355 93.7462 61.7178 94.1774 62.2728C94.6086 62.8279 95.2119 63.2243 95.8926 63.3999L108.312 66.431C109.057 68.8255 110.024 71.145 111.201 73.3592L105.677 82.5606C105.269 83.1826 105.093 83.9278 105.179 84.6663C105.265 85.4049 105.607 86.0899 106.146 86.6021L115.064 95.5509C115.56 96.0518 116.21 96.3733 116.909 96.4648C117.608 96.5563 118.318 96.4125 118.927 96.0561L128.17 90.2105C130.372 91.3873 132.681 92.3538 135.066 93.0972L138.098 105.474C138.262 106.164 138.654 106.779 139.211 107.218C139.768 107.657 140.458 107.894 141.167 107.892H153.84C154.549 107.894 155.239 107.657 155.796 107.218C156.353 106.779 156.746 106.164 156.909 105.474L159.941 93.0972C162.362 92.3588 164.708 91.3922 166.946 90.2105C170.087 92.0508 176.333 95.8396 176.333 95.8396C176.947 96.1988 177.663 96.3441 178.369 96.2527C179.074 96.1612 179.73 95.8383 180.232 95.3344L189.15 86.6021C189.651 86.1059 189.973 85.4572 190.064 84.7581C190.156 84.059 190.012 83.3494 189.655 82.7411L184.131 73.0705C185.264 70.949 186.194 68.7261 186.911 66.431L199.295 63.3999C199.979 63.2255 200.587 62.8305 201.025 62.2761C201.462 61.7216 201.704 61.0387 201.714 60.3328V47.6672C201.695 46.9367 201.426 46.2346 200.954 45.6769C200.481 45.1193 199.832 44.7394 199.115 44.6001ZM147.486 91.2208C140.11 91.2208 132.901 89.0331 126.77 84.9348C120.64 80.8365 115.864 75.012 113.049 68.1991C110.233 61.3862 109.503 53.8913 110.953 46.6638C112.402 39.4362 115.965 32.8012 121.191 27.599C126.416 22.3968 133.068 18.8616 140.305 17.4411C147.543 16.0206 155.039 16.7786 161.844 19.6193C168.65 22.46 174.459 27.2554 178.536 33.3983C182.613 39.5412 184.774 46.7551 184.745 54.1263C184.697 63.9747 180.752 73.404 173.771 80.3544C166.789 87.3048 157.339 91.2114 147.486 91.2208ZM147.486 19.4855C140.656 19.4855 133.981 21.5081 128.301 25.2978C122.621 29.0875 118.193 34.4744 115.574 40.7781C112.956 47.0818 112.266 54.0196 113.59 60.7153C114.914 67.411 118.194 73.5643 123.016 78.398C127.837 83.2318 133.983 86.5292 140.679 87.8738C147.374 89.2185 154.318 88.55 160.633 85.9529C166.948 83.3558 172.352 78.9466 176.162 73.282C179.971 67.6174 182.016 60.9515 182.037 54.1263C182.051 49.5823 181.168 45.0802 179.438 40.878C177.708 36.6758 175.165 32.8562 171.956 29.6381C168.746 26.4199 164.932 23.8666 160.733 22.1244C156.534 20.3822 152.032 19.4854 147.486 19.4855ZM147.269 81.5503C141.76 81.5574 136.373 79.9309 131.79 76.8766C127.207 73.8224 123.634 69.4777 121.522 64.3926C119.411 59.3076 118.857 53.7107 119.93 48.3106C121.003 42.9106 123.654 37.95 127.55 34.057C131.445 30.164 136.408 27.5136 141.811 26.4413C147.214 25.369 152.814 25.923 157.902 28.0331C162.99 30.1433 167.337 33.7148 170.393 38.2954C173.449 42.8761 175.076 48.2599 175.069 53.7654C175.06 61.1315 172.128 68.1932 166.916 73.4017C161.705 78.6103 154.639 81.5407 147.269 81.5503Z" fill="white"/>
<path d="M169.581 37.4554L165.393 54.5954L160.627 49.8323L141.781 68.6682L131.347 58.2399L124.018 65.6011L120.552 62.1731L131.347 51.3478L141.781 61.7761L157.198 46.4043L152.432 41.6411L169.581 37.4554Z" fill="white"/>
</g>
<defs>
<clipPath id="clip0_215_101">
<rect width="420" height="108" fill="white"/>
</clipPath>
</defs>
</svg>
