<svg width="2441" height="730" viewBox="0 0 2441 730" fill="none" xmlns="http://www.w3.org/2000/svg">
<g clip-path="url(#clip0_3_13)">
<path d="M1678.78 717.588H1612.75C1599.34 717.588 1589.05 710.374 1588.05 696.983L1587 671.166C1539.51 709.386 1482.78 729.984 1422.94 729.984C1307.42 729.984 1259.99 656.794 1259.99 545.329V240.213C1259.99 222.666 1270.3 216.471 1286.75 216.471H1359C1375.52 216.471 1384.81 221.603 1384.81 240.213V523.65C1384.81 580.411 1399.25 619.587 1461.17 619.587C1500.3 619.587 1549.86 597.952 1580.81 570.096V240.213C1580.81 222.666 1590.11 216.471 1606.56 216.471H1679.81C1696.34 216.471 1705.64 221.603 1705.64 240.213V688.726C1705.63 710.374 1699.39 717.588 1678.78 717.588ZM0 237.05C0 224.704 6.20121 216.446 18.5599 216.446H105.827C118.198 216.446 125.418 223.672 125.418 237.05V691.801C125.418 710.374 117.129 717.588 99.6319 717.588H26.8302C8.32037 717.588 0 710.374 0 691.801V237.05ZM1834.7 237.05C1834.7 224.704 1840.93 216.446 1853.27 216.446H1940.53C1952.93 216.446 1960.15 223.672 1960.15 237.05V691.801C1960.15 710.374 1951.89 717.588 1934.33 717.588H1861.53C1843.01 717.588 1834.7 710.374 1834.7 691.801V237.05ZM678.382 717.588H604.118C585.558 717.588 579.375 708.317 579.375 690.757V410.159C579.375 353.454 563.929 313.209 500.966 313.209C460.721 313.209 411.23 334.913 379.255 362.725V691.795C379.255 709.38 372.029 717.581 354.525 717.581H279.192C263.714 717.581 254.418 709.38 254.418 692.833V242.357C254.418 225.842 261.689 216.571 280.23 216.571H347.249C361.683 216.571 371.022 220.678 372.023 236.15L373.041 263.687C420.532 225.548 480.362 203.9 540.199 203.9C655.734 203.9 703.175 276.095 703.175 388.536V690.757C703.168 708.317 696.998 717.588 678.382 717.588ZM1046.04 75.6874C1046.04 33.898 1012.18 0.0163574 970.389 0.0163574C928.619 0.0163574 894.718 33.898 894.718 75.6874C894.718 117.477 928.625 151.321 970.389 151.321C1012.18 151.321 1046.04 117.477 1046.04 75.6874ZM1153.7 216.446C1166.07 216.446 1173.3 220.553 1173.3 233.981V306.626C1173.3 318.997 1165.06 326.224 1152.66 326.224H1033.1V691.795C1033.1 710.367 1024.86 717.581 1006.27 717.581H934.488C915.916 717.581 907.683 710.367 907.683 691.795V326.224H788.097C775.726 326.224 767.475 318.997 767.475 306.626V233.981C767.475 220.553 774.689 216.446 787.078 216.446H1153.7ZM2326.17 75.6874C2326.17 33.898 2292.28 0.0163574 2250.5 0.0163574C2208.72 0.0163574 2174.84 33.898 2174.84 75.6874C2174.84 117.477 2208.72 151.321 2250.5 151.321C2292.28 151.321 2326.17 117.477 2326.17 75.6874ZM2433.82 216.446C2446.17 216.446 2453.38 220.553 2453.38 233.981V306.626C2453.38 318.997 2445.16 326.224 2432.75 326.224H2313.19V691.795C2313.19 710.367 2304.97 717.581 2286.39 717.581H2214.59C2196.01 717.581 2187.78 710.367 2187.78 691.795L2187.76 326.224H2068.23C2055.83 326.224 2047.57 318.997 2047.57 306.626V233.981C2047.57 220.553 2054.82 216.446 2067.16 216.446H2433.82ZM2466.51 654.006C2484.75 654.006 2500 668.378 2500 687.232C2500 706.417 2484.75 720.826 2466.51 720.826C2448.2 720.826 2432.84 706.417 2432.84 687.232C2432.84 668.378 2448.2 654.006 2466.51 654.006ZM2466.51 715.925C2481.98 715.925 2493.94 703.604 2493.94 687.232C2493.94 671.253 2481.98 658.907 2466.51 658.907C2450.87 658.907 2438.89 671.26 2438.89 687.232C2438.89 703.61 2450.87 715.925 2466.51 715.925ZM2453.47 667.847H2468.55C2477.85 667.847 2482.24 671.51 2482.24 679.03C2482.24 686.05 2477.8 689.044 2471.96 689.651L2483.14 706.904H2476.6L2465.98 690.082H2459.54V706.904H2453.47V667.847H2453.47ZM2459.54 685.175H2465.89C2471.26 685.175 2476.16 684.925 2476.16 678.761C2476.16 673.566 2471.71 672.779 2467.59 672.779H2459.54V685.175H2459.54Z" fill="#A4A4B7"/>
</g>
<defs>
<clipPath id="clip0_3_13">
<rect width="2500" height="730" fill="white"/>
</clipPath>
</defs>
</svg>
