<svg width="2500" height="1702" viewBox="0 0 2500 1702" fill="none" xmlns="http://www.w3.org/2000/svg">
<g clip-path="url(#clip0_5_2)">
<path d="M1019.54 1124.51C980.271 1338.11 928.493 1493.51 864.209 1590.06C814.115 1664.69 759.245 1702 699.496 1702C683.554 1702 663.936 1697.19 640.606 1687.64V1636.1C651.979 1637.82 665.344 1638.68 680.702 1638.68C708.567 1638.68 731.037 1630.98 748.148 1615.55C768.625 1596.76 778.864 1575.67 778.864 1552.27C778.864 1536.29 770.858 1503.48 754.95 1453.87L649.127 1124.37H743.853L819.784 1370.82C836.86 1426.76 843.972 1465.82 841.121 1488.09C882.694 1376.83 911.692 1255.62 928.184 1124.58H1019.51M601.369 1550.62H504.96C501.559 1387.42 492.179 1234.01 476.787 1090.22H475.997L329.184 1550.62H255.726L109.807 1090.22H108.948C98.1255 1228.27 91.3226 1381.68 88.4709 1550.62H0.54834C6.21744 1345.22 20.4761 1152.75 43.1868 973.057H162.684L301.801 1397.38H302.66L442.635 973.057H556.979C581.991 1183.54 596.8 1376.08 601.301 1550.62" fill="#A4A4B7"/>
<path d="M2303.16 1550.55H2029.23V972.989H2121.41V1479.43H2303.16V1550.48M1614.28 1434.93C1590.92 1397.28 1579.27 1336.88 1579.27 1253.56C1579.27 1108.12 1623.39 1035.35 1711.55 1035.35C1757.66 1035.35 1791.5 1052.77 1813.11 1087.54C1836.41 1125.2 1848.09 1185.12 1848.09 1267.27C1848.09 1413.87 1803.97 1487.23 1715.81 1487.23C1669.74 1487.23 1635.86 1469.84 1614.28 1435M1957.35 1564.46L1851.46 1512.1C1860.87 1504.34 1869.84 1495.95 1877.91 1486.33C1922.92 1433.32 1945.39 1354.88 1945.39 1251.02C1945.39 1059.91 1870.56 964.331 1720.93 964.331C1647.54 964.331 1590.33 988.553 1549.38 1037.1C1504.37 1090.15 1481.93 1168.35 1481.93 1271.56C1481.93 1373.09 1501.86 1447.58 1541.65 1494.89C1577.93 1537.67 1632.8 1559.07 1706.29 1559.07C1733.71 1559.07 1758.86 1555.7 1781.71 1548.93L1919.59 1629.4L1957.18 1564.46M1441.8 1390.44C1441.8 1439.44 1423.87 1479.63 1388.07 1511.11C1352.27 1542.41 1304.13 1558.14 1243.9 1558.14C1187.55 1558.14 1132.92 1540.04 1080.01 1504.2L1104.79 1454.59C1150.31 1477.4 1191.51 1488.77 1228.47 1488.77C1263.18 1488.77 1290.32 1481.04 1309.97 1465.75C1329.56 1450.33 1341.34 1428.85 1341.34 1401.61C1341.34 1367.32 1317.46 1338.01 1273.72 1313.41C1233.19 1290.79 1192.81 1267.91 1152.58 1244.76C1108.84 1212.74 1086.88 1178.42 1086.88 1121.86C1086.88 1075.07 1103.24 1037.24 1135.91 1008.48C1168.66 979.62 1210.92 965.19 1262.66 965.19C1316.16 965.19 1364.77 979.517 1408.58 1008.07L1386.32 1057.65C1348.87 1041.71 1311.9 1033.7 1275.44 1033.7C1245.89 1033.7 1223.08 1040.85 1207.21 1055.14C1191.23 1069.33 1181.37 1087.61 1181.37 1109.87C1181.37 1144.09 1205.76 1173.78 1250.74 1198.86C1291.62 1221.09 1374.39 1268.4 1374.39 1268.4C1419.4 1300.35 1441.84 1334.4 1441.84 1390.51M2368.79 1550.55H2384.08V1491.8H2404.04V1479.77H2348.04V1491.8H2368.79V1550.55ZM2485.02 1550.55H2499.42V1479.77H2477.77L2460.15 1528.01L2440.94 1479.77H2420.08V1550.55H2433.72V1496.68H2434.48L2454.58 1550.55H2464.96L2485.02 1496.68V1550.55Z" fill="#A4A4B7"/>
<path d="M1536.98 0.34363C1512.62 4.84893e-05 1491.38 9.17367 1480.42 36.1448C1461.63 81.532 1508.25 126.163 1524.3 149.218C1536.12 165.263 1551.44 183.438 1559.76 201.545C1564.63 213.399 1566.04 226.008 1570.92 238.549C1582.05 269.265 1592.46 303.451 1607.1 332.106C1614.73 346.777 1623.08 362.135 1632.84 375.329C1638.44 383.059 1648.16 386.495 1650.26 399.104C1640.53 413.019 1639.78 433.978 1634.24 451.466C1609.16 530.318 1618.92 628.033 1654.41 685.961C1665.54 703.38 1692 741.793 1727.53 727.122C1758.86 714.581 1751.92 674.794 1760.92 639.921C1763.02 631.469 1761.61 625.937 1765.8 620.337V621.78C1775.53 641.295 1785.32 660.089 1794.35 679.707C1815.96 713.859 1853.52 749.455 1884.85 773.162C1901.52 785.771 1914.74 807.382 1935.63 815.079V812.948H1934.26C1930.07 806.695 1923.81 803.878 1918.25 799.033C1905.71 786.458 1891.83 771.1 1882.07 757.116C1852.87 718.086 1827.06 674.794 1804.15 630.129C1792.98 608.449 1783.26 584.742 1774.19 563.13C1770.03 554.781 1770.03 542.172 1763.05 538.014C1752.57 553.338 1737.28 566.635 1729.66 585.394C1716.43 615.458 1715.05 652.427 1710.14 690.805C1707.39 691.527 1708.77 690.805 1707.39 692.18C1685.13 686.613 1677.47 663.594 1669.08 644.078C1648.19 594.499 1644.69 514.891 1662.83 457.719C1667.64 443.083 1688.6 397.043 1680.22 383.059C1676.02 369.728 1662.11 362.101 1654.45 351.621C1644.75 337.538 1636.37 322.585 1629.43 306.956C1612.74 267.891 1604.35 224.599 1586.28 185.534C1577.93 167.324 1563.26 148.53 1551.48 131.798C1538.21 112.935 1523.65 99.6731 1513.17 77.3746C1509.73 69.6784 1504.85 57.1033 1510.42 48.7543C1511.76 43.1539 1514.58 41.058 1520.18 39.6494C1529.14 31.9875 1554.95 41.7108 1563.98 45.9025C1589.75 56.3474 1611.33 66.1739 1632.87 80.7761C1642.59 87.7851 1653.04 101.047 1665.58 104.552H1680.22C1702.48 109.431 1727.56 105.926 1748.45 112.214C1785.32 124.067 1818.71 141.521 1848.67 160.35C1940.88 219.308 2015.8 301.671 2065.78 399.036C2074.17 415.081 2077.67 429.752 2085.3 446.45C2099.93 480.739 2118.04 515.613 2132.64 549.078C2147.25 581.89 2161.2 615.389 2182.12 642.601C2192.5 657.237 2234.28 664.933 2253.07 672.595C2266.98 678.849 2288.56 684.449 2301.1 692.111C2324.81 706.747 2348.38 723.514 2370.68 739.594C2381.81 747.977 2416.58 765.397 2418.68 779.381C2363.02 778.006 2319.86 783.572 2283.65 798.965C2273.24 803.122 2256.54 803.122 2255.13 816.384C2260.73 821.95 2261.38 831.021 2266.3 838.717C2274.65 852.701 2289.21 871.495 2302.48 881.321C2317.11 892.488 2331.72 903.62 2347.04 913.377C2374.18 930.213 2404.79 939.936 2431.22 956.669C2446.57 966.426 2461.86 979.001 2477.19 989.481C2484.81 995.047 2489.66 1004.15 2499.45 1007.59V1005.46C2494.54 999.204 2493.16 990.133 2488.32 983.124C2481.38 976.184 2474.4 969.896 2467.43 962.922C2447.04 935.896 2422.64 912.143 2395.07 892.488C2372.77 877.061 2324.02 856.102 2315.02 830.368L2313.61 828.959C2328.9 827.551 2347.04 821.95 2361.68 817.724C2385.28 811.437 2406.89 812.845 2431.25 806.592C2442.38 803.775 2453.51 800.27 2464.72 796.869V790.513C2452.11 778.006 2443.1 761.205 2429.91 749.351C2394.45 718.67 2355.42 688.675 2315.05 663.49C2293.41 649.541 2265.58 640.505 2242.62 628.617C2234.31 624.425 2220.39 622.364 2215.48 615.355C2202.98 599.997 2195.97 579.794 2186.96 561.618C2166.39 521.882 2147.35 481.366 2129.9 440.162C2117.35 412.951 2109.69 385.773 2094.4 360.623C2022.66 241.95 1944.74 170.107 1825.04 99.6043C1799.27 84.9334 1768.65 78.6459 1735.98 70.984C1718.52 70.2625 1701.17 68.9225 1683.75 68.2353C1672.59 63.2878 1661.42 50.0255 1651.7 43.738C1626.89 28.0363 1577.62 0.893349 1537.05 0.274902L1536.98 0.34363ZM1708.7 172.856C1696.88 172.856 1688.56 174.299 1680.18 176.36V177.735H1681.52C1687.12 188.901 1696.88 196.632 1703.79 206.389C1709.39 217.556 1714.26 228.688 1719.83 239.854L1721.2 238.48C1731 231.505 1735.88 220.339 1735.88 203.572C1731.65 198.659 1731 193.814 1727.49 188.901C1723.34 181.961 1714.26 178.456 1708.7 172.856Z" fill="#A4A4B7"/>
</g>
<defs>
<clipPath id="clip0_5_2">
<rect width="2500" height="1702" fill="white"/>
</clipPath>
</defs>
</svg>
