<svg width="2500" height="355" viewBox="0 0 2500 355" fill="none" xmlns="http://www.w3.org/2000/svg">
<path d="M1040.66 224.692H1199.95L1115.72 89.186L961.145 334.184H890.792L1078.81 39.8902C1086.99 27.9982 1100.61 20.816 1115.72 20.816C1130.34 20.816 1143.96 27.7514 1151.89 39.3926L1340.66 334.184H1270.3L1237.11 279.438H1075.84L1040.66 224.692ZM1771.44 279.438V23.7861H1711.75V304.456C1711.75 312.136 1714.72 319.569 1720.42 325.266C1726.11 330.963 1733.79 334.184 1742.21 334.184H2014.46L2049.64 279.438H1771.44ZM783.776 233.61C841.743 233.61 888.81 186.786 888.81 128.823C888.81 70.8563 841.743 23.7861 783.776 23.7861H522.6V334.184H582.275V78.5322H779.811C807.556 78.5322 829.851 101.078 829.851 128.823C829.851 156.565 807.556 179.11 779.811 179.11L611.509 178.864L789.72 334.184H876.424L756.525 233.61H783.776ZM155.222 334.18C69.5376 334.18 0 264.819 0 179.106C0 93.3942 69.5376 23.7861 155.222 23.7861H335.639C421.352 23.7861 490.838 93.3942 490.838 179.106C490.838 264.819 421.356 334.18 335.643 334.18H155.222ZM331.623 279.434C387.145 279.434 432.103 234.597 432.103 179.106C432.103 123.616 387.145 78.5322 331.631 78.5322H159.215C103.725 78.5322 58.7388 123.62 58.7388 179.11C58.7388 234.601 103.725 279.438 159.215 279.438L331.623 279.434ZM1465.26 334.18C1379.54 334.18 1309.94 264.819 1309.94 179.106C1309.94 93.3942 1379.54 23.7861 1465.26 23.7861H1679.54L1644.61 78.5283H1469.22C1413.73 78.5283 1368.65 123.616 1368.65 179.106C1368.65 234.597 1413.73 279.434 1469.22 279.434H1684.49L1649.32 334.18H1465.26ZM2195.3 279.434C2149.47 279.434 2110.57 248.715 2098.68 206.358H2353.84L2389.01 151.608H2098.69C2110.58 109.494 2149.47 78.5322 2195.3 78.5322H2370.44L2405.86 23.7822H2191.34C2105.62 23.7822 2036.02 93.3942 2036.02 179.103C2036.02 264.819 2105.62 334.18 2191.34 334.18H2375.39L2410.57 279.434H2195.3ZM2437.82 56.7349C2437.81 53.1534 2438.51 49.6052 2439.87 46.2942C2441.24 42.9832 2443.24 39.9749 2445.78 37.4422C2448.31 34.9096 2451.32 32.9026 2454.63 31.5367C2457.94 30.1708 2461.49 29.4729 2465.07 29.4833C2480.43 29.4833 2492.57 41.6221 2492.57 56.7349C2492.57 72.0945 2480.43 84.2333 2465.07 84.2333C2449.96 84.2333 2437.82 72.0945 2437.82 56.7349ZM2465.07 91.9092C2484.39 91.9092 2500 76.3027 2500 56.9817C2500 37.6607 2484.39 22.0542 2465.07 22.0542C2445.99 22.0542 2430.39 37.6607 2430.39 56.9817C2430.39 76.3027 2445.99 91.9092 2465.07 91.9092ZM2461.85 36.1718C2467.3 36.1718 2469.53 36.4225 2472.01 37.4099C2478.94 39.6433 2479.69 45.8342 2479.69 48.3106C2479.69 48.8082 2479.69 50.0464 2479.19 51.5314C2478.94 53.0203 2477.95 55.9904 2474.48 58.2199C2473.99 58.4667 2473.74 58.7175 2472.75 59.2112L2481.67 75.3153H2473L2465.07 60.4494H2459.62V75.3153H2451.94V36.1718H2461.85ZM2464.57 54.0077C2467.05 53.7609 2469.53 53.7609 2471.01 51.5314C2471.76 50.5401 2472.01 49.5487 2472.01 48.0637C2472.01 46.0811 2470.77 44.3492 2469.03 43.3579C2467.3 42.6134 2465.57 42.6134 2461.85 42.6134H2459.62V54.0077H2464.57Z" fill="#A4A4B7"/>
</svg>
