<svg width="2500" height="2500" viewBox="0 0 2500 2500" fill="none" xmlns="http://www.w3.org/2000/svg">
<g clip-path="url(#clip0_4_78)">
<path d="M1250 2500C1940.35 2500 2500 1940.35 2500 1250C2500 559.648 1940.35 0 1250 0C559.648 0 0 559.648 0 1250C0 1940.35 559.648 2500 1250 2500Z" fill="#C2C2CF"/>
<path d="M347.227 1250C347.227 1378.93 398.442 1502.57 489.606 1593.73C580.77 1684.9 704.415 1736.11 833.34 1736.11H902.773V1555.55H833.34C793.008 1555.87 753.011 1548.2 715.657 1532.99C678.302 1517.78 644.328 1495.33 615.694 1466.92C587.061 1438.51 564.334 1404.72 548.825 1367.49C533.315 1330.26 525.33 1290.32 525.33 1249.99C525.33 1209.66 533.315 1169.72 548.825 1132.49C564.334 1095.26 587.061 1061.47 615.694 1033.06C644.328 1004.65 678.302 982.199 715.657 966.988C753.011 951.777 793.008 944.111 833.34 944.434H1000V1888.89C1000.02 1936.77 1019.04 1982.68 1052.9 2016.54C1086.75 2050.4 1132.67 2069.43 1180.55 2069.45V763.887H833.34C769.501 763.884 706.287 776.456 647.306 800.884C588.326 825.313 534.735 861.119 489.593 906.259C444.451 951.399 408.643 1004.99 384.212 1063.97C359.781 1122.95 347.227 1186.16 347.227 1250ZM1666.66 763.887H1597.23V944.453H1666.66C1747.1 945.363 1823.93 977.955 1880.49 1035.16C1937.05 1092.36 1968.77 1169.56 1968.77 1250C1968.77 1330.44 1937.05 1407.64 1880.49 1464.84C1823.93 1522.05 1747.1 1554.64 1666.66 1555.55H1500V611.133C1500 587.421 1495.33 563.942 1486.26 542.035C1477.19 520.127 1463.89 500.222 1447.13 483.454C1430.36 466.687 1410.46 453.386 1388.55 444.312C1366.64 435.237 1343.16 430.566 1319.45 430.566V1736.13H1666.66C1795.59 1736.13 1919.23 1684.92 2010.39 1593.75C2101.56 1502.59 2152.77 1378.94 2152.77 1250.02C2152.77 1121.09 2101.56 997.449 2010.39 906.286C1919.23 815.122 1795.59 763.887 1666.66 763.887Z" fill="white"/>
</g>
<defs>
<clipPath id="clip0_4_78">
<rect width="2500" height="2500" fill="white"/>
</clipPath>
</defs>
</svg>
