<svg width="3687" height="709" viewBox="0 0 3687 709" fill="none" xmlns="http://www.w3.org/2000/svg">
<path d="M3668.03 537.862C3668.03 530.877 3661.04 528.083 3654.74 528.083H3642.86V563.009H3649.15V549.039H3654.05L3661.74 563.009H3669.43L3660.34 547.642C3662.5 547.306 3664.47 546.202 3665.88 544.534C3667.29 542.866 3668.06 540.746 3668.03 538.561V537.862ZM3649.15 543.45V533.671H3654.74C3658.24 533.671 3661.74 534.37 3661.74 538.561C3661.74 542.752 3657.54 543.45 3654.05 543.45H3649.15ZM3654.74 515.51C3648.66 515.649 3642.76 517.587 3637.78 521.079C3632.8 524.571 3628.97 529.459 3626.77 535.127C3624.57 540.794 3624.1 546.985 3625.42 552.918C3626.74 558.851 3629.8 564.258 3634.2 568.457C3638.6 572.657 3644.14 575.458 3650.13 576.509C3656.13 577.559 3662.3 576.811 3667.86 574.359C3673.43 571.907 3678.14 567.86 3681.41 562.732C3684.68 557.603 3686.35 551.623 3686.21 545.546C3686.21 541.45 3685.39 537.396 3683.8 533.621C3682.21 529.845 3679.88 526.426 3676.95 523.562C3674.02 520.699 3670.55 518.45 3666.73 516.947C3662.92 515.444 3658.84 514.718 3654.74 514.811V515.51ZM3654.74 571.391C3649.46 571.389 3644.3 569.813 3639.91 566.865C3635.53 563.916 3632.13 559.728 3630.14 554.837C3628.15 549.946 3627.66 544.574 3628.75 539.407C3629.83 534.24 3632.43 529.512 3636.22 525.83C3640 522.147 3644.8 519.675 3650 518.731C3655.2 517.787 3660.57 518.414 3665.41 520.53C3670.25 522.647 3674.35 526.158 3677.18 530.614C3680.01 535.07 3681.45 540.269 3681.31 545.546C3681.31 552.586 3678.52 559.337 3673.53 564.315C3668.55 569.293 3661.79 572.09 3654.74 572.09V571.391ZM1655.02 520.399C1609.57 520.399 1586.5 479.186 1586.5 440.069C1586.5 400.952 1611.67 361.835 1652.92 361.835C1672.5 361.835 1696.97 371.614 1706.76 385.585L1754.31 337.387C1740.87 324.437 1724.98 314.304 1707.57 307.586C1690.16 300.868 1671.58 297.7 1652.92 298.269C1569.02 298.269 1508.19 358.342 1508.19 440.768C1508.19 524.59 1568.32 583.965 1655.02 583.965C1695.57 583.965 1733.33 572.09 1755.7 547.642L1708.86 497.348C1701.9 504.611 1693.54 510.395 1684.29 514.356C1675.04 518.317 1665.08 520.372 1655.02 520.399ZM1385.82 576.281H1461.34V305.953H1386.52L1385.82 576.281ZM1249.48 454.04C1249.48 485.473 1228.5 519.701 1190.75 519.701C1160.68 519.701 1144.6 498.745 1144.6 454.738V306.652H1069.78V474.297C1069.78 530.179 1097.75 584.663 1172.57 584.663C1207.53 584.663 1236.89 556.722 1251.58 535.767H1252.98V576.979H1324.29V305.953H1249.48V454.04ZM934.837 340.181H933.439C922.951 328.306 894.283 298.269 848.136 298.269C771.922 298.269 713.189 357.644 713.189 440.069C713.189 523.892 767.727 583.965 844.64 583.965C861.09 583.459 877.264 579.606 892.172 572.639C907.08 565.673 920.408 555.741 931.341 543.45H932.739V709H1006.86V305.953H935.536L934.837 340.181ZM862.819 520.399C816.671 520.399 790.102 479.885 790.102 440.069C790.102 401.651 813.875 361.136 862.819 361.136C906.869 361.136 934.138 403.048 934.138 440.768C934.138 478.488 907.568 520.399 862.819 520.399ZM2563.98 298.269C2479.38 298.269 2417.15 357.644 2417.15 440.069C2417.15 525.289 2480.08 584.663 2563.98 584.663C2647.89 584.663 2710.82 524.59 2710.82 440.069C2710.82 357.644 2649.29 298.269 2563.98 298.269ZM2563.98 520.399C2515.04 520.399 2493.37 478.488 2493.37 440.069C2493.37 401.651 2515.74 361.136 2563.98 361.136C2612.23 361.136 2636 401.651 2636 440.069C2636 478.488 2613.63 520.399 2564.68 520.399H2563.98ZM3498.12 410.033C3459.67 400.952 3445.68 396.062 3445.68 379.996C3445.68 359.041 3473.65 354.151 3485.54 354.151C3508.61 354.151 3534.48 368.121 3544.97 380.695L3589.02 338.784C3568.04 313.637 3528.19 298.968 3486.24 298.968C3431.7 298.968 3375.06 326.21 3375.06 386.283C3375.06 438.672 3416.32 454.04 3456.17 463.819C3498.12 473.598 3513.51 480.583 3513.51 498.047C3513.51 522.495 3485.54 526.686 3475.05 526.686C3462.18 526.089 3449.55 522.942 3437.91 517.425C3426.26 511.909 3415.83 504.134 3407.23 494.554L3361.78 540.656C3386.25 568.597 3428.9 584.663 3472.25 584.663C3545.67 584.663 3589.02 549.737 3589.02 492.458C3589.02 437.974 3535.88 419.114 3498.12 410.033ZM3356.18 305.953H3259.69L3163.2 417.717H3161.81V157.168H3086.99V576.281H3161.81V443.562H3163.2L3263.19 576.281H3361.08L3245.01 428.893L3356.18 305.953ZM2248.64 298.968C2213.68 298.968 2189.21 312.938 2164.74 335.291H2164.04V157.168H2089.22V576.281H2160.54V537.862H2161.94C2171.14 551.871 2183.7 563.362 2198.48 571.291C2213.25 579.22 2229.77 583.336 2246.55 583.266C2323.46 583.266 2382.19 523.193 2382.19 440.069C2382.19 357.644 2324.86 298.269 2248.64 298.269V298.968ZM2233.96 520.399C2188.51 520.399 2161.94 479.885 2161.94 440.768C2161.94 401.651 2189.91 361.136 2233.96 361.136C2282.21 361.136 2305.98 401.651 2305.98 440.069C2305.98 479.885 2280.11 520.399 2233.96 520.399ZM2061.26 305.953H1964.77L1868.28 417.717H1866.88V157.168H1792.06V576.281H1866.88V443.562H1868.28L1968.26 576.281H2066.15L1950.78 428.893L2061.26 305.953ZM2891.91 298.968C2806.61 298.968 2745.08 358.342 2745.08 440.069C2745.08 525.289 2808.01 584.663 2891.91 584.663C2975.82 584.663 3038.74 524.59 3038.74 440.069C3038.74 357.644 2976.52 298.269 2891.91 298.269V298.968ZM2891.91 520.399C2842.97 520.399 2820.59 478.488 2820.59 440.069C2820.59 401.651 2842.97 361.136 2891.91 361.136C2940.86 361.136 2962.53 401.651 2962.53 440.069C2962.53 478.488 2940.16 520.399 2891.91 520.399Z" fill="#A4A4B6"/>
<path d="M314.642 628.669C488.414 628.669 629.284 487.937 629.284 314.335C629.284 140.732 488.414 0 314.642 0C140.87 0 0 140.732 0 314.335C0 487.937 140.87 628.669 314.642 628.669Z" fill="#A4A4B6"/>
<path d="M87.4006 314.334C87.4006 346.754 100.292 377.847 123.239 400.772C146.186 423.696 177.309 436.575 209.761 436.575H227.242V391.171H209.761C189.363 391.171 169.8 383.076 155.376 368.666C140.952 354.256 132.849 334.712 132.849 314.334C132.849 293.955 140.952 274.411 155.376 260.002C169.8 245.592 189.363 237.497 209.761 237.497H251.714V474.994C251.714 480.956 252.889 486.861 255.173 492.369C257.457 497.878 260.805 502.883 265.025 507.099C269.246 511.315 274.256 514.66 279.77 516.942C285.284 519.223 291.194 520.398 297.162 520.398V192.093H209.761C177.309 192.093 146.186 204.972 123.239 227.896C100.292 250.821 87.4006 281.914 87.4006 314.334ZM419.523 192.093H402.043V237.497H419.523C439.921 237.497 459.484 245.592 473.908 260.002C488.332 274.411 496.436 293.955 496.436 314.334C496.436 334.712 488.332 354.256 473.908 368.666C459.484 383.076 439.921 391.171 419.523 391.171H377.571V153.674C377.571 141.632 372.782 130.083 364.259 121.569C355.736 113.054 344.176 108.27 332.122 108.27V436.575H419.523C435.592 436.575 451.503 433.413 466.348 427.27C481.194 421.127 494.683 412.123 506.045 400.772C517.407 389.42 526.42 375.945 532.57 361.114C538.719 346.283 541.884 330.387 541.884 314.334C541.884 298.281 538.719 282.385 532.57 267.554C526.42 252.723 517.407 239.247 506.045 227.896C494.683 216.545 481.194 207.541 466.348 201.398C451.503 195.254 435.592 192.093 419.523 192.093Z" fill="white"/>
<path d="M1020.84 71.9472C1024.99 71.9472 1029.04 70.7182 1032.49 68.4156C1035.94 66.1129 1038.63 62.8401 1040.22 59.011C1041.81 55.1818 1042.22 50.9683 1041.41 46.9033C1040.6 42.8383 1038.61 39.1044 1035.67 36.1737C1032.74 33.243 1029 31.2472 1024.93 30.4386C1020.86 29.63 1016.64 30.045 1012.81 31.6311C1008.98 33.2172 1005.7 35.9031 1003.4 39.3492C1001.09 42.7954 999.863 46.8469 999.863 50.9916C999.863 56.5494 1002.07 61.8795 1006.01 65.8095C1009.94 69.7394 1015.28 71.9472 1020.84 71.9472ZM897.08 85.9177C888.374 85.9058 879.837 88.3177 872.427 92.883C865.016 97.4482 859.026 103.986 855.128 111.763H853.729V89.4103H821.566V227.019H855.827V151.579C855.827 133.417 866.315 114.557 887.99 114.557C909.666 114.557 913.861 134.814 913.861 150.88V227.718H948.122V140.402C948.122 112.461 933.439 84.5206 897.08 84.5206V85.9177ZM751.645 227.019H786.606V89.4103H751.645V227.019ZM1377.43 71.2487C1381.58 71.2487 1385.64 70.0197 1389.09 67.717C1392.54 65.4144 1395.23 62.1416 1396.81 58.3124C1398.4 54.4833 1398.82 50.2698 1398.01 46.2048C1397.2 42.1398 1395.2 38.4059 1392.27 35.4752C1389.33 32.5445 1385.6 30.5486 1381.53 29.7401C1377.46 28.9315 1373.24 29.3465 1369.41 30.9326C1365.57 32.5186 1362.3 35.2046 1359.99 38.6507C1357.69 42.0969 1356.46 46.1484 1356.46 50.2931C1356.46 55.8508 1358.67 61.181 1362.6 65.1109C1366.54 69.0409 1371.87 71.2487 1377.43 71.2487ZM1321.5 89.4103V120.145H1359.95V227.019H1394.91V120.145H1433.37V89.4103H1321.5ZM1262.76 227.019H1297.72V89.4103H1262.76V227.019ZM965.602 120.145H1004.06V227.019H1039.02V120.145H1077.47V89.4103H965.602V120.145ZM1193.54 165.549C1193.54 183.711 1183.05 202.571 1161.38 202.571C1139.7 202.571 1135.51 181.615 1135.51 165.549V89.4103H1100.55V175.328C1100.55 203.269 1115.93 231.21 1151.59 231.21C1160.41 231.353 1169.1 229.003 1176.65 224.431C1184.19 219.858 1190.29 213.249 1194.24 205.365H1194.94V227.718H1227.8V89.4103H1192.84V164.851L1193.54 165.549Z" fill="#A4A4B6"/>
</svg>
