<svg width="2500" height="2500" viewBox="0 0 2500 2500" fill="none" xmlns="http://www.w3.org/2000/svg">
<rect width="2500" height="2500" fill="#1E1E1E"/>
<g clip-path="url(#clip0_0_1)">
<path d="M301.3 1249.6C301.4 1532.2 529.3 1762 811.9 1764.5H884.2V1575.6H811.9C636.7 1623.4 456 1520.1 408.3 1344.9C407.9 1343.5 407.6 1342.1 407.2 1340.7C358.1 1163.2 460.9 979.3 637.8 928.2H673.9C719.2 918.3 766.1 918.3 811.4 928.2H987V1931.1C986.1 2037.2 1071.4 2124 1177.5 2125V729.6H813C528.4 731.1 299 963 300.5 1247.6V1247.7L301.3 1249.6ZM1688.8 729.8H1616.5V928.7H1688.8C1863.6 881 2043.9 984 2091.6 1158.7C2092 1160 2092.3 1161.4 2092.7 1162.7C2141.5 1339.6 2039 1522.8 1862.8 1573.8H1826.7C1781.4 1583.7 1734.5 1583.7 1689.2 1573.8H1513.6V571C1514.5 464.9 1429.2 378.1 1323.1 377.1V1774.5H1687.6C1974.7 1770 2203.8 1533.7 2199.4 1246.6C2195 965.8 1968.5 739.2 1687.6 734.8L1688.8 729.8Z" fill="#A4A4B7"/>
</g>
<defs>
<clipPath id="clip0_0_1">
<rect width="2500" height="2500" fill="white"/>
</clipPath>
</defs>
</svg>
