<svg width="2480" height="951" viewBox="0 0 2480 951" fill="none" xmlns="http://www.w3.org/2000/svg">
<g clip-path="url(#clip0_3_16)">
<path d="M2158.53 0C1965.5 0 1839.47 132.206 1839.47 350.786C1839.47 622.248 2032.49 699.809 2170.86 699.809C2345.38 699.809 2444.97 582.587 2444.97 582.587L2355.95 493.568C2308.36 535.874 2253.71 561.434 2172.63 561.434C2065.1 561.434 1992.83 498.856 1992.83 412.482H2472.29C2471.41 411.601 2555.14 0 2158.53 0ZM1992.83 294.378C1992.83 178.037 2080.96 122.511 2175.27 122.511C2269.58 122.511 2355.07 179.8 2355.07 294.378H1992.83ZM393.138 282.92C331.442 274.988 154.286 282.039 154.286 200.953C154.286 153.359 228.321 126.918 297.068 126.918C406.358 126.918 479.512 170.986 499.784 185.088L592.328 92.544C565.005 71.3911 463.647 0 297.068 0C145.472 0 8.85965 79.3234 8.85965 206.241C8.85965 401.024 244.186 401.024 342.018 410.719C401.951 416.889 455.715 420.414 455.715 478.585C455.715 533.23 372.866 563.196 308.526 563.196C203.643 563.196 141.065 528.823 79.3694 473.297L-19.3442 572.892C71.437 661.029 186.897 699.809 300.594 699.809C476.868 699.809 604.667 622.248 604.667 466.246C604.667 362.244 535.038 300.548 393.138 282.92ZM899.045 0C746.568 0 646.973 77.5607 629.345 93.4254L721.889 185.969C740.398 170.986 802.975 127.799 900.808 127.799C1018.03 127.799 1053.28 174.512 1053.28 227.394V293.497H844.4C766.839 293.497 615.243 312.887 615.243 482.992C615.243 608.146 686.634 699.809 857.62 699.809C943.114 699.809 1008.34 671.605 1053.28 618.723V686.588H1204.88V237.97C1204 81.0862 1107.93 0 899.045 0ZM1054.17 441.567C1054.17 571.129 961.622 564.078 879.655 564.078C795.924 564.078 743.042 542.044 743.042 483.873C743.042 430.109 786.229 411.601 876.129 411.601H1054.17V441.567ZM1672.01 14.1019V89.0185C1620.89 29.9666 1559.19 0 1474.58 0C1330.92 0 1256.88 80.2048 1232.2 166.579C1222.51 198.309 1219.86 259.123 1219.86 349.023C1219.86 433.635 1220.75 511.195 1249.83 570.247C1291.26 653.096 1390.85 699.809 1474.58 699.809C1555.67 699.809 1624.41 668.08 1672.01 614.316V656.622C1672.01 705.979 1655.26 738.589 1623.53 764.149C1591.8 789.709 1552.14 805.574 1496.61 805.574C1446.38 805.574 1398.78 778.251 1371.46 758.861L1269.22 861.1C1335.32 914.864 1414.65 951 1499.26 951.881C1589.16 952.763 1662.31 925.44 1725.77 875.202C1786.59 827.608 1825.37 736.827 1825.37 641.639V14.1019H1672.01ZM1672.01 349.023C1672.01 401.024 1671.13 439.804 1666.72 459.195C1657.02 502.382 1607.67 559.671 1517.77 559.671C1494.85 559.671 1380.27 546.45 1367.05 446.855C1364.41 426.584 1362.65 400.143 1362.65 348.142C1362.65 270.581 1366.17 245.903 1369.7 225.631C1377.63 186.851 1428.75 128.68 1517.77 128.68C1626.18 128.68 1661.43 202.715 1666.72 231.801C1671.13 252.954 1672.01 297.022 1672.01 349.023Z" fill="#A4A4B7"/>
</g>
<defs>
<clipPath id="clip0_3_16">
<rect width="2500" height="951" fill="white" transform="translate(-20)"/>
</clipPath>
</defs>
</svg>
