<svg viewBox="0 0 265 265" fill="none" xmlns="http://www.w3.org/2000/svg">
<g clip-path="url(#clip0_18_33)">
<path opacity="0.5" fill-rule="evenodd" clip-rule="evenodd" d="M265 218.073C265 230.519 251.04 242.455 226.192 251.256C201.343 260.056 167.641 265 132.5 265C97.3589 265 63.657 260.056 38.8084 251.256C13.9598 242.455 0 230.519 0 218.073C0 205.627 13.9598 193.691 38.8084 184.891C63.657 176.09 97.3589 171.146 132.5 171.146C167.641 171.146 201.343 176.09 226.192 184.891C251.04 193.691 265 205.627 265 218.073Z" fill="url(#paint0_radial_18_33)"/>
<path fill-rule="evenodd" clip-rule="evenodd" d="M256.878 215.33C256.878 218.988 253.968 222.496 248.788 225.083C243.608 227.67 236.582 229.123 229.256 229.123C221.93 229.123 214.904 227.67 209.724 225.083C204.543 222.496 201.633 218.988 201.633 215.33C201.633 211.672 204.543 208.164 209.724 205.577C214.904 202.991 221.93 201.538 229.256 201.538C236.582 201.538 243.608 202.991 248.788 205.577C253.968 208.164 256.878 211.672 256.878 215.33Z" fill="#EDD400" stroke="#786100"/>
<path fill-rule="evenodd" clip-rule="evenodd" d="M256.932 204.324C256.932 207.982 254.021 211.49 248.841 214.077C243.661 216.663 236.635 218.117 229.309 218.117C221.983 218.117 214.957 216.663 209.777 214.077C204.597 211.49 201.686 207.982 201.686 204.324C201.686 200.666 204.597 197.158 209.777 194.571C214.957 191.984 221.983 190.531 229.309 190.531C236.635 190.531 243.661 191.984 248.841 194.571C254.021 197.158 256.932 200.666 256.932 204.324Z" fill="#EDD400" stroke="#8C7200"/>
<path d="M218.149 13.811H46.7763C40.6781 13.811 35.7346 18.7546 35.7346 24.8527V195.974C35.7346 202.073 40.6781 207.016 46.7763 207.016H218.149C224.247 207.016 229.191 202.073 229.191 195.974V24.8527C229.191 18.7546 224.247 13.811 218.149 13.811Z" fill="#EEEEEC" stroke="#555753"/>
<path fill-rule="evenodd" clip-rule="evenodd" d="M256.932 193.282C256.932 196.94 254.021 200.449 248.841 203.035C243.661 205.622 236.635 207.075 229.309 207.075C221.983 207.075 214.957 205.622 209.777 203.035C204.597 200.449 201.686 196.94 201.686 193.282C201.686 189.624 204.597 186.116 209.777 183.53C214.957 180.943 221.983 179.49 229.309 179.49C236.635 179.49 243.661 180.943 248.841 183.53C254.021 186.116 256.932 189.624 256.932 193.282Z" fill="#EDD400" stroke="#8C7200"/>
<path d="M206.341 33.125H58.8039C53.8491 33.125 49.8325 37.1416 49.8325 42.0964V162.174C49.8325 167.129 53.8491 171.146 58.8039 171.146H206.341C211.296 171.146 215.312 167.129 215.312 162.174V42.0964C215.312 37.1416 211.296 33.125 206.341 33.125Z" fill="url(#paint1_radial_18_33)"/>
<path fill-rule="evenodd" clip-rule="evenodd" d="M77.4642 33.125V55.2083H55.2084V60.7292H77.4642V82.8125H55.2084V88.3333H77.4642V110.417H55.2084V115.938H77.4642V138.021H55.2084V143.542H77.4642V165.625H82.9851V143.542H105.068V165.625H110.589V143.542H132.673V165.625H138.193V143.542H160.277V165.625H165.798V143.542H187.881V165.625H193.402V143.542H215.313V138.021H193.402V115.938H215.313V110.417H193.402V88.3333H215.313V82.8125H193.402V60.7292H215.313V55.2083H193.402V33.125H187.881V55.2083H165.798V33.125H160.277V55.2083H138.193V33.125H132.673V55.2083H110.589V33.125H105.068V55.2083H82.9851V33.125H77.4642ZM82.9851 60.7292H105.068V82.8125H82.9851V60.7292ZM110.589 60.7292H132.673V82.8125H110.589V60.7292ZM138.193 60.7292H160.277V82.8125H138.193V60.7292ZM165.798 60.7292H187.881V82.8125H165.798V60.7292ZM82.9851 88.3333H105.068V110.417H82.9851V88.3333ZM110.589 88.3333H132.673V110.417H110.589V88.3333ZM138.193 88.3333H160.277V110.417H138.193V88.3333ZM165.798 88.3333H187.881V110.417H165.798V88.3333ZM82.9851 115.938H105.068V138.021H82.9851V115.938ZM110.589 115.938H132.673V138.021H110.589V115.938ZM138.193 115.938H160.277V138.021H138.193V115.938ZM165.798 115.938H187.881V138.021H165.798V115.938Z" fill="url(#paint2_radial_18_33)"/>
<path fill-rule="evenodd" clip-rule="evenodd" d="M256.862 182.214C256.862 185.872 253.952 189.38 248.772 191.966C243.591 194.553 236.565 196.006 229.24 196.006C221.914 196.006 214.888 194.553 209.707 191.966C204.527 189.38 201.617 185.872 201.617 182.214C201.617 178.555 204.527 175.047 209.707 172.461C214.888 169.874 221.914 168.421 229.24 168.421C236.565 168.421 243.591 169.874 248.772 172.461C253.952 175.047 256.862 178.555 256.862 182.214Z" fill="#EDD400" stroke="#8C7200"/>
<path fill-rule="evenodd" clip-rule="evenodd" d="M157.516 71.771L130.558 120.449L83.0247 93.964L49.86 146.302L54.6907 149.063L84.5704 100.884L132.61 127.28L162.347 74.5314L157.516 71.771Z" fill="url(#paint3_linear_18_33)"/>
<path d="M215.312 171.146V165.625H49.6875V171.146H215.312Z" fill="#888A85"/>
<path d="M55.3534 33.125H49.8325V171.146H55.3534V33.125Z" fill="#888A85"/>
<path fill-rule="evenodd" clip-rule="evenodd" d="M8.2804 190.408H140.782V223.673H8.2804V190.408Z" fill="#4E9A06" stroke="#2E5C02"/>
<path fill-rule="evenodd" clip-rule="evenodd" d="M23.8825 157.348H135.799L140.781 190.525H8.28125L23.8825 157.348Z" fill="#59AF05" stroke="#2E5C02"/>
<path d="M138.022 209.994H11.0425V215.515H138.022V209.994Z" fill="#2E5C02"/>
<path d="M138.022 198.953H11.0424V204.473H138.022V198.953Z" fill="#2E5C02"/>
<path opacity="0.25" d="M27.2598 163.152L16.3906 184.891H134.226L130.948 163.152H27.2598Z" stroke="white"/>
<path d="M90.9207 190.325H63.6626V224.054H90.9207V190.325Z" fill="#EEEEEC" stroke="#555753"/>
<path fill-rule="evenodd" clip-rule="evenodd" d="M104.896 173.906C104.897 174.994 104.183 176.071 102.796 177.076C101.409 178.081 99.3761 178.994 96.8128 179.763C94.2494 180.532 91.2061 181.142 87.8566 181.558C84.5072 181.975 80.9172 182.189 77.2917 182.189C73.6662 182.189 70.0762 181.975 66.7267 181.558C63.3772 181.142 60.3339 180.532 57.7706 179.763C55.2072 178.994 53.174 178.081 51.7871 177.076C50.4002 176.071 49.6868 174.994 49.6875 173.906C49.6868 172.818 50.4002 171.741 51.7871 170.736C53.174 169.731 55.2072 168.818 57.7706 168.049C60.3339 167.28 63.3772 166.67 66.7267 166.254C70.0762 165.837 73.6662 165.623 77.2917 165.623C80.9172 165.623 84.5072 165.837 87.8566 166.254C91.2061 166.67 94.2494 167.28 96.8128 168.049C99.3761 168.818 101.409 169.731 102.796 170.736C104.183 171.741 104.897 172.818 104.896 173.906Z" fill="#2E5C02"/>
<path fill-rule="evenodd" clip-rule="evenodd" d="M69.0105 157.32L63.4896 188.442V223.618H91.0938V188.144L85.0554 157.32H69.0105Z" fill="#D3D7CF" stroke="#555753"/>
<path fill-rule="evenodd" clip-rule="evenodd" d="M30.3175 217.913H162.865V251.254H30.3175V217.913Z" fill="#4E9A06" stroke="#2E5C02"/>
<path fill-rule="evenodd" clip-rule="evenodd" d="M41.1347 184.976H152.703L162.861 218.067H30.3645L41.1347 184.976Z" fill="#57AE06" stroke="#2E5C02"/>
<path fill-rule="evenodd" clip-rule="evenodd" d="M229.221 231.857C229.221 235.515 226.311 239.023 221.131 241.61C215.95 244.197 208.924 245.65 201.598 245.65C194.272 245.65 187.246 244.197 182.066 241.61C176.886 239.023 173.976 235.515 173.976 231.857C173.976 228.199 176.886 224.691 182.066 222.104C187.246 219.518 194.272 218.064 201.598 218.064C208.924 218.064 215.95 219.518 221.131 222.104C226.311 224.691 229.221 228.199 229.221 231.857Z" fill="#ECD300" stroke="#786100"/>
<path fill-rule="evenodd" clip-rule="evenodd" d="M256.932 171.164C256.932 174.822 254.021 178.33 248.841 180.917C243.661 183.503 236.635 184.956 229.309 184.956C221.983 184.956 214.957 183.503 209.777 180.917C204.597 178.33 201.686 174.822 201.686 171.164C201.686 167.506 204.597 163.997 209.777 161.411C214.957 158.824 221.983 157.371 229.309 157.371C236.635 157.371 243.661 158.824 248.841 161.411C254.021 163.997 256.932 167.506 256.932 171.164Z" fill="#EDD400" stroke="#8C7200"/>
<path d="M160.104 237.396H33.125V242.917H160.104V237.396Z" fill="#2E5C02"/>
<path d="M160.104 226.354H33.125V231.875H160.104V226.354Z" fill="#2E5C02"/>
<path fill-rule="evenodd" clip-rule="evenodd" d="M229.274 220.851C229.274 224.509 226.364 228.017 221.184 230.604C216.004 233.191 208.978 234.644 201.652 234.644C194.326 234.644 187.3 233.191 182.119 230.604C176.939 228.017 174.029 224.509 174.029 220.851C174.029 217.193 176.939 213.685 182.119 211.098C187.3 208.512 194.326 207.059 201.652 207.059C208.978 207.059 216.004 208.512 221.184 211.098C226.364 213.685 229.274 217.193 229.274 220.851Z" fill="#ECD300" stroke="#8C7200"/>
<path fill-rule="evenodd" clip-rule="evenodd" d="M229.274 209.809C229.274 213.467 226.364 216.975 221.184 219.562C216.004 222.149 208.978 223.602 201.652 223.602C194.326 223.602 187.3 222.149 182.119 219.562C176.939 216.975 174.029 213.467 174.029 209.809C174.029 206.151 176.939 202.643 182.119 200.056C187.3 197.47 194.326 196.017 201.652 196.017C208.978 196.017 216.004 197.47 221.184 200.056C226.364 202.643 229.274 206.151 229.274 209.809Z" fill="#ECD300" stroke="#8C7200"/>
<path fill-rule="evenodd" clip-rule="evenodd" d="M256.932 160.149C256.932 163.807 254.021 167.315 248.841 169.902C243.661 172.489 236.635 173.942 229.309 173.942C221.983 173.942 214.957 172.489 209.777 169.902C204.597 167.315 201.686 163.807 201.686 160.149C201.686 156.491 204.597 152.983 209.777 150.396C214.957 147.81 221.983 146.356 229.309 146.356C236.635 146.356 243.661 147.81 248.841 150.396C254.021 152.983 256.932 156.491 256.932 160.149Z" fill="#EDD400" stroke="#8C7200"/>
<path opacity="0.25" d="M45.3743 190.641L38.3008 212.379H155.101L148.372 190.641H45.3743Z" stroke="white"/>
<path fill-rule="evenodd" clip-rule="evenodd" d="M229.205 198.74C229.205 202.398 226.295 205.907 221.114 208.493C215.934 211.08 208.908 212.533 201.582 212.533C194.256 212.533 187.23 211.08 182.05 208.493C176.87 205.907 173.959 202.398 173.959 198.74C173.959 195.082 176.87 191.574 182.05 188.988C187.23 186.401 194.256 184.948 201.582 184.948C208.908 184.948 215.934 186.401 221.114 188.988C226.295 191.574 229.205 195.082 229.205 198.74Z" fill="#ECD300" stroke="#8C7200"/>
<path fill-rule="evenodd" clip-rule="evenodd" d="M256.862 149.08C256.862 152.738 253.952 156.246 248.772 158.833C243.591 161.42 236.565 162.873 229.24 162.873C221.914 162.873 214.888 161.42 209.707 158.833C204.527 156.246 201.617 152.738 201.617 149.08C201.617 145.422 204.527 141.914 209.707 139.327C214.888 136.741 221.914 135.288 229.24 135.288C236.565 135.288 243.591 136.741 248.772 139.327C253.952 141.914 256.862 145.422 256.862 149.08Z" fill="#EDD400" stroke="#8C7200"/>
<path fill-rule="evenodd" clip-rule="evenodd" d="M229.274 187.691C229.274 191.349 226.364 194.857 221.184 197.443C216.004 200.03 208.978 201.483 201.652 201.483C194.326 201.483 187.3 200.03 182.119 197.443C176.939 194.857 174.029 191.349 174.029 187.691C174.029 184.033 176.939 180.524 182.119 177.938C187.3 175.351 194.326 173.898 201.652 173.898C208.978 173.898 216.004 175.351 221.184 177.938C226.364 180.524 229.274 184.033 229.274 187.691Z" fill="#ECD300" stroke="#8C7200"/>
<path fill-rule="evenodd" clip-rule="evenodd" d="M60.5568 184.863C60.5569 185.225 60.4142 185.584 60.1369 185.919C59.8595 186.254 59.4528 186.558 58.9402 186.815C58.4275 187.071 57.8188 187.275 57.1489 187.413C56.4791 187.552 55.7611 187.624 55.036 187.624C54.3109 187.624 53.5929 187.552 52.923 187.413C52.2531 187.275 51.6444 187.071 51.1317 186.815C50.6191 186.558 50.2124 186.254 49.9351 185.919C49.6577 185.584 49.515 185.225 49.5151 184.863C49.515 184.5 49.6577 184.141 49.9351 183.806C50.2124 183.471 50.6191 183.167 51.1317 182.91C51.6444 182.654 52.2531 182.451 52.923 182.312C53.5929 182.173 54.3109 182.102 55.036 182.102C55.7611 182.102 56.4791 182.173 57.1489 182.312C57.8188 182.451 58.4275 182.654 58.9402 182.91C59.4528 183.167 59.8595 183.471 60.1369 183.806C60.4142 184.141 60.5569 184.5 60.5568 184.863Z" fill="#2E5C02"/>
<path fill-rule="evenodd" clip-rule="evenodd" d="M143.369 184.863C143.369 185.225 143.227 185.584 142.949 185.919C142.672 186.254 142.265 186.558 141.753 186.815C141.24 187.071 140.631 187.275 139.961 187.413C139.292 187.552 138.574 187.624 137.848 187.624C137.123 187.624 136.405 187.552 135.735 187.413C135.066 187.275 134.457 187.071 133.944 186.815C133.432 186.558 133.025 186.254 132.748 185.919C132.47 185.584 132.327 185.225 132.328 184.863C132.327 184.5 132.47 184.141 132.748 183.806C133.025 183.471 133.432 183.167 133.944 182.91C134.457 182.654 135.066 182.451 135.735 182.312C136.405 182.173 137.123 182.102 137.848 182.102C138.574 182.102 139.292 182.173 139.961 182.312C140.631 182.451 141.24 182.654 141.753 182.91C142.265 183.167 142.672 183.471 142.949 183.806C143.227 184.141 143.369 184.5 143.369 184.863Z" fill="#2E5C02"/>
<path fill-rule="evenodd" clip-rule="evenodd" d="M126.979 201.51C126.98 202.598 126.266 203.675 124.88 204.68C123.493 205.685 121.459 206.598 118.896 207.367C116.333 208.136 113.289 208.747 109.94 209.163C106.591 209.579 103.001 209.793 99.375 209.793C95.7495 209.793 92.1595 209.579 88.8101 209.163C85.4606 208.747 82.4173 208.136 79.8539 207.367C77.2906 206.598 75.2574 205.685 73.8705 204.68C72.4836 203.675 71.7701 202.598 71.7709 201.51C71.7701 200.423 72.4836 199.346 73.8705 198.341C75.2574 197.336 77.2906 196.423 79.8539 195.654C82.4173 194.884 85.4606 194.274 88.8101 193.858C92.1595 193.442 95.7495 193.228 99.375 193.228C103.001 193.228 106.591 193.442 109.94 193.858C113.289 194.274 116.333 194.884 118.896 195.654C121.459 196.423 123.493 197.336 124.88 198.341C126.266 199.346 126.98 200.423 126.979 201.51Z" fill="#2E5C02"/>
<path fill-rule="evenodd" clip-rule="evenodd" d="M60.7292 206.946C60.7294 207.309 60.5132 207.668 60.0928 208.003C59.6724 208.338 59.0561 208.642 58.2791 208.898C57.502 209.155 56.5795 209.358 55.5643 209.497C54.549 209.636 53.4608 209.707 52.3618 209.707C51.2628 209.707 50.1746 209.636 49.1593 209.497C48.144 209.358 47.2215 209.155 46.4445 208.898C45.6675 208.642 45.0512 208.338 44.6308 208.003C44.2104 207.668 43.9942 207.309 43.9944 206.946C43.9942 206.583 44.2104 206.224 44.6308 205.89C45.0512 205.555 45.6675 205.25 46.4445 204.994C47.2215 204.737 48.144 204.534 49.1593 204.395C50.1746 204.256 51.2628 204.185 52.3618 204.185C53.4608 204.185 54.549 204.256 55.5643 204.395C56.5795 204.534 57.502 204.737 58.2791 204.994C59.0561 205.25 59.6724 205.555 60.0928 205.89C60.5132 206.224 60.7294 206.583 60.7292 206.946Z" fill="#2E5C02"/>
<path fill-rule="evenodd" clip-rule="evenodd" d="M149.062 207.031C149.063 207.394 148.849 207.753 148.433 208.088C148.017 208.423 147.407 208.727 146.638 208.983C145.869 209.24 144.956 209.443 143.951 209.582C142.946 209.721 141.869 209.792 140.781 209.792C139.694 209.792 138.617 209.721 137.612 209.582C136.607 209.443 135.694 209.24 134.925 208.983C134.156 208.727 133.546 208.423 133.13 208.088C132.714 207.753 132.5 207.394 132.5 207.031C132.5 206.668 132.714 206.309 133.13 205.974C133.546 205.639 134.156 205.335 134.925 205.079C135.694 204.822 136.607 204.619 137.612 204.48C138.617 204.341 139.694 204.27 140.781 204.27C141.869 204.27 142.946 204.341 143.951 204.48C144.956 204.619 145.869 204.822 146.638 205.079C147.407 205.335 148.017 205.639 148.433 205.974C148.849 206.309 149.063 206.668 149.062 207.031Z" fill="#2E5C02"/>
<path fill-rule="evenodd" clip-rule="evenodd" d="M91.0937 185.065L85.5729 216.121V251.222H113.177V215.824L107.139 185.065H91.0937Z" fill="#D3D7CF" stroke="#555753"/>
<path d="M110.417 220.833H88.3334V248.438H110.417V220.833Z" fill="#888A85"/>
<path d="M110.417 220.833H88.3334V248.438H110.417V220.833Z" fill="url(#paint4_linear_18_33)"/>
<path fill-rule="evenodd" clip-rule="evenodd" d="M143.542 195.989C143.542 196.352 143.328 196.711 142.912 197.046C142.496 197.381 141.886 197.685 141.117 197.942C140.348 198.198 139.435 198.402 138.43 198.54C137.425 198.679 136.348 198.75 135.26 198.75C134.173 198.75 133.096 198.679 132.091 198.54C131.086 198.402 130.173 198.198 129.404 197.942C128.635 197.685 128.025 197.381 127.609 197.046C127.193 196.711 126.979 196.352 126.979 195.989C126.979 195.627 127.193 195.268 127.609 194.933C128.025 194.598 128.635 194.294 129.404 194.037C130.173 193.781 131.086 193.577 132.091 193.439C133.096 193.3 134.173 193.229 135.26 193.229C136.348 193.229 137.425 193.3 138.43 193.439C139.435 193.577 140.348 193.781 141.117 194.037C141.886 194.294 142.496 194.598 142.912 194.933C143.328 195.268 143.542 195.627 143.542 195.989Z" fill="#2E5C02"/>
<path fill-rule="evenodd" clip-rule="evenodd" d="M66.25 195.989C66.2502 196.352 66.0362 196.711 65.6201 197.046C65.204 197.381 64.5941 197.685 63.8251 197.942C63.0561 198.198 62.1431 198.402 61.1382 198.54C60.1334 198.679 59.0564 198.75 57.9687 198.75C56.8811 198.75 55.8041 198.679 54.7993 198.54C53.7944 198.402 52.8814 198.198 52.1124 197.942C51.3434 197.685 50.7335 197.381 50.3174 197.046C49.9013 196.711 49.6873 196.352 49.6875 195.989C49.6873 195.627 49.9013 195.268 50.3174 194.933C50.7335 194.598 51.3434 194.294 52.1124 194.037C52.8814 193.781 53.7944 193.577 54.7993 193.439C55.8041 193.3 56.8811 193.229 57.9687 193.229C59.0564 193.229 60.1334 193.3 61.1382 193.439C62.1431 193.577 63.0561 193.781 63.8251 194.037C64.5941 194.294 65.204 194.598 65.6201 194.933C66.0362 195.268 66.2502 195.627 66.25 195.989Z" fill="#2E5C02"/>
<path opacity="0.2" fill-rule="evenodd" clip-rule="evenodd" d="M49.6875 33.125H215.313C148.176 54.7122 152.72 132.5 49.6875 132.5V33.125Z" fill="white"/>
<path fill-rule="evenodd" clip-rule="evenodd" d="M38.6458 179.427C38.646 179.79 38.4298 180.149 38.0094 180.484C37.589 180.819 36.9727 181.123 36.1957 181.379C35.4187 181.636 34.4962 181.839 33.4809 181.978C32.4656 182.117 31.3774 182.188 30.2784 182.188C29.1794 182.188 28.0912 182.117 27.076 181.978C26.0607 181.839 25.1382 181.636 24.3612 181.379C23.5842 181.123 22.9678 180.819 22.5474 180.484C22.127 180.149 21.9108 179.79 21.911 179.427C21.9108 179.064 22.127 178.705 22.5474 178.37C22.9678 178.035 23.5842 177.731 24.3612 177.475C25.1382 177.218 26.0607 177.015 27.076 176.876C28.0912 176.737 29.1794 176.666 30.2784 176.666C31.3774 176.666 32.4656 176.737 33.4809 176.876C34.4962 177.015 35.4187 177.218 36.1957 177.475C36.9727 177.731 37.589 178.035 38.0094 178.37C38.4298 178.705 38.646 179.064 38.6458 179.427Z" fill="#2E5C02"/>
<path fill-rule="evenodd" clip-rule="evenodd" d="M132.5 179.427C132.5 179.79 132.286 180.149 131.87 180.484C131.454 180.819 130.844 181.123 130.075 181.379C129.306 181.636 128.393 181.839 127.388 181.978C126.383 182.117 125.306 182.188 124.219 182.188C123.131 182.188 122.054 182.117 121.049 181.978C120.044 181.839 119.131 181.636 118.362 181.379C117.593 181.123 116.983 180.819 116.567 180.484C116.151 180.149 115.937 179.79 115.938 179.427C115.937 179.064 116.151 178.705 116.567 178.37C116.983 178.035 117.593 177.731 118.362 177.475C119.131 177.218 120.044 177.015 121.049 176.876C122.054 176.737 123.131 176.666 124.219 176.666C125.306 176.666 126.383 176.737 127.388 176.876C128.393 177.015 129.306 177.218 130.075 177.475C130.844 177.731 131.454 178.035 131.87 178.37C132.286 178.705 132.5 179.064 132.5 179.427Z" fill="#2E5C02"/>
<path fill-rule="evenodd" clip-rule="evenodd" d="M126.979 168.385C126.979 168.748 126.765 169.107 126.349 169.442C125.933 169.777 125.323 170.081 124.554 170.338C123.785 170.594 122.872 170.798 121.867 170.936C120.863 171.075 119.786 171.146 118.698 171.146C117.61 171.146 116.533 171.075 115.528 170.936C114.524 170.798 113.611 170.594 112.842 170.338C112.073 170.081 111.463 169.777 111.047 169.442C110.63 169.107 110.416 168.748 110.417 168.385C110.416 168.023 110.63 167.664 111.047 167.329C111.463 166.994 112.073 166.69 112.842 166.433C113.611 166.177 114.524 165.973 115.528 165.835C116.533 165.696 117.61 165.625 118.698 165.625C119.786 165.625 120.863 165.696 121.867 165.835C122.872 165.973 123.785 166.177 124.554 166.433C125.323 166.69 125.933 166.994 126.349 167.329C126.765 167.664 126.979 168.023 126.979 168.385Z" fill="#2E5C02"/>
<path fill-rule="evenodd" clip-rule="evenodd" d="M44.1666 168.385C44.1668 168.748 43.9528 169.107 43.5367 169.442C43.1207 169.777 42.5107 170.081 41.7417 170.338C40.9727 170.594 40.0597 170.798 39.0549 170.936C38.05 171.075 36.973 171.146 35.8854 171.146C34.7977 171.146 33.7207 171.075 32.7159 170.936C31.711 170.798 30.7981 170.594 30.029 170.338C29.26 170.081 28.6501 169.777 28.234 169.442C27.8179 169.107 27.6039 168.748 27.6041 168.385C27.6039 168.023 27.8179 167.664 28.234 167.329C28.6501 166.994 29.26 166.69 30.029 166.433C30.7981 166.177 31.711 165.973 32.7159 165.835C33.7207 165.696 34.7977 165.625 35.8854 165.625C36.973 165.625 38.05 165.696 39.0549 165.835C40.0597 165.973 40.9727 166.177 41.7417 166.433C42.5107 166.69 43.1207 166.994 43.5367 167.329C43.9528 167.664 44.1668 168.023 44.1666 168.385Z" fill="#2E5C02"/>
<path fill-rule="evenodd" clip-rule="evenodd" d="M256.932 138.03C256.932 141.688 254.021 145.197 248.841 147.783C243.661 150.37 236.635 151.823 229.309 151.823C221.983 151.823 214.957 150.37 209.777 147.783C204.597 145.197 201.686 141.688 201.686 138.03C201.686 134.372 204.597 130.864 209.777 128.278C214.957 125.691 221.983 124.238 229.309 124.238C236.635 124.238 243.661 125.691 248.841 128.278C254.021 130.864 256.932 134.372 256.932 138.03Z" fill="#EDD400" stroke="#8C7200"/>
<path fill-rule="evenodd" clip-rule="evenodd" d="M256.932 126.988C256.932 130.646 254.021 134.155 248.841 136.741C243.661 139.328 236.635 140.781 229.309 140.781C221.983 140.781 214.957 139.328 209.777 136.741C204.597 134.155 201.686 130.646 201.686 126.988C201.686 123.33 204.597 119.822 209.777 117.236C214.957 114.649 221.983 113.196 229.309 113.196C236.635 113.196 243.661 114.649 248.841 117.236C254.021 119.822 256.932 123.33 256.932 126.988Z" fill="#EDD400" stroke="#8C7200"/>
<path fill-rule="evenodd" clip-rule="evenodd" d="M256.825 115.928C256.825 119.586 253.915 123.094 248.735 125.681C243.554 128.267 236.529 129.721 229.203 129.721C221.877 129.721 214.851 128.267 209.67 125.681C204.49 123.094 201.58 119.586 201.58 115.928C201.58 112.27 204.49 108.762 209.67 106.175C214.851 103.588 221.877 102.135 229.203 102.135C236.529 102.135 243.554 103.588 248.735 106.175C253.915 108.762 256.825 112.27 256.825 115.928Z" fill="#FCE94F" stroke="#8C7200"/>
<path fill-rule="evenodd" clip-rule="evenodd" d="M229.168 176.649C229.168 180.307 226.257 183.815 221.077 186.402C215.897 188.989 208.871 190.442 201.545 190.442C194.219 190.442 187.193 188.989 182.013 186.402C176.833 183.815 173.922 180.307 173.922 176.649C173.922 172.991 176.833 169.483 182.013 166.896C187.193 164.31 194.219 162.856 201.545 162.856C208.871 162.856 215.897 164.31 221.077 166.896C226.257 169.483 229.168 172.991 229.168 176.649Z" fill="#FCE94F" stroke="#8C7200"/>
<path opacity="0.5" d="M223.637 176.649C223.637 178.84 221.308 180.942 217.162 182.492C213.017 184.042 207.395 184.912 201.532 184.912C195.669 184.912 190.047 184.042 185.901 182.492C181.756 180.942 179.427 178.84 179.427 176.649C179.427 174.457 181.756 172.355 185.901 170.806C190.047 169.256 195.669 168.385 201.532 168.385C207.395 168.385 213.017 169.256 217.162 170.806C221.308 172.355 223.637 174.457 223.637 176.649Z" stroke="white"/>
<path opacity="0.5" d="M251.251 115.92C251.251 118.111 248.922 120.213 244.777 121.763C240.631 123.313 235.009 124.183 229.146 124.183C223.284 124.183 217.661 123.313 213.516 121.763C209.37 120.213 207.041 118.111 207.041 115.92C207.041 113.728 209.37 111.626 213.516 110.077C217.661 108.527 223.284 107.656 229.146 107.656C235.009 107.656 240.631 108.527 244.777 110.077C248.922 111.626 251.251 113.728 251.251 115.92Z" stroke="white"/>
</g>
<defs>
<radialGradient id="paint0_radial_18_33" cx="0" cy="0" r="1" gradientUnits="userSpaceOnUse" gradientTransform="translate(127.744 215.424) scale(147.581 52.2682)">
<stop stop-color="#555753"/>
<stop offset="1" stop-color="#555753" stop-opacity="0"/>
</radialGradient>
<radialGradient id="paint1_radial_18_33" cx="0" cy="0" r="1" gradientUnits="userSpaceOnUse" gradientTransform="translate(132.573 214.493) scale(274.99 229.36)">
<stop stop-color="#D3D7CF"/>
<stop offset="1" stop-color="#D3D7CF" stop-opacity="0"/>
</radialGradient>
<radialGradient id="paint2_radial_18_33" cx="0" cy="0" r="1" gradientUnits="userSpaceOnUse" gradientTransform="translate(135.261 120.774) scale(235.375 194.793)">
<stop stop-color="#BABDB6"/>
<stop offset="1" stop-color="#BABDB6" stop-opacity="0"/>
</radialGradient>
<linearGradient id="paint3_linear_18_33" x1="135.884" y1="116.821" x2="161.111" y2="73.1266" gradientUnits="userSpaceOnUse">
<stop stop-color="#204A87"/>
<stop offset="1" stop-color="#204A87" stop-opacity="0"/>
</linearGradient>
<linearGradient id="paint4_linear_18_33" x1="99.375" y1="220.833" x2="99.375" y2="252.027" gradientUnits="userSpaceOnUse">
<stop stop-color="#EEEEEC"/>
<stop offset="1" stop-color="#EEEEEC" stop-opacity="0"/>
</linearGradient>
<clipPath id="clip0_18_33">
<rect width="265" height="265" fill="white"/>
</clipPath>
</defs>
</svg>
