<svg viewBox="0 0 644 265" fill="none" xmlns="http://www.w3.org/2000/svg">
<path d="M314.274 77.0086L284.502 159.866L252.098 73.9865C247.203 60.4016 234.388 61.1557 234.388 61.1557H206.691L261.712 195.936C261.712 195.746 261.712 195.746 261.523 195.556C261.618 195.742 261.682 195.942 261.712 196.149C261.833 196.313 261.897 196.51 261.896 196.713L261.712 195.959C263.597 201.428 263.028 204.45 261.333 209.734L260.201 213.095C253.8 228.948 244.749 233.282 225.723 232.344V232.534L239.1 265C263.781 264.406 282.244 256.504 294.679 225.546L360.814 61.1557H335.92C334.219 61.1557 320.278 61.5357 314.244 77.0146M386.449 131.366C386.449 107.391 401.717 90.7895 420.553 90.7895C439.39 90.7895 454.658 107.414 454.658 131.366C454.658 154.771 439.396 170.998 420.553 170.998C401.901 170.814 386.449 154.771 386.449 131.366ZM351.028 130.992C351.028 172.512 382.122 203.464 420.553 203.464C458.985 203.464 490.458 172.512 490.458 130.992C490.458 89.4713 458.991 57.9613 420.553 57.9613C382.306 58.1513 351.028 89.6732 351.028 130.992ZM106.457 77.7805C96.4699 65.6978 81.2076 58.1513 62.3652 58.1513C24.4968 58.1335 0 84.7451 0 120.043V200.258H11.4927C19.4054 199.664 34.8574 195.918 35.4205 172.892V119.283C35.4205 103.62 46.3501 92.8616 62.3652 92.8616C85.7299 92.8616 88.1779 111.357 88.1779 119.283V200.258H99.6705C107.583 199.664 122.846 195.918 123.598 173.076V119.283C123.598 103.62 134.907 92.8616 150.543 92.8616C173.908 92.8616 176.545 111.357 176.545 119.283V200.258H188.038C195.951 199.664 211.592 195.918 211.966 172.512V120.043C211.966 83.6111 189.17 58.1335 150.324 58.1335C132.424 58.1335 116.788 65.68 106.427 77.7627M537.709 131.366C537.709 109.279 553.534 91.5376 573.129 91.5376C592.724 91.5376 608.556 108.721 608.556 131.366C608.556 153.447 592.724 170.434 573.129 170.434C553.534 170.434 537.709 152.883 537.709 131.366ZM530.389 0C506.271 0 502.318 16.233 501.939 24.1595V200.258H519.08C532.837 200.442 536.043 191.762 536.043 186.857V185.533C546.777 196.862 561.477 203.28 578.244 203.28C614.613 203.28 644 172.132 644 131.176C644 90.0354 614.424 58.6976 578.244 58.6976C562.419 58.6976 548.099 64.5519 537.738 74.9305V0H530.389Z" fill="url(#paint0_linear_18_149)"/>
<defs>
<linearGradient id="paint0_linear_18_149" x1="0.245027" y1="136.113" x2="648.815" y2="136.113" gradientUnits="userSpaceOnUse">
<stop offset="0.36" stop-color="#6100A5"/>
<stop offset="0.46" stop-color="#7001A0"/>
<stop offset="0.64" stop-color="#980293"/>
<stop offset="0.89" stop-color="#D9057E"/>
<stop offset="0.97" stop-color="#ED0677"/>
</linearGradient>
</defs>
</svg>
