<svg viewBox="0 0 833 266" fill="none" xmlns="http://www.w3.org/2000/svg">
<path fill-rule="evenodd" clip-rule="evenodd" d="M832.612 165.022C832.612 220.518 787.623 265.507 732.126 265.507C676.63 265.507 631.641 220.518 631.641 165.022C631.641 109.525 676.63 64.5366 732.126 64.5366C787.623 64.5366 832.612 109.525 832.612 165.022ZM791.39 165.022C791.39 197.777 764.881 224.286 732.126 224.286C699.371 224.286 672.862 197.777 672.862 165.022C672.862 132.267 699.371 105.758 732.126 105.758C764.881 105.758 791.39 132.267 791.39 165.022Z" fill="#9C5789"/>
<path fill-rule="evenodd" clip-rule="evenodd" d="M619.566 165.022C619.566 220.518 574.578 265.507 519.081 265.507C463.585 265.507 418.596 220.518 418.596 165.022C418.596 109.525 463.585 64.5366 519.081 64.5366C574.578 64.5366 619.566 109.525 619.566 165.022ZM578.345 165.022C578.345 197.777 551.836 224.286 519.081 224.286C486.326 224.286 459.817 197.777 459.817 165.022C459.817 132.267 486.326 105.758 519.081 105.758C551.836 105.758 578.345 132.267 578.345 165.022Z" fill="#9C5789"/>
<path fill-rule="evenodd" clip-rule="evenodd" d="M409.297 165.022V164.189C409.436 163.912 409.436 163.495 409.436 163.218V20.6786C409.436 9.71402 400.414 0.692558 389.45 0.692558C386.822 0.68154 384.218 1.19097 381.788 2.19146C379.358 3.19195 377.151 4.66369 375.293 6.52176C373.435 8.37983 371.963 10.5874 370.962 13.0172C369.962 15.447 369.453 18.0509 369.464 20.6786V84.8003C352.531 72.1703 331.573 64.5367 308.812 64.5367C253.295 64.5367 208.326 109.505 208.326 165.022C208.326 220.539 253.295 265.507 308.812 265.507C364.328 265.507 409.297 220.539 409.297 165.022ZM368.076 165.022C368.076 197.753 341.542 224.286 308.812 224.286C276.081 224.286 249.548 197.753 249.548 165.022C249.548 132.291 276.081 105.758 308.812 105.758C341.542 105.758 368.076 132.291 368.076 165.022Z" fill="#9C5789"/>
<path fill-rule="evenodd" clip-rule="evenodd" d="M200.97 164.744C200.97 220.24 155.982 265.229 100.485 265.229C44.9888 265.229 0 220.24 0 164.744C0 109.248 44.9888 64.2588 100.485 64.2588C155.982 64.2588 200.97 109.248 200.97 164.744ZM158.778 165.16C158.778 197.891 132.244 224.424 99.5137 224.424C66.7831 224.424 40.2497 197.891 40.2497 165.16C40.2497 132.43 66.7831 105.896 99.5137 105.896C132.244 105.896 158.778 132.43 158.778 165.16Z" fill="#9C5789"/>
</svg>
