<svg viewBox="0 0 693 137" fill="none" xmlns="http://www.w3.org/2000/svg">
<path d="M102.93 32.8847V57.8229C102.93 77.7082 93.0685 87.8546 52.6866 87.8546H42.255V133.819H0.202393V2.77148H52.6866C93.0685 2.77148 102.93 12.9586 102.93 32.8847ZM60.9178 34.1072C60.9178 30.8473 58.7174 29.6248 52.7681 29.6248H42.255V61.0827H52.6866C58.7174 61.0827 60.8363 59.9418 60.8363 56.5596L60.9178 34.1072Z" fill="#8430D9"/>
<path d="M168.372 111.978H142.822L138.748 133.9H97.6322L131.983 2.77148H180.433L214.988 133.819H172.161L168.372 111.978ZM163.726 85.3282L156.188 41.2789L147.834 85.3282H163.726Z" fill="#8430D9"/>
<path d="M300.601 29.6248H272.811V133.819H230.799V29.6248H203.008V2.77148H300.805L300.601 29.6248Z" fill="#8430D9"/>
<path d="M371.381 133.819L358.79 87.8546H353.004V133.819H311.073V2.77148H363.558C403.939 2.77148 413.719 12.9586 413.719 32.8847V57.8229C413.719 69.3547 410.378 77.6267 399.742 82.5573L414.86 133.819H371.381ZM353.044 61.0827H363.476C369.466 61.0827 371.626 59.9418 371.626 56.5596V34.1072C371.626 30.8473 369.385 29.6248 363.476 29.6248H353.044V61.0827Z" fill="#8430D9"/>
<path d="M469.056 2.77148V133.819H427.085V2.77148H469.056Z" fill="#8430D9"/>
<path d="M586.982 32.1103V104.561C586.982 124.61 576.551 136.019 534.254 136.019C491.957 136.019 481.484 124.61 481.484 104.561V32.1103C481.484 12.062 491.957 0.652344 534.213 0.652344C576.469 0.652344 586.982 11.9805 586.982 32.1103ZM534.254 28.0354C526.104 28.0354 523.537 29.6654 523.537 33.4957V103.298C523.537 107.373 525.941 108.758 534.254 108.758C542.566 108.758 544.97 107.169 544.97 103.298V33.3735C544.97 29.5024 542.526 27.8724 534.213 27.8724L534.254 28.0354Z" fill="#8430D9"/>
<path d="M692.929 29.6248H665.179V133.819H623.126V29.6248H595.376V2.77148H692.929V29.6248Z" fill="#8430D9"/>
</svg>
