<svg viewBox="0 0 952 265" fill="none" xmlns="http://www.w3.org/2000/svg">
<path d="M946.517 138.928C946.517 137.124 944.713 136.402 943.089 136.402H940.022V145.423H941.646V141.815H942.908L944.893 145.423H946.878L944.532 141.454C945.09 141.367 945.598 141.082 945.962 140.652C946.327 140.221 946.524 139.673 946.517 139.109V138.928ZM941.646 140.372V137.846H943.089C943.991 137.846 944.893 138.026 944.893 139.109C944.893 140.191 943.811 140.372 942.908 140.372H941.646ZM943.089 133.154C941.519 133.191 939.996 133.691 938.711 134.593C937.426 135.495 936.437 136.758 935.869 138.221C935.302 139.685 935.181 141.284 935.522 142.817C935.864 144.349 936.652 145.746 937.787 146.831C938.922 147.915 940.353 148.639 941.899 148.91C943.446 149.182 945.038 148.988 946.474 148.355C947.911 147.722 949.127 146.677 949.97 145.352C950.812 144.027 951.243 142.482 951.208 140.913C951.208 139.855 950.997 138.808 950.587 137.833C950.177 136.857 949.576 135.974 948.819 135.234C948.063 134.495 947.167 133.914 946.182 133.526C945.198 133.138 944.147 132.95 943.089 132.974V133.154ZM943.089 147.589C941.725 147.588 940.393 147.181 939.262 146.419C938.131 145.658 937.252 144.576 936.739 143.313C936.226 142.049 936.101 140.662 936.381 139.327C936.66 137.992 937.331 136.771 938.308 135.82C939.285 134.869 940.524 134.23 941.865 133.987C943.207 133.743 944.591 133.905 945.84 134.451C947.089 134.998 948.147 135.905 948.878 137.056C949.61 138.207 949.981 139.55 949.945 140.913C949.945 142.731 949.223 144.475 947.937 145.761C946.651 147.047 944.907 147.769 943.089 147.769V147.589ZM427.069 134.417C415.342 134.417 409.388 123.772 409.388 113.668C409.388 103.565 415.883 93.4606 426.528 93.4606C431.58 93.4606 437.895 95.9866 440.421 99.5951L452.69 87.1457C449.224 83.8008 445.124 81.1835 440.631 79.4482C436.138 77.7129 431.342 76.8947 426.528 77.0418C404.877 77.0418 389.18 92.5585 389.18 113.849C389.18 135.5 404.696 150.836 427.069 150.836C437.534 150.836 447.277 147.769 453.051 141.454L440.962 128.463C439.166 130.339 437.01 131.833 434.623 132.857C432.235 133.88 429.666 134.411 427.069 134.417ZM357.605 148.852H377.091V79.0265H357.786L357.605 148.852ZM322.422 117.277C322.422 125.396 317.009 134.237 307.266 134.237C299.508 134.237 295.358 128.824 295.358 117.457V79.207H276.052V122.509C276.052 136.943 283.269 151.017 302.575 151.017C311.596 151.017 319.174 143.8 322.963 138.387H323.324V149.032H341.728V79.0265H322.422V117.277ZM241.23 87.8674H240.869C238.163 84.8002 230.765 77.0418 218.857 77.0418C199.191 77.0418 184.035 92.3781 184.035 113.668C184.035 135.32 198.108 150.836 217.955 150.836C222.2 150.706 226.374 149.71 230.221 147.911C234.068 146.112 237.507 143.546 240.328 140.372H240.689V183.133H259.814V79.0265H241.411L241.23 87.8674ZM222.646 134.417C210.738 134.417 203.882 123.953 203.882 113.668C203.882 103.745 210.016 93.2802 222.646 93.2802C234.013 93.2802 241.05 104.106 241.05 113.849C241.05 123.592 234.193 134.417 222.646 134.417ZM661.624 77.0418C639.792 77.0418 623.734 92.3781 623.734 113.668C623.734 135.68 639.973 151.017 661.624 151.017C683.275 151.017 699.513 135.5 699.513 113.668C699.513 92.3781 683.636 77.0418 661.624 77.0418ZM661.624 134.417C648.994 134.417 643.401 123.592 643.401 113.668C643.401 103.745 649.174 93.2802 661.624 93.2802C674.073 93.2802 680.208 103.745 680.208 113.668C680.208 123.592 674.434 134.417 661.804 134.417H661.624ZM902.673 105.91C892.75 103.565 889.141 102.302 889.141 98.1517C889.141 92.7389 896.358 91.476 899.426 91.476C905.38 91.476 912.056 95.0845 914.762 98.3322L926.129 87.5066C920.716 81.0112 910.432 77.2223 899.606 77.2223C885.533 77.2223 870.918 84.2589 870.918 99.7756C870.918 113.308 881.563 117.277 891.848 119.803C902.673 122.329 906.643 124.133 906.643 128.644C906.643 134.959 899.426 136.041 896.719 136.041C893.398 135.887 890.14 135.074 887.135 133.649C884.13 132.224 881.439 130.216 879.218 127.742L867.49 139.65C873.805 146.867 884.811 151.017 895.998 151.017C914.942 151.017 926.129 141.995 926.129 127.2C926.129 113.127 912.416 108.256 902.673 105.91ZM866.047 79.0265H841.148L816.249 107.895H815.888V40.5957H796.583V148.852H815.888V114.571H816.249L842.05 148.852H867.31L837.359 110.782L866.047 79.0265ZM580.251 77.2223C571.23 77.2223 564.915 80.8308 558.6 86.6044H558.42V40.5957H539.114V148.852H557.518V138.928H557.878C560.253 142.547 563.493 145.515 567.306 147.563C571.118 149.611 575.382 150.674 579.71 150.656C599.557 150.656 614.713 135.139 614.713 113.668C614.713 92.3781 599.918 77.0418 580.251 77.0418V77.2223ZM576.462 134.417C564.735 134.417 557.878 123.953 557.878 113.849C557.878 103.745 565.096 93.2802 576.462 93.2802C588.912 93.2802 595.046 103.745 595.046 113.668C595.046 123.953 588.371 134.417 576.462 134.417ZM531.897 79.0265H506.998L482.099 107.895H481.739V40.5957H462.433V148.852H481.739V114.571H482.099L507.9 148.852H533.16L503.39 110.782L531.897 79.0265ZM746.244 77.2223C724.232 77.2223 708.354 92.5585 708.354 113.668C708.354 135.68 724.593 151.017 746.244 151.017C767.895 151.017 784.133 135.5 784.133 113.668C784.133 92.3781 768.075 77.0418 746.244 77.0418V77.2223ZM746.244 134.417C733.614 134.417 727.84 123.592 727.84 113.668C727.84 103.745 733.614 93.2802 746.244 93.2802C758.874 93.2802 764.467 103.745 764.467 113.668C764.467 123.592 758.693 134.417 746.244 134.417Z" fill="black"/>
<path d="M81.1919 162.384C126.033 162.384 162.384 126.033 162.384 81.1919C162.384 36.3508 126.033 0 81.1919 0C36.3508 0 0 36.3508 0 81.1919C0 126.033 36.3508 162.384 81.1919 162.384Z" fill="#2CA01C"/>
<path d="M22.5532 81.1916C22.5532 89.5657 25.8798 97.5969 31.8012 103.518C37.7226 109.44 45.7537 112.766 54.1278 112.766H58.6385V101.039H54.1278C48.8641 101.039 43.816 98.9475 40.094 95.2255C36.3719 91.5035 34.2809 86.4553 34.2809 81.1916C34.2809 75.9279 36.3719 70.8798 40.094 67.1577C43.816 63.4357 48.8641 61.3447 54.1278 61.3447H64.9534V122.69C64.9534 124.23 65.2568 125.755 65.8462 127.178C66.4355 128.601 67.2994 129.893 68.3884 130.982C69.4774 132.071 70.7703 132.935 72.1931 133.525C73.616 134.114 75.141 134.417 76.6812 134.417V49.617H54.1278C45.7537 49.617 37.7226 52.9436 31.8012 58.865C25.8798 64.7864 22.5532 72.8175 22.5532 81.1916ZM108.256 49.617H103.745V61.3447H108.256C113.52 61.3447 118.568 63.4357 122.29 67.1577C126.012 70.8798 128.103 75.9279 128.103 81.1916C128.103 86.4553 126.012 91.5035 122.29 95.2255C118.568 98.9475 113.52 101.039 108.256 101.039H97.4302V39.6935C97.4302 36.5832 96.1946 33.6002 93.9952 31.4008C91.7959 29.2014 88.8129 27.9658 85.7025 27.9658V112.766H108.256C112.402 112.766 116.508 111.95 120.339 110.363C124.17 108.776 127.65 106.45 130.582 103.518C133.514 100.586 135.84 97.1055 137.427 93.2747C139.014 89.4439 139.83 85.3381 139.83 81.1916C139.83 77.0452 139.014 72.9393 137.427 69.1085C135.84 65.2777 133.514 61.797 130.582 58.865C127.65 55.933 124.17 53.6072 120.339 52.0205C116.508 50.4337 112.402 49.617 108.256 49.617Z" fill="white"/>
<path d="M263.423 18.5837C264.493 18.5837 265.54 18.2662 266.43 17.6714C267.32 17.0767 268.014 16.2313 268.423 15.2422C268.833 14.2532 268.94 13.1649 268.731 12.1149C268.523 11.0649 268.007 10.1004 267.25 9.34344C266.493 8.58644 265.529 8.07092 264.479 7.86207C263.429 7.65322 262.34 7.76041 261.351 8.17009C260.362 8.57977 259.517 9.27354 258.922 10.1637C258.327 11.0538 258.01 12.1003 258.01 13.1709C258.01 14.6064 258.58 15.9832 259.595 16.9983C260.61 18.0134 261.987 18.5837 263.423 18.5837ZM231.487 22.1922C229.241 22.1891 227.038 22.8121 225.125 23.9913C223.213 25.1705 221.668 26.8592 220.662 28.868H220.301V23.0943H212.001V58.6383H220.842V39.1523C220.842 34.4612 223.548 29.5897 229.142 29.5897C234.735 29.5897 235.817 34.822 235.817 38.9718V58.8187H244.658V36.2654C244.658 29.0484 240.869 21.8313 231.487 21.8313V22.1922ZM193.958 58.6383H202.98V23.0943H193.958V58.6383ZM355.44 18.4032C356.511 18.4032 357.557 18.0858 358.447 17.491C359.337 16.8962 360.031 16.0509 360.441 15.0618C360.851 14.0728 360.958 12.9844 360.749 11.9344C360.54 10.8845 360.025 9.92 359.268 9.16301C358.511 8.40602 357.546 7.8905 356.496 7.68164C355.446 7.47279 354.358 7.57998 353.369 7.98966C352.38 8.39934 351.534 9.09312 350.94 9.98325C350.345 10.8734 350.027 11.9199 350.027 12.9904C350.027 14.426 350.598 15.8028 351.613 16.8179C352.628 17.8329 354.005 18.4032 355.44 18.4032ZM341.006 23.0943V31.0331H350.929V58.6383H359.951V31.0331H369.874V23.0943H341.006ZM325.85 58.6383H334.872V23.0943H325.85V58.6383ZM249.169 31.0331H259.092V58.6383H268.114V31.0331H278.037V23.0943H249.169V31.0331ZM307.988 42.7608C307.988 47.4519 305.282 52.3234 299.688 52.3234C294.095 52.3234 293.013 46.9106 293.013 42.7608V23.0943H283.991V45.2868C283.991 52.5038 287.961 59.7209 297.162 59.7209C299.439 59.7578 301.681 59.1508 303.628 57.9697C305.575 56.7887 307.149 55.0816 308.168 53.0451H308.349V58.8187H316.829V23.0943H307.808V42.5804L307.988 42.7608Z" fill="black"/>
<path d="M706.04 226.887C706.04 238.731 703.037 248.044 697.03 254.826C691.058 261.609 682.74 265 672.077 265C661.178 265 652.759 261.676 646.82 255.029C640.915 248.348 637.962 238.933 637.962 226.786C637.962 214.739 640.932 205.409 646.871 198.795C652.81 192.148 661.245 188.824 672.178 188.824C682.808 188.824 691.108 192.199 697.081 198.947C703.054 205.696 706.04 215.009 706.04 226.887ZM647.073 226.887C647.073 236.909 649.199 244.518 653.451 249.714C657.736 254.877 663.945 257.458 672.077 257.458C680.277 257.458 686.469 254.877 690.653 249.714C694.837 244.552 696.929 236.942 696.929 226.887C696.929 216.933 694.837 209.391 690.653 204.262C686.502 199.099 680.344 196.518 672.178 196.518C663.979 196.518 657.736 199.116 653.451 204.312C649.199 209.475 647.073 217 647.073 226.887Z" fill="black"/>
<path d="M759.287 263.988V228.102C759.287 223.58 758.258 220.206 756.2 217.979C754.141 215.751 750.919 214.638 746.532 214.638C740.728 214.638 736.477 216.207 733.777 219.345C731.078 222.483 729.728 227.663 729.728 234.884V263.988H721.326V208.513H728.159L729.525 216.106H729.93C731.651 213.373 734.064 211.264 737.168 209.779C740.273 208.26 743.731 207.501 747.544 207.501C754.226 207.501 759.253 209.121 762.628 212.36C766.002 215.566 767.689 220.712 767.689 227.798V263.988H759.287Z" fill="black"/>
<path d="M793.402 263.988H785V185.23H793.402V263.988Z" fill="black"/>
<path d="M819.621 263.988H811.219V208.513H819.621V263.988ZM810.51 193.481C810.51 191.557 810.982 190.157 811.927 189.28C812.872 188.369 814.053 187.913 815.47 187.913C816.82 187.913 817.984 188.369 818.963 189.28C819.941 190.191 820.43 191.591 820.43 193.481C820.43 195.37 819.941 196.788 818.963 197.732C817.984 198.644 816.82 199.099 815.47 199.099C814.053 199.099 812.872 198.644 811.927 197.732C810.982 196.788 810.51 195.37 810.51 193.481Z" fill="black"/>
<path d="M875.399 263.988V228.102C875.399 223.58 874.369 220.206 872.311 217.979C870.253 215.751 867.03 214.638 862.644 214.638C856.84 214.638 852.588 216.207 849.889 219.345C847.189 222.483 845.839 227.663 845.839 234.884V263.988H837.437V208.513H844.27L845.637 216.106H846.042C847.763 213.373 850.175 211.264 853.28 209.779C856.384 208.26 859.843 207.501 863.656 207.501C870.337 207.501 875.365 209.121 878.739 212.36C882.114 215.566 883.801 220.712 883.801 227.798V263.988H875.399Z" fill="black"/>
<path d="M924.546 265C916.346 265 909.868 262.503 905.11 257.509C900.386 252.515 898.024 245.581 898.024 236.706C898.024 227.764 900.217 220.661 904.604 215.397C909.024 210.133 914.946 207.501 922.37 207.501C929.321 207.501 934.821 209.796 938.87 214.385C942.919 218.94 944.944 224.963 944.944 232.455V237.769H906.73C906.898 244.282 908.535 249.225 911.639 252.599C914.777 255.974 919.181 257.661 924.85 257.661C930.822 257.661 936.728 256.412 942.565 253.915V261.406C939.596 262.689 936.778 263.6 934.112 264.14C931.48 264.713 928.292 265 924.546 265ZM922.268 214.537C917.814 214.537 914.254 215.988 911.589 218.89C908.957 221.792 907.404 225.807 906.932 230.936H935.935C935.935 225.638 934.754 221.589 932.391 218.788C930.029 215.954 926.655 214.537 922.268 214.537Z" fill="black"/>
</svg>
