<svg viewBox="0 0 807 146" fill="none" xmlns="http://www.w3.org/2000/svg">
<g clip-path="url(#clip0_18_214)">
<path d="M806.456 89.9892C806.456 62.2521 806.456 34.5151 806.456 6.77801C806.456 3.9748 807.017 0.0503007 802.678 0.256853C798.34 0.463406 799.491 4.50593 799.432 7.22062C799.432 16.0729 799.432 24.9251 799.432 34.9872C789.308 29.7053 779.775 27.4628 770.124 31.3578C754.806 37.5543 752.593 50.0655 752.416 65.2324C752.349 69.8965 752.895 74.5492 754.039 79.0714C758.732 97.8086 776.883 101.615 792.821 94.0022C795.152 92.8809 797.454 89.163 800.317 92.8809C801.527 94.4743 802.147 96.7169 804.567 95.8317C806.987 94.9464 806.427 92.0842 806.456 89.9892ZM790.637 88.6023C774.256 95.7431 763.661 90.9334 760.178 73.6125C758.053 62.9898 758.171 52.1015 765.195 42.7477C771.748 33.8954 791.522 33.5708 798.192 41.9214C799.268 43.5679 799.689 45.5572 799.373 47.4984C799.373 52.6327 799.373 57.767 799.373 62.9013C799.122 67.058 799.122 71.2262 799.373 75.3829C800.317 82.5238 796.569 86.0352 790.637 88.6023Z" fill="#979A9B"/>
<path d="M530.677 45.9347C530.799 38.0046 530.026 30.086 528.375 22.3287C524.951 9.10933 515.684 2.79472 506.475 1.73245C493.224 0.227572 482.864 5.80449 478.319 18.1091C470.616 38.4988 471.118 59.4196 477.05 80.0749C478.028 84.5589 480.408 88.6151 483.847 91.6552C487.286 94.6953 491.604 96.5613 496.175 96.9827C508.158 98.3695 518.694 96.186 524.892 84.2354C530.677 73.1996 531.002 61.3081 530.677 45.9347ZM520.199 79.2192C515.861 89.2812 510.696 91.9369 500.012 91.3762C496.042 91.2908 492.219 89.8606 489.168 87.3197C486.117 84.7789 484.02 81.2778 483.218 77.3897C477.713 58.9337 477.929 39.2431 483.838 20.9123C486.967 11.4994 495.024 6.83725 505.059 7.54543C513.352 8.13558 519.816 14.7453 522.088 24.2467C524.169 32.5757 524.995 41.1685 524.538 49.7412C525.451 59.7721 523.964 69.8762 520.199 79.2192Z" fill="#8C8F90"/>
<path d="M441.338 3.20762C446.001 3.20762 450.694 3.20762 455.357 3.20762C457.718 3.20762 460.965 2.7355 461.083 6.15837C461.201 9.58124 457.807 9.10912 455.564 9.10912C447.713 9.10912 439.833 9.10912 431.952 9.10912C428.588 9.10912 426.286 9.78779 426.049 13.8008C425.371 21.5908 424.397 29.3808 423.6 37.1708C423.128 41.951 424.515 42.6296 428.971 40.4756C446.68 31.8004 467.9 40.3281 467.34 63.3734C467.53 69.5077 466.528 75.6206 464.388 81.373C460.02 91.6121 450.428 97.3366 436.97 97.2185C425.164 97.2185 417.018 92.0842 413.536 83.0844C412.739 80.9009 411.086 78.3337 414.214 76.9764C417.343 75.619 418.464 78.1567 419.793 80.3107C426.138 90.6679 431.126 93.176 442.991 91.1105C452.347 89.3695 457.098 82.8779 459.43 74.0256C463.385 59.4784 457.511 46.0525 445.883 43.3968C442.511 42.7186 439.035 42.7569 435.679 43.5093C432.323 44.2617 429.163 45.7113 426.404 47.7639C424.161 49.2393 421.947 51.4229 419.084 49.918C416.221 48.4131 417.284 45.0788 417.431 42.6001C418.258 31.0922 419.379 19.6433 420.176 8.13537C420.442 4.38792 422.331 3.20762 425.872 3.20762C431.008 3.41417 436.173 3.20762 441.338 3.20762Z" fill="#8D9091"/>
<path d="M673.289 41.9507C667.386 31.151 657.292 28.9379 646.136 29.9411C641.073 30.1038 636.167 31.7399 632.02 34.6488C627.873 37.5577 624.666 41.6131 622.79 46.3178C619.743 54.3783 618.838 63.0911 620.163 71.6057C622.082 89.1037 631.231 97.4248 650.032 97.2773C654.136 97.804 658.305 97.1479 662.048 95.3863C665.792 93.6247 668.954 90.8308 671.164 87.3332C675.442 80.6093 677.888 72.8846 678.261 64.9244C678.634 56.9642 676.92 49.0448 673.289 41.9507ZM669.157 76.9761C667.711 86.0644 659.181 91.5528 648.143 91.4348C637.931 91.4348 631.822 87.1857 628.368 77.2122C624.977 68.1808 625.114 58.2035 628.752 49.2686C633.032 39.177 642.565 34.3673 653.987 36.0197C662.841 37.318 667.652 43.4261 669.895 54.4029C671.042 61.9085 670.792 69.5614 669.157 76.9761Z" fill="#8D9091"/>
<path d="M731.668 89.4874C723.728 94.2676 715.523 98.3396 705.636 97.2183C701.576 97.0687 697.71 95.442 694.764 92.6438C691.819 89.8456 689.996 86.0685 689.64 82.022C687.957 66.8551 689.079 51.6587 688.784 36.4624C688.784 34.0133 688.784 31.0625 692.237 31.0625C695.69 31.0625 695.601 34.0133 695.601 36.4624C695.601 49.9473 695.601 63.4322 695.601 76.9172C695.601 86.8612 701.18 91.6709 711.008 91.0808C715.666 90.7029 720.201 89.3988 724.348 87.2448C727.208 86.1645 729.618 84.1466 731.183 81.5205C732.749 78.8944 733.377 75.8154 732.966 72.7861C732.228 61.3077 732.701 49.7408 732.966 38.2328C732.966 35.4886 731.992 31.3281 736.242 31.2986C740.492 31.2691 739.636 35.6952 739.666 38.2033C739.941 54.8849 739.941 71.6058 739.666 88.3661C739.666 91.0218 740.463 95.1528 736.714 95.861C732.966 96.5692 734.088 91.1988 731.668 89.4874Z" fill="#8F9293"/>
<path d="M565.149 97.3367C550.009 97.3367 542.217 91.4352 538.232 76.6814C536.408 70.9179 535.823 64.834 536.514 58.8284C537.206 52.8228 539.159 47.0312 542.246 41.8331C551.484 26.8138 575.095 24.9843 585.986 38.2627C586.606 39.0299 587.58 39.7085 587.727 40.5643C588.377 44.0461 592.686 48.4428 587.462 50.8034C582.238 53.164 583.153 47.3805 581.736 44.9019C580.543 42.0558 578.506 39.6441 575.898 37.9925C573.291 36.3409 570.24 35.5289 567.156 35.666C557.564 35.666 549.92 39.443 546.496 48.0592C542.505 58.2355 542.611 69.5616 546.791 79.6617C549.92 87.7763 556.797 91.3172 565.503 91.3172C573.561 91.3172 579.877 88.75 582.976 80.665C583.802 78.5699 585.189 76.3569 587.875 77.5667C590.561 78.7765 590.03 81.4912 589.144 83.9403C586.134 92.3204 577.22 97.3367 565.149 97.3367Z" fill="#909394"/>
<path d="M601.57 48.767C601.57 34.7804 601.57 20.7939 601.57 6.8073C601.57 3.85655 600.979 0.138603 605.406 0.345155C609.273 0.492693 608.594 4.0631 608.594 6.63025C608.594 34.1706 608.594 61.7109 608.594 89.2513C608.594 92.0545 609.332 95.92 604.993 96.038C600.655 96.156 601.629 92.025 601.599 89.4283C601.511 75.7958 601.57 62.2224 601.57 48.767Z" fill="#8F9393"/>
</g>
<path d="M332.309 0.259277C302.916 0.259277 283.724 20.3943 283.724 53.6842C283.724 95.0281 313.116 106.841 334.188 106.841C350.025 106.841 365.056 100.397 375.927 88.9876L362.372 75.43C355.125 81.8732 346.804 85.766 334.456 85.766C318.082 85.766 307.077 76.2355 307.077 63.0806H380.088C379.954 62.9461 392.704 0.259277 332.309 0.259277ZM307.077 45.0932C307.077 27.3744 320.498 18.9178 334.859 18.9178C349.219 18.9178 362.238 27.6429 362.238 45.0932H307.077Z" fill="#00DC06"/>
<path d="M63.4829 43.3477C54.0881 42.1396 27.1116 43.2138 27.1116 30.864C27.1116 23.6154 38.5195 19.5884 48.8538 19.5884C59.8592 19.4539 70.5961 22.5416 79.7225 28.4479L93.8147 14.4875C89.6542 11.1317 74.2198 0.258789 48.8538 0.258789C25.7694 0.258789 4.96663 12.3398 4.96663 31.6694C4.96663 61.335 40.8011 61.335 55.6986 62.8116C64.825 63.7512 73.0119 64.2881 73.0119 73.1475C73.0119 81.47 60.396 86.034 50.5986 86.034C34.6274 86.034 25.0984 80.7989 15.7036 72.3422L0.671875 87.5106C13.6904 100.128 31.2721 106.974 49.3907 106.84C76.233 106.84 95.6937 95.0276 95.6937 71.2683C95.6937 55.563 85.091 46.1666 63.4829 43.3477Z" fill="#00DC06"/>
<path d="M140.52 0.259428C125.623 0.124983 110.994 5.22608 99.3174 14.4882L113.41 28.5827C121.328 22.6764 130.857 19.589 140.655 19.7233C158.505 19.7233 163.873 26.8376 163.873 34.8917V44.9592H132.065C120.254 44.9592 97.17 47.9123 97.17 73.8194C97.17 92.8806 108.041 106.841 134.078 106.841C147.097 106.841 157.028 102.68 163.873 94.4913V104.827H186.958V36.5025C186.958 12.6089 172.329 0.259428 140.52 0.259428ZM164.007 67.5104C164.007 87.2428 149.915 86.1689 137.434 86.1689C124.952 86.1689 116.631 82.813 116.631 73.9536C116.631 65.7654 123.207 62.9465 136.897 62.9465H164.007V67.5104Z" fill="#00DC06"/>
<path d="M258.224 2.40705V13.8168C250.305 4.82318 240.91 0.259277 228.16 0.259277C206.284 0.259277 195.01 12.4746 191.252 25.6294C189.776 30.4618 189.373 39.724 189.373 53.4158C189.373 66.3022 189.507 78.1147 193.936 87.1084C200.244 99.7263 215.41 106.841 228.16 106.841C240.508 106.841 250.976 102.008 258.224 93.6858V100.129C258.224 107.646 255.674 112.613 250.842 116.505C246.01 120.398 239.971 122.814 231.516 122.814C223.866 122.814 216.618 118.653 212.458 115.7L196.889 131.271C206.955 139.459 218.9 144.963 231.918 145.097C244.4 145.366 256.613 141.339 266.411 133.419C275.671 126.17 281.577 112.344 281.577 97.847V2.40705H258.224ZM258.224 53.4158C258.224 61.3355 258.089 67.2418 257.418 70.3291C255.942 76.9066 248.426 85.6318 234.737 85.6318C231.247 85.6318 213.8 83.6182 211.787 68.4498C211.25 63.4832 210.981 58.3824 211.115 53.4158C211.115 41.6032 211.652 37.8446 212.189 34.8915C213.397 28.9852 221.181 20.1258 234.737 20.1258C251.245 20.1258 256.613 31.4014 257.418 35.8312C258.09 41.6032 258.358 47.5095 258.224 53.4158Z" fill="#00DC06"/>
<defs>
<clipPath id="clip0_18_214">
<rect width="394.131" height="97.4338" fill="white" transform="translate(412.385 0.256836)"/>
</clipPath>
</defs>
</svg>
