<svg viewBox="0 0 995 265" fill="none" xmlns="http://www.w3.org/2000/svg">
<path d="M24.8086 210.248L26.2998 210.745C44.3597 216.544 63.4137 207.266 69.047 190.366L89.2608 124.423C94.7285 107.523 84.6216 88.9655 66.5617 83.1665L65.0705 82.6695C47.0107 76.8704 27.9567 86.1489 22.3233 103.049L1.94384 168.992C-3.35814 185.892 6.74876 204.449 24.8086 210.248Z" fill="#084F99"/>
<path d="M241.03 23.3534C244.675 14.4063 251.634 7.28174 260.25 3.13957C260.747 2.97389 261.078 2.80819 261.575 2.64251C261.741 2.47682 262.072 2.47682 262.238 2.31114C269.031 -0.339852 276.653 -0.836912 283.943 1.4827L285.434 1.97977C303.494 7.77881 312.938 28.1583 306.642 47.5436L257.267 214.059C244.344 252.333 203.585 272.215 168.293 262.274C168.293 262.274 158.849 259.457 154.873 256.64C190.164 249.185 234.071 40.2534 241.03 23.3534Z" fill="#5EB7FF"/>
<path d="M30.442 232.119L31.9332 232.616C39.3891 234.935 47.1764 235.267 54.798 233.444C55.9578 233.278 57.1176 232.947 58.2774 232.45C72.6922 227.811 85.2844 216.047 90.5864 199.644L129.026 73.0592C135.322 53.8395 155.204 42.7385 173.098 48.3718L174.59 48.8689C192.649 54.6679 202.094 75.0474 195.798 94.4328C195.798 94.4328 159.346 214.39 154.21 224.497C116.931 291.932 47.0107 258.96 27.1283 230.793C28.1224 231.29 29.2822 231.787 30.442 232.119Z" fill="#1479FB"/>
<path d="M854.403 100.066L854.568 99.4037C854.568 98.9067 854.403 98.4096 854.237 98.0782C853.243 96.0899 847.609 92.1135 838.497 91.2851C837.668 91.2851 836.84 91.1194 836.177 91.1194C829.715 91.1194 822.591 93.7703 821.1 96.587L820.934 96.9184L783.82 188.212L748.032 96.587C746.54 93.7703 738.09 90.788 731.794 90.788C731.463 90.788 730.8 90.788 730.303 90.788C729.309 90.788 728.481 90.6223 727.487 90.788C718.539 91.7821 715.391 95.5929 714.232 97.7468C714.066 98.2439 713.9 98.5753 713.9 99.0723V99.7351C715.391 103.38 763.938 224.497 766.589 231.125L766.754 231.29C768.577 233.279 777.855 236.261 783.82 236.261C789.785 236.261 798.566 234.107 800.389 231.953L800.554 231.788L854.403 100.563C854.237 100.398 854.403 100.066 854.403 100.066ZM671.816 184.07C671.816 193.514 669.496 200.307 665.188 203.124C661.543 205.278 654.584 207.929 642.323 207.929H640.998C630.56 207.929 622.441 205.94 616.808 202.13C612.5 199.147 610.015 195.005 610.015 190.697C610.015 177.774 617.305 175.454 639.01 174.957H671.816V184.07ZM701.971 230.959C702.136 230.628 702.302 230.131 702.302 229.634V137.843C702.136 120.446 696.503 108.019 685.568 100.895C675.129 94.1017 661.046 90.788 643.815 90.788H640.832C618.63 90.788 598.582 98.7409 588.475 111.333C588.31 111.499 588.144 111.83 588.144 112.162C586.984 115.807 591.789 121.44 596.925 125.085C601.399 128.233 606.038 130.387 609.352 130.387C610.015 130.221 612.997 128.233 613.66 127.736C616.973 124.588 626.252 116.967 638.347 116.801L643.649 116.635C653.756 116.635 663.531 121.274 668.005 125.748C670.656 128.399 671.981 131.878 671.816 136.352V149.938H627.909C612.666 150.104 600.902 154.246 592.949 162.365C584.996 170.318 580.854 180.425 580.854 192.354C580.854 204.946 585.493 215.384 594.606 223.337C603.718 231.953 622.607 235.93 637.519 236.095C647.128 236.095 654.916 234.936 660.383 232.45C663.697 231.125 666.679 229.302 668.999 226.983L671.65 224.332V229.634C671.65 230.131 671.816 230.628 671.981 230.959C673.638 234.438 680.929 235.93 686.893 235.93C692.858 235.93 700.48 234.438 701.971 230.959ZM892.014 145.796C893.836 132.044 898.144 126.079 903.943 121.274C910.073 116.469 917.364 115.31 927.968 114.978C936.915 114.647 948.181 118.458 953.318 123.428C958.288 128.565 961.271 135.855 962.099 145.465L962.265 147.122L891.682 147.619L892.014 145.796ZM991.26 212.734C992.254 208.923 987.283 203.124 982.313 199.479C978.005 196.331 973.366 194.342 969.721 194.177C967.732 194.177 966.407 195.171 966.076 195.502C957.294 203.455 947.519 207.432 936.583 207.432C926.808 207.432 909.908 204.118 903.446 197.822C896.984 192.023 893.008 183.407 892.511 174.128L892.345 172.472H894.002C894.83 172.472 985.295 173.797 986.786 173.797C988.278 173.797 989.603 173.134 990.597 171.975C994.739 167.501 994.905 155.075 994.408 148.447V148.281C994.242 128.73 987.946 113.156 976.017 102.055C963.59 90.6223 942.382 84.1605 920.512 85.3203C911.73 85.8174 904.937 86.9772 898.641 89.1311C891.019 91.7821 884.061 96.09 878.427 101.723C872.462 107.522 867.658 115.31 863.847 125.251C860.202 134.861 858.213 147.287 858.213 161.702C858.213 176.779 860.367 189.206 864.675 198.65C868.652 208.591 873.954 216.544 880.25 222.012C883.398 224.663 887.043 226.983 890.688 228.639C906.097 236.924 920.512 237.918 930.95 238.581H931.778C932.607 238.581 964.253 239.409 990.432 213.562C990.929 213.562 991.094 213.231 991.26 212.734ZM534.627 231.29C537.444 224.166 575.055 101.558 576.214 97.7468L576.38 96.9184C576.38 96.4213 576.214 95.9243 576.049 95.5929C575.386 94.2674 569.753 89.2968 559.977 88.137C558.983 87.9713 557.823 87.9713 556.663 87.9713C549.705 87.9713 542.249 90.4566 540.923 93.1076L540.757 93.439L514.248 186.886L479.95 93.1076C478.956 90.2909 472.163 87.6399 466.198 87.6399C460.068 87.6399 452.612 90.4566 451.618 93.1076L421.96 185.395L393.628 94.1017L393.462 93.6047C392.136 90.9537 384.68 87.8056 377.556 87.8056C376.893 87.8056 374.242 88.137 372.751 88.137L371.425 88.3027C362.147 89.1311 358.833 93.6047 358.005 95.4272C357.839 95.9243 357.673 96.4213 357.673 96.9184V97.2498V97.4154L401.58 231.125C402.906 234.107 413.841 236.095 420.8 236.095C427.925 236.095 439.523 234.273 441.677 231.29L467.192 146.956L497.513 231.125C498.839 234.107 509.774 236.095 516.733 236.095C524.354 236.095 533.301 234.439 534.627 231.29Z" fill="#2B2B2B"/>
</svg>
