<svg viewBox="0 0 265 266" fill="none" xmlns="http://www.w3.org/2000/svg">
<path d="M132.406 265.273C205.533 265.273 264.813 205.993 264.813 132.866C264.813 59.7395 205.533 0.458683 132.406 0.458683C59.2792 0.458683 -0.00158691 59.7395 -0.00158691 132.866C-0.00158691 205.993 59.2792 265.273 132.406 265.273Z" fill="#1AB4D7"/>
<path d="M63.3798 132.483L85.9762 109.831C86.7253 109.067 87.1434 108.056 87.1434 106.984C87.1434 104.75 85.3271 102.935 83.0927 102.935C82.0044 102.935 80.9841 103.362 80.2147 104.141C80.2124 104.145 57.6386 126.706 57.6386 126.706L34.9615 104.107C34.1953 103.352 33.1799 102.935 32.1033 102.935C29.8717 102.935 28.0549 104.749 28.0549 106.981C28.0549 108.07 28.4896 109.092 29.2698 109.861L51.8631 132.452L29.2816 155.075C28.4878 155.857 28.0549 156.881 28.0549 157.975C28.0549 160.208 29.8717 162.021 32.1033 162.021C33.1817 162.021 34.198 161.602 34.9615 160.838L57.6034 138.227L80.1593 160.756C80.9593 161.583 81.9913 162.023 83.0927 162.023C85.3248 162.023 87.1411 160.208 87.1411 157.975C87.1411 156.897 86.7235 155.884 85.9636 155.12L63.3798 132.483Z" fill="white"/>
<path d="M197.712 132.476C197.712 136.533 201.011 139.833 205.073 139.833C209.125 139.833 212.425 136.533 212.425 132.476C212.425 128.418 209.125 125.118 205.073 125.118C201.011 125.118 197.712 128.418 197.712 132.476Z" fill="white"/>
<path d="M183.758 132.48C183.758 120.732 193.315 111.173 205.065 111.173C216.809 111.173 226.368 120.732 226.368 132.48C226.368 144.225 216.809 153.78 205.065 153.78C193.315 153.78 183.758 144.225 183.758 132.48ZM175.377 132.48C175.377 148.847 188.695 162.164 205.065 162.164C221.434 162.164 234.759 148.847 234.759 132.48C234.759 116.11 221.434 102.79 205.065 102.79C188.695 102.79 175.377 116.11 175.377 132.48Z" fill="white"/>
<path d="M173.269 103.298L172.024 103.295C168.284 103.295 164.678 104.474 161.666 106.795C161.269 104.979 159.645 103.612 157.712 103.612C155.486 103.612 153.702 105.396 153.697 107.626C153.697 107.634 153.71 157.628 153.71 157.628C153.716 159.854 155.532 161.664 157.759 161.664C159.986 161.664 161.801 159.854 161.807 157.623C161.807 157.613 161.809 126.878 161.809 126.878C161.809 116.631 162.746 112.492 171.524 111.395C172.335 111.294 173.218 111.31 173.221 111.31C175.623 111.228 177.33 109.577 177.33 107.347C177.33 105.114 175.508 103.298 173.269 103.298Z" fill="white"/>
<path d="M95.5302 127.592C95.5302 127.481 95.5388 127.366 95.5442 127.252C97.8948 117.96 106.31 111.084 116.332 111.084C126.475 111.084 134.967 118.129 137.198 127.592H95.5302ZM145.489 126.828C143.744 118.568 139.222 111.783 132.335 107.425C122.269 101.034 108.977 101.388 99.2538 108.302C91.3229 113.944 86.7448 123.174 86.7448 132.682C86.7448 135.066 87.0322 137.472 87.6304 139.841C90.6251 151.621 100.753 160.539 112.827 162.017C116.41 162.451 119.897 162.243 123.509 161.308C126.612 160.553 129.615 159.294 132.382 157.521C135.253 155.675 137.653 153.241 139.976 150.327C140.023 150.273 140.07 150.226 140.117 150.17C141.73 148.17 141.431 145.325 139.659 143.968C138.164 142.822 135.655 142.358 133.68 144.886C133.256 145.491 132.783 146.113 132.261 146.735C130.692 148.47 128.744 150.15 126.41 151.454C123.44 153.041 120.056 153.947 116.458 153.968C104.682 153.837 98.3799 145.616 96.1384 139.749C95.7469 138.654 95.4451 137.517 95.2347 136.347C95.2072 136.128 95.187 135.916 95.1789 135.722C97.6137 135.722 137.438 135.715 137.438 135.715C143.232 135.593 146.35 131.504 145.489 126.828Z" fill="white"/>
</svg>
