<?xml version="1.0" encoding="utf-8"?>
<!-- Generator: Adobe Illustrator 26.2.1, SVG Export Plug-In . SVG Version: 6.00 Build 0)  -->
<svg version="1.1" id="Layer_1" xmlns="http://www.w3.org/2000/svg" xmlns:xlink="http://www.w3.org/1999/xlink" x="0px" y="0px"
	 viewBox="0 0 500 500" style="enable-background:new 0 0 500 500;" xml:space="preserve">
<style type="text/css">
	.st0{fill:none;}
	.st1{fill:url(#SVGID_1_);}
	.st2{fill:url(#Unnamed_Pattern);}
	.st3{fill:#FFFFFF;}
</style>
<pattern  y="500" width="500" height="499.4" patternUnits="userSpaceOnUse" id="Unnamed_Pattern" viewBox="0 -499.4 500 499.4" style="overflow:visible;">
	<g>
		<rect y="-499.4" class="st0" width="500" height="499.4"/>
		
			<linearGradient id="SVGID_1_" gradientUnits="userSpaceOnUse" x1="7942" y1="-8193.3057" x2="8442" y2="-8193.3057" gradientTransform="matrix(1 0 0 1 -7942 7943.6108)">
			<stop  offset="0" style="stop-color:#FAA51A"/>
			<stop  offset="1" style="stop-color:#F15A48"/>
		</linearGradient>
		<rect y="-499.4" class="st1" width="500" height="499.4"/>
	</g>
</pattern>
<g>
	<path class="st2" d="M475.5,500h-451C11,500,0,489,0,475.5v-451C0,11,11,0,24.5,0h451C489,0,500,11,500,24.5v451
		C500,489,489,500,475.5,500z"/>
	<g>
		<g>
			<g>
				<g>
					<path class="st3" d="M180.1,281.3l-5.9,8.7v79.4h38.2c-0.7-18.8-1.2-37.5-1.8-56.3C200.5,302.6,190.3,292.1,180.1,281.3z"/>
				</g>
				<g>
					<polygon class="st3" points="231.2,332.3 231.2,374.1 269.4,374.1 269.4,284.7 					"/>
				</g>
				<polygon class="st3" points="309.9,244.2 288,272 288,369.5 326.2,369.5 326.2,264.6 				"/>
			</g>
			<g>
				<g>
					<path class="st3" d="M460.7,146.8l-56.6,1.8c-6-9-12.7-17.8-20.4-25.6c4.2-15.4,13.1-47.9,13.1-47.9c1.7-6.2-1-12.7-6.7-15.9
						l-48.7-27.6c-5.7-3.2-12.7-2-17.1,2.7L290,70.5c-10.6-2.3-21.4-3.7-32.3-4l-27.8-49.2c-3.2-5.5-9.7-8.2-15.9-6.5l-54.1,15.2
						c-6.2,1.7-10.4,7.5-10.2,13.9c0,0,1.3,39.5,1.8,56.6c-9.7,6.4-18.8,13.6-27,21.8l-49.9-13.6c-6.2-1.7-12.7,1-15.9,6.7
						l-27.5,48.9c-3.2,5.7-2,12.7,2.5,17.1l38.7,36.5c-1.8,9.5-3,19.3-3.4,29l-49.2,28c-5.7,3.2-8.4,9.7-6.5,15.9l15.2,53.9
						c1.7,6.2,7.5,10.4,13.9,10.2L99,349c6,9.2,13.1,18.1,20.8,26.1L107.2,421c-1.7,6.2,1,12.7,6.7,15.9l48.9,27.5
						c5.7,3.2,12.7,2,17.1-2.5c0,0,21.9-23.3,32.8-34.7c10.7,2.3,21.8,3.7,32.8,4l27.8,49.2c3.2,5.7,9.9,8.4,15.9,6.5l54.1-15.2
						c6.2-1.7,10.4-7.5,10.2-13.9l-1.8-56.6c9.4-6.2,18.3-13.2,26.5-21.1c15.6,4.2,46.7,12.7,46.7,12.7c6.2,1.7,12.7-1,15.9-6.7
						l27.5-48.9c3.2-5.7,2-12.7-2.7-17.1L430,286.5c2.2-10.4,3.5-20.9,3.9-31.7l49.2-27.8c5.5-3.2,8.4-9.9,6.5-16.1l-15.2-53.9
						C472.9,150.9,467,146.5,460.7,146.8z M296.4,407.8c-87.6,24.6-179.1-26.6-203.7-114.2s26.6-178.9,114.2-203.7
						c87.6-24.6,178.9,26.6,203.5,114.2C435.2,291.7,384,383.2,296.4,407.8z M210.3,101.4C129,124.2,81.4,209,104.2,290.2
						s107.5,128.8,189,105.9C374.4,373.3,422,288.5,399,207.3C376.3,126.1,291.5,78.7,210.3,101.4z M283.6,366.8
						c-65.5,18.4-133.7-19.9-152.1-85.4s19.9-133.7,85.4-152.1s133.7,19.9,152.1,85.3C387.5,280.2,349.1,348.3,283.6,366.8z"/>
				</g>
			</g>
			<g>
				<polygon class="st3" points="349.5,175.5 331,251.5 309.9,230.4 226.3,314 180.1,267.8 147.4,300.3 132.2,285 180.1,237.1 
					226.3,283.4 294.5,215 273.4,193.9 				"/>
			</g>
		</g>
	</g>
</g>
</svg>
