<?xml version="1.0" encoding="utf-8"?>
<!-- Generator: Adobe Illustrator 26.2.1, SVG Export Plug-In . SVG Version: 6.00 Build 0)  -->
<svg version="1.1" id="Layer_1" xmlns="http://www.w3.org/2000/svg" xmlns:xlink="http://www.w3.org/1999/xlink" x="0px" y="0px"
	 viewBox="0 0 1366 493.5" style="enable-background:new 0 0 1366 493.5;" xml:space="preserve">
<style type="text/css">
	.st0{fill:#2A1333;}
	.st1{fill:#F47B20;}
</style>
<g>
	<g>
		<path class="st0" d="M0,427.8h32.5v5.7H6.6v16.4h24.3v5.7H6.6v22.7H0V427.8z"/>
		<path class="st0" d="M39.8,425h6.4v8h-6.4V425z M39.8,441.5h6.4v36.9h-6.4V441.5z"/>
		<path class="st0" d="M57,450.8c0-3.2,0-6.4-0.1-9.3h6.2c0.2,1.1,0.3,5,0.2,6.1c1.5-3.2,4.5-6.9,11.6-6.9c6.9,0,12.3,4.2,12.3,14
			v23.7H81v-22.9c0-5.6-2.2-9.3-7.8-9.3c-7,0-9.8,5.3-9.8,12.7v19.5H57V450.8z"/>
		<path class="st0" d="M125.2,470.3c0,3.4,0.3,7,0.5,8h-6.1c-0.3-0.8-0.5-2.6-0.6-4.8c-1.3,2.5-4.2,5.7-11.4,5.7
			c-8.7,0-12.4-5.7-12.4-11.3c0-8.2,6.5-12,17.4-12c2.6,0,4.9,0,6.3,0v-3.1c0-3.2-1-7.2-7.9-7.2c-6.2,0-7.2,3.1-7.9,5.9H97
			c0.5-5.1,3.6-10.9,14.2-10.9c9,0,14,3.7,14,12.1V470.3z M119,460.4c-1.2,0-4,0-6,0c-7.3,0-11.3,2-11.3,7.2c0,3.8,2.6,6.6,7.2,6.6
			c8.9,0,10.1-6,10.1-12.7V460.4z"/>
		<path class="st0" d="M136.2,450.8c0-3.2,0-6.4-0.1-9.3h6.2c0.2,1.1,0.3,5,0.2,6.1c1.5-3.2,4.5-6.9,11.6-6.9
			c6.9,0,12.3,4.2,12.3,14v23.7h-6.4v-22.9c0-5.6-2.2-9.3-7.8-9.3c-7,0-9.8,5.3-9.8,12.7v19.5h-6.4V450.8z"/>
		<path class="st0" d="M206.4,467.1c-1.6,6.3-5.9,12.1-15.2,12.1c-10.1,0-16.4-7.3-16.4-19.1c0-10.4,5.9-19.5,16.9-19.5
			c10.6,0,14.3,7.6,14.8,12.3h-6.3c-0.9-3.8-3.3-7-8.6-7c-6.5,0-10.2,5.6-10.2,14c0,8.4,3.6,14,10,14c4.6,0,7.3-2.5,8.8-6.9H206.4z"
			/>
		<path class="st0" d="M214.7,425h6.4v8h-6.4V425z M214.7,441.5h6.4v36.9h-6.4V441.5z"/>
		<path class="st0" d="M258.9,470.3c0,3.4,0.3,7,0.5,8h-6.1c-0.3-0.8-0.5-2.6-0.6-4.8c-1.3,2.5-4.2,5.7-11.4,5.7
			c-8.7,0-12.4-5.7-12.4-11.3c0-8.2,6.5-12,17.4-12c2.6,0,4.9,0,6.3,0v-3.1c0-3.2-1-7.2-7.9-7.2c-6.2,0-7.2,3.1-7.9,5.9h-6.2
			c0.5-5.1,3.6-10.9,14.2-10.9c9,0,14,3.7,14,12.1V470.3z M252.7,460.4c-1.2,0-4,0-6,0c-7.3,0-11.3,2-11.3,7.2
			c0,3.8,2.6,6.6,7.2,6.6c8.9,0,10.1-6,10.1-12.7V460.4z"/>
		<path class="st0" d="M270,478.3V425h6.4v53.4H270z"/>
		<path class="st0" d="M350.9,452.8c0,13.9-7.8,26.3-23.7,26.3c-14.9,0-23.2-11.5-23.2-26c0-14.5,8.5-26,23.8-26
			C342,427,350.9,437.7,350.9,452.8z M311,452.8c0,10.9,5.6,20.5,16.5,20.5c11.7,0,16.4-9.7,16.4-20.5c0-10.9-5.3-20.1-16.4-20.1
			C316,432.8,311,442,311,452.8z"/>
		<path class="st0" d="M366.4,473.8v19H360v-42.4c0-3,0-6.1-0.1-9h6.2c0.1,1.2,0.2,3.5,0.2,5.8c2-3.7,5.7-6.7,12-6.7
			c8.5,0,14.7,7.1,14.7,18.4c0,13.2-7.1,20.2-16,20.2C371.1,479.2,368,476.7,366.4,473.8z M386.6,459.2c0-7.8-3.6-13.2-9.8-13.2
			c-7.6,0-10.7,4.8-10.7,13.8c0,8.7,2.5,14,10.2,14C383,473.8,386.6,468.3,386.6,459.2z"/>
		<path class="st0" d="M405.7,461.1c0,7.5,3.8,12.8,10.1,12.8c5.8,0,7.7-3,8.9-5.7h6.4c-1.5,4.7-5.4,11-15.5,11
			c-11.6,0-16.3-9.4-16.3-18.9c0-11,5.5-19.7,16.7-19.7c11.9,0,15.8,9.5,15.8,17.4c0,1.1,0,2.1-0.1,3.1H405.7z M425.3,456.6
			c-0.1-6.1-3.1-10.9-9.4-10.9c-6.5,0-9.3,4.5-10,10.9H425.3z"/>
		<path class="st0" d="M440,451.5c0-5.2,0-8.1-0.1-10h6.2c0.1,1,0.2,3.9,0.2,7.5c1.9-5,6.3-8.2,12.4-8.4v6.3
			c-7.6,0.2-12.4,4.2-12.4,13.5v17.9H440V451.5z"/>
		<path class="st0" d="M491.8,470.3c0,3.4,0.3,7,0.5,8h-6.1c-0.3-0.8-0.5-2.6-0.6-4.8c-1.3,2.5-4.2,5.7-11.4,5.7
			c-8.7,0-12.4-5.7-12.4-11.3c0-8.2,6.5-12,17.4-12c2.6,0,4.9,0,6.3,0v-3.1c0-3.2-1-7.2-7.9-7.2c-6.2,0-7.2,3.1-7.9,5.9h-6.2
			c0.5-5.1,3.6-10.9,14.2-10.9c9,0,14,3.7,14,12.1V470.3z M485.6,460.4c-1.2,0-4,0-6,0c-7.3,0-11.3,2-11.3,7.2
			c0,3.8,2.6,6.6,7.2,6.6c8.9,0,10.1-6,10.1-12.7V460.4z"/>
		<path class="st0" d="M497.6,441.5h6.4v-10.9h6.4v10.9h8.1v5.2h-8.1v21.6c0,3.6,0.9,5.4,4.2,5.4c0.9,0,2.2,0,3.2-0.3v4.8
			c-1.6,0.6-3.8,0.7-5.5,0.7c-5.7,0-8.3-3-8.3-9.1v-23.1h-6.4V441.5z"/>
		<path class="st0" d="M525.2,425h6.4v8h-6.4V425z M525.2,441.5h6.4v36.9h-6.4V441.5z"/>
		<path class="st0" d="M574.1,459.8c0,10.6-6.1,19.4-17.4,19.4c-10.6,0-16.9-8.2-16.9-19.2c0-10.9,6.3-19.4,17.4-19.4
			C567.4,440.6,574.1,448.3,574.1,459.8z M546.4,459.9c0,8.1,4,14,10.7,14c6.7,0,10.5-5.6,10.5-14c0-8.3-3.8-14-10.7-14
			C550,445.9,546.4,451.5,546.4,459.9z"/>
		<path class="st0" d="M582.4,450.8c0-3.2,0-6.4-0.1-9.3h6.2c0.2,1.1,0.3,5,0.2,6.1c1.5-3.2,4.5-6.9,11.6-6.9
			c6.9,0,12.3,4.2,12.3,14v23.7h-6.4v-22.9c0-5.6-2.2-9.3-7.8-9.3c-7,0-9.8,5.3-9.8,12.7v19.5h-6.4V450.8z"/>
		<path class="st0" d="M626.3,467.8c1.1,4,4,6.4,9,6.4c5.4,0,7.5-2.3,7.5-5.7c0-3.4-1.7-5-8.7-6.8c-10.5-2.6-12.7-5.8-12.7-10.8
			c0-5.2,3.8-10.4,13.3-10.4c9.5,0,13.4,5.5,13.9,10.6h-6.2c-0.5-2.4-2.3-5.7-8-5.7c-5.2,0-6.7,2.5-6.7,4.9c0,2.8,1.5,4.1,8.3,5.7
			c11.2,2.6,13.4,6.4,13.4,11.9c0,6.5-5.1,11.2-14.3,11.2c-9.5,0-14.2-4.8-15.2-11.4H626.3z"/>
		<path class="st0" d="M683.8,456.1v22.3h-6.6v-50.6h19.8c10.4,0,15.9,5.6,15.9,13.5c0,6.6-3.8,10.6-8.6,11.9
			c4.1,1.1,7.7,4.2,7.7,13v2.2c0,3.5-0.2,7.9,0.7,10h-6.5c-0.9-2.2-0.9-6.1-0.9-10.9v-1.1c0-7.2-2-10.3-11.1-10.3H683.8z
			 M683.8,450.4h11c7.7,0,11.1-2.9,11.1-8.6c0-5.4-3.5-8.4-10.4-8.4h-11.8V450.4z"/>
		<path class="st0" d="M726.6,461.1c0,7.5,3.8,12.8,10.1,12.8c5.8,0,7.7-3,8.9-5.7h6.4c-1.5,4.7-5.4,11-15.5,11
			c-11.6,0-16.3-9.4-16.3-18.9c0-11,5.5-19.7,16.7-19.7c11.9,0,15.8,9.5,15.8,17.4c0,1.1,0,2.1-0.1,3.1H726.6z M746.2,456.6
			c-0.1-6.1-3.1-10.9-9.4-10.9c-6.5,0-9.3,4.5-10,10.9H746.2z"/>
		<path class="st0" d="M767.2,473.8v19h-6.3v-42.4c0-3,0-6.1-0.1-9h6.2c0.1,1.2,0.2,3.5,0.2,5.8c2-3.7,5.7-6.7,12-6.7
			c8.5,0,14.7,7.1,14.7,18.4c0,13.2-7.1,20.2-16,20.2C772,479.2,768.9,476.7,767.2,473.8z M787.4,459.2c0-7.8-3.6-13.2-9.8-13.2
			c-7.6,0-10.7,4.8-10.7,13.8c0,8.7,2.5,14,10.2,14C783.8,473.8,787.4,468.3,787.4,459.2z"/>
		<path class="st0" d="M834.4,459.8c0,10.6-6.1,19.4-17.4,19.4c-10.6,0-16.9-8.2-16.9-19.2c0-10.9,6.3-19.4,17.4-19.4
			C827.7,440.6,834.4,448.3,834.4,459.8z M806.7,459.9c0,8.1,4,14,10.7,14c6.7,0,10.5-5.6,10.5-14c0-8.3-3.8-14-10.7-14
			C810.3,445.9,806.7,451.5,806.7,459.9z"/>
		<path class="st0" d="M842.7,451.5c0-5.2,0-8.1-0.1-10h6.2c0.1,1,0.2,3.9,0.2,7.5c1.9-5,6.3-8.2,12.4-8.4v6.3
			c-7.6,0.2-12.4,4.2-12.4,13.5v17.9h-6.4V451.5z"/>
		<path class="st0" d="M865.6,441.5h6.4v-10.9h6.4v10.9h8.1v5.2h-8.1v21.6c0,3.6,0.9,5.4,4.2,5.4c0.9,0,2.2,0,3.2-0.3v4.8
			c-1.6,0.6-3.8,0.7-5.5,0.7c-5.7,0-8.3-3-8.3-9.1v-23.1h-6.4V441.5z"/>
		<path class="st0" d="M893.2,425h6.4v8h-6.4V425z M893.2,441.5h6.4v36.9h-6.4V441.5z"/>
		<path class="st0" d="M910.4,450.8c0-3.2,0-6.4-0.1-9.3h6.2c0.2,1.1,0.3,5,0.2,6.1c1.5-3.2,4.5-6.9,11.6-6.9
			c6.9,0,12.3,4.2,12.3,14v23.7h-6.4v-22.9c0-5.6-2.2-9.3-7.8-9.3c-7,0-9.8,5.3-9.8,12.7v19.5h-6.4V450.8z"/>
		<path class="st0" d="M981.9,475c0,11.8-4.9,18.5-16.9,18.5c-11.2,0-14.6-6.3-15.3-11.3h6.5c1.1,4,4.3,6.2,9.1,6.2
			c8.4,0,10.4-5.3,10.4-13.8v-3c-2,4.1-5.3,6.5-11.5,6.5c-9.1,0-15.3-7.4-15.3-18.2c0-12,7-19.4,15.9-19.4c7,0,10,3.3,10.9,5.8
			c0.1-1.7,0.2-4.1,0.3-4.9h6c0,2.1-0.1,7.1-0.1,10.6V475z M955.6,459.7c0,7.8,4,13,10.1,13c8,0,10.3-5.3,10.3-13.5
			c0-8.3-2.2-13.2-10.1-13.2C959,446,955.6,451.7,955.6,459.7z"/>
		<path class="st0" d="M1022.6,433.5h-16.3v-5.7h39.4v5.7h-16.4v44.8h-6.8V433.5z"/>
		<path class="st0" d="M1048.3,461.1c0,7.5,3.8,12.8,10.1,12.8c5.8,0,7.7-3,8.9-5.7h6.4c-1.5,4.7-5.4,11-15.5,11
			c-11.6,0-16.3-9.4-16.3-18.9c0-11,5.5-19.7,16.7-19.7c11.9,0,15.8,9.5,15.8,17.4c0,1.1,0,2.1-0.1,3.1H1048.3z M1067.9,456.6
			c-0.1-6.1-3.1-10.9-9.4-10.9c-6.5,0-9.3,4.5-10,10.9H1067.9z"/>
		<path class="st0" d="M1112,467.1c-1.6,6.3-5.9,12.1-15.2,12.1c-10.1,0-16.4-7.3-16.4-19.1c0-10.4,5.9-19.5,16.9-19.5
			c10.6,0,14.3,7.6,14.8,12.3h-6.3c-0.9-3.8-3.3-7-8.6-7c-6.5,0-10.2,5.6-10.2,14c0,8.4,3.6,14,10,14c4.6,0,7.3-2.5,8.8-6.9H1112z"
			/>
		<path class="st0" d="M1126,425v21.9c1.9-3.2,5.2-6.3,11.5-6.3c5.9,0,12.4,3.2,12.4,14.2v23.5h-6.3v-22.5c0-6.3-2.7-9.7-8-9.7
			c-6.6,0-9.6,4.4-9.6,12.1v20.1h-6.4V425H1126z"/>
		<path class="st0" d="M1160.8,450.8c0-3.2,0-6.4-0.1-9.3h6.2c0.2,1.1,0.3,5,0.2,6.1c1.5-3.2,4.5-6.9,11.6-6.9
			c6.9,0,12.3,4.2,12.3,14v23.7h-6.4v-22.9c0-5.6-2.2-9.3-7.8-9.3c-7,0-9.8,5.3-9.8,12.7v19.5h-6.4V450.8z"/>
		<path class="st0" d="M1201.9,425h6.4v8h-6.4V425z M1201.9,441.5h6.4v36.9h-6.4V441.5z"/>
		<path class="st0" d="M1243.5,473c-1.9,3.9-5.3,6.2-11.7,6.2c-8.4,0-15.3-6.6-15.3-18.9c0-12.4,7.4-19.7,16.2-19.7
			c6.8,0,9.9,3.1,10.7,5.6c0-1.3,0.1-3.2,0.2-4.7h6c0,3.8-0.1,6.8-0.1,10.2v41.2h-6.2V473z M1223.2,460c0,7.4,3.2,13.8,10.2,13.8
			c8,0,10.3-5.5,10.3-14.1c0-8.7-2.1-13.7-10-13.7C1226.8,446.1,1223.2,451.9,1223.2,460z"/>
		<path class="st0" d="M1290.2,467.6c0,3.6,0,8.6,0.1,10.7h-6.2c-0.1-1-0.2-3.2-0.2-5.5c-1.8,4.1-5.4,6.4-11.2,6.4
			c-6.2,0-12.2-3.1-12.2-13.5v-24.2h6.3v22.9c0,4.8,1.5,9.3,7.6,9.3c6.8,0,9.4-3.8,9.4-13v-19.2h6.4V467.6z"/>
		<path class="st0" d="M1305,461.1c0,7.5,3.8,12.8,10.1,12.8c5.8,0,7.7-3,8.9-5.7h6.4c-1.5,4.7-5.4,11-15.5,11
			c-11.6,0-16.3-9.4-16.3-18.9c0-11,5.5-19.7,16.7-19.7c11.9,0,15.8,9.5,15.8,17.4c0,1.1,0,2.1-0.1,3.1H1305z M1324.6,456.6
			c-0.1-6.1-3.1-10.9-9.4-10.9c-6.5,0-9.3,4.5-10,10.9H1324.6z"/>
		<path class="st0" d="M1342.9,467.8c1.1,4,4,6.4,9,6.4c5.4,0,7.5-2.3,7.5-5.7c0-3.4-1.7-5-8.7-6.8c-10.5-2.6-12.7-5.8-12.7-10.8
			c0-5.2,3.8-10.4,13.3-10.4c9.5,0,13.4,5.5,13.9,10.6h-6.2c-0.5-2.4-2.3-5.7-8-5.7c-5.2,0-6.7,2.5-6.7,4.9c0,2.8,1.5,4.1,8.3,5.7
			c11.2,2.6,13.4,6.4,13.4,11.9c0,6.5-5.1,11.2-14.3,11.2c-9.5,0-14.2-4.8-15.2-11.4H1342.9z"/>
	</g>
	<path class="st0" d="M8.7,29.4h19.4v348.9H8.7V29.4z M66.8,29.4h164.8v19.4H66.8V29.4z M66.8,87.5h164.8v19.4H86.2v58.2h145.4v19.4
		H66.8v-9.7v-67.8V87.5z M66.8,223.2h164.8v19.4H86.2v135.7H66.8V242.6V223.2z"/>
	<path class="st0" d="M790,29.4h19.4v348.9H790V29.4z M848.2,29.4h87.2c59.1,0,106.6,47.5,106.6,106.6c0,39.7-22.3,76.6-58.2,95
		l77.5,147.3h-21.8L966,238.2l-9.2-17.9c4.8-1.5,9.2-2.9,13.6-4.4c4.8-1.9,8.7-4.4,13.1-7.3c24.2-16,39.2-43.1,39.2-72.7
		c0-48-39.2-87.2-87.2-87.2h-87.2V29.4z M848.2,87.5h87.2c26.6,0,48.5,21.8,48.5,48.5s-21.8,48.5-48.5,48.5h-87.2v-14.5v-63V87.5z
		 M892.3,223.2h22.3l80.9,155.1h-21.8l-71.2-135.7h-34.9v135.7h-19.4V242.6v-19.4H892.3z M867.6,106.9v58.2h67.9
		c16,0,29.1-13.1,29.1-29.1c0-16-13.1-29.1-29.1-29.1H867.6z"/>
	<path class="st0" d="M1094.5,40h271.4v19.4h-271.4V40z M1094.5,98.2h96.9h19.4v19.4v271.4h-19.4V117.5h-96.9V98.2z M1249.6,98.2
		h19.4h96.9v19.4H1269v271.4h-19.4V117.5V98.2z"/>
	<g>
		<g>
			<g>
				<path class="st1" d="M458.5,235.1l-5.1,7.5v68.6h33c-0.5-16.2-1-32.4-1.5-48.6C476.1,253.4,467.3,244.3,458.5,235.1z"/>
			</g>
			<g>
				<polygon class="st1" points="502.6,279.1 502.6,315.2 535.6,315.2 535.6,238 				"/>
			</g>
			<polygon class="st1" points="570.7,202.9 551.7,227 551.7,311.2 584.7,311.2 584.7,220.6 			"/>
		</g>
		<g>
			<g>
				<path class="st0" d="M718,171l-47.5-11.7c-2.8-9-6.5-17.7-11-26.1c7.1-11.9,22.1-36.8,22.1-36.8c2.9-4.8,2.1-10.9-1.8-14.8
					l-34.3-34.3c-3.9-3.9-10-4.7-14.8-1.8l-36.9,22.1c-8.3-4.4-17-8-25.9-10.9L556.3,9.2c-1.3-5.4-6.2-9.1-11.7-9.2H496
					c-5.5,0-10.4,3.8-11.7,9.2c0,0-8.1,33.2-11.6,47.5c-9.5,3-18.8,7-27.5,11.7l-38.3-23c-4.8-2.9-10.8-2.1-14.8,1.8l-34.3,34.3
					c-3.9,3.9-4.7,10-1.9,14.8l23.7,39.5c-3.8,7.5-7,15.3-9.5,23.4L322.5,171c-5.4,1.3-9.2,6.2-9.2,11.7v48.5
					c0,5.6,3.8,10.4,9.2,11.8l47.5,11.6c2.9,9.1,6.6,18,11.2,26.5L360,316.5c-2.8,4.7-2.1,10.8,1.9,14.8l34.3,34.3
					c3.9,3.9,10,4.7,14.8,1.9c0,0,23.8-14.2,35.4-21.2c8.4,4.5,17.2,8.2,26.3,11.1l11.6,47.5c1.3,5.4,6.2,9.2,11.7,9.2h48.5
					c5.5,0,10.4-3.8,11.7-9.2l11.6-47.5c9.3-2.9,18.3-6.8,26.9-11.4c12,7.2,35.9,21.6,35.9,21.6c4.8,2.8,10.9,2.1,14.8-1.9
					l34.3-34.3c3.9-3.9,4.7-10,1.8-14.8l-21.8-36.4c4.3-8.1,7.9-16.6,10.6-25.5L718,243c5.4-1.4,9.2-6.2,9.2-11.8v-48.5
					C727.2,177.1,723.4,172.3,718,171z M520.3,349.6c-78.7,0-142.7-64-142.7-142.6c0-78.6,64-142.6,142.7-142.6
					c78.6,0,142.6,64,142.6,142.6C662.9,285.6,598.9,349.6,520.3,349.6z M520.3,74.7C447.4,74.7,388,134,388,207
					c0,72.9,59.4,132.3,132.3,132.3c72.9,0,132.3-59.3,132.3-132.3C652.6,134,593.2,74.7,520.3,74.7z M519.3,312.6
					c-58.8,0-106.6-47.8-106.6-106.6c0-58.7,47.8-106.5,106.6-106.5c58.7,0,106.5,47.8,106.5,106.5
					C625.9,264.8,578.1,312.6,519.3,312.6z"/>
			</g>
		</g>
		<polygon class="st0" points="604.9,143.5 588.9,209.3 570.6,191 498.4,263.2 458.4,223.3 430.3,251.4 417.1,238.2 458.4,196.8 
			498.4,236.8 557.4,177.8 539.1,159.6 		"/>
	</g>
</g>
</svg>
