<svg id="Layer_1" data-name="Layer 1" xmlns="http://www.w3.org/2000/svg" xmlns:xlink="http://www.w3.org/1999/xlink" viewBox="0 0 535.59 130.1"><defs><style>.cls-1{font-size:102.97px;font-family:LeagueSpartan-Bold, League Spartan;font-weight:700;letter-spacing:0.3em;}.cls-1,.cls-4{fill:#fff;}.cls-2{letter-spacing:0.26em;}.cls-3{letter-spacing:0.3em;}.cls-5{fill:url(#Degradado_sin_nombre_4);}.cls-6{fill:url(#Degradado_sin_nombre_4-2);}.cls-7{fill:url(#Degradado_sin_nombre_4-3);}.cls-8{fill:url(#Degradado_sin_nombre_29);}.cls-9{fill:url(#Degradado_sin_nombre_2);}.cls-10{fill:url(#Degradado_sin_nombre_37);}.cls-11{fill:url(#Degradado_sin_nombre_2-2);}</style><linearGradient id="Degradado_sin_nombre_4" x1="31.3" y1="108.62" x2="31.3" y2="75.79" gradientUnits="userSpaceOnUse"><stop offset="0" stop-color="#ff4d00"/><stop offset="1" stop-color="#ff654a"/></linearGradient><linearGradient id="Degradado_sin_nombre_4-2" x1="55.79" y1="116.75" x2="55.79" y2="77.65" xlink:href="#Degradado_sin_nombre_4"/><linearGradient id="Degradado_sin_nombre_4-3" x1="80.27" y1="114.9" x2="80.27" y2="61.09" xlink:href="#Degradado_sin_nombre_4"/><linearGradient id="Degradado_sin_nombre_29" x1="19.27" y1="78.78" x2="80.66" y2="32.42" gradientUnits="userSpaceOnUse"><stop offset="0" stop-color="#fff"/><stop offset="0.31" stop-color="#fcfdff"/><stop offset="0.55" stop-color="#f2f6ff"/><stop offset="0.77" stop-color="#e2eaff"/><stop offset="0.96" stop-color="#cbdaff"/><stop offset="1" stop-color="#c6d6ff"/></linearGradient><linearGradient id="Degradado_sin_nombre_2" x1="62.52" y1="125.61" x2="62.52" y2="0.61" gradientUnits="userSpaceOnUse"><stop offset="0" stop-color="#ffac20"/><stop offset="1" stop-color="#ff654a"/></linearGradient><linearGradient id="Degradado_sin_nombre_37" x1="102.14" y1="19.18" x2="76.34" y2="45.67" gradientUnits="userSpaceOnUse"><stop offset="0.19" stop-color="#c6d6ff"/><stop offset="0.25" stop-color="#dae4ff"/><stop offset="0.33" stop-color="#ebf0ff"/><stop offset="0.42" stop-color="#f6f9ff"/><stop offset="0.55" stop-color="#fdfeff"/><stop offset="0.91" stop-color="#fff"/></linearGradient><linearGradient id="Degradado_sin_nombre_2-2" x1="106.33" y1="75.67" x2="91.42" y2="103.61" xlink:href="#Degradado_sin_nombre_2"/></defs><text class="cls-1" transform="translate(132.37 93.96)">FO<tspan class="cls-2" x="210.46" y="0">R</tspan><tspan class="cls-3" x="310.96" y="0">T</tspan></text><path class="cls-4" d="M140,104.81h8.42v1.49H141.7v4.25H148V112H141.7v5.87H140Z"/><path class="cls-4" d="M150.3,104.09h1.64v2.06H150.3Zm0,4.27h1.64v9.55H150.3Z"/><path class="cls-4" d="M154.77,110.77c0-.83,0-1.67,0-2.41h1.6a13.82,13.82,0,0,1,.06,1.57,3,3,0,0,1,3-1.79c1.79,0,3.19,1.09,3.19,3.63v6.14H161V112c0-1.44-.56-2.41-2-2.41-1.8,0-2.53,1.37-2.53,3.29v5h-1.64Z"/><path class="cls-4" d="M172.42,115.83a14.22,14.22,0,0,0,.13,2.08H171a5.31,5.31,0,0,1-.15-1.25,3,3,0,0,1-2.95,1.48,2.89,2.89,0,0,1-3.21-2.92c0-2.13,1.67-3.11,4.51-3.11h1.63v-.81c0-.84-.27-1.87-2.06-1.87-1.59,0-1.86.79-2,1.54h-1.59c.13-1.32.94-2.84,3.68-2.83,2.34,0,3.63,1,3.63,3.13Zm-1.61-2.57h-1.54c-1.91,0-2.93.52-2.93,1.87a1.68,1.68,0,0,0,1.86,1.71c2.3,0,2.61-1.54,2.61-3.28Z"/><path class="cls-4" d="M175.28,110.77c0-.83,0-1.67,0-2.41h1.6c0,.29.07,1.29.07,1.57a3,3,0,0,1,3-1.79c1.79,0,3.19,1.09,3.19,3.63v6.14h-1.65V112c0-1.44-.56-2.41-2-2.41-1.8,0-2.52,1.37-2.52,3.29v5h-1.65Z"/><path class="cls-4" d="M193.47,115a3.81,3.81,0,0,1-3.95,3.15c-2.63,0-4.25-1.89-4.25-5,0-2.7,1.52-5,4.37-5a3.57,3.57,0,0,1,3.83,3.19h-1.64a2.12,2.12,0,0,0-2.22-1.81c-1.69,0-2.65,1.44-2.65,3.61s.93,3.64,2.59,3.64a2.27,2.27,0,0,0,2.28-1.78Z"/><path class="cls-4" d="M195.61,104.09h1.65v2.06h-1.65Zm0,4.27h1.65v9.55h-1.65Z"/><path class="cls-4" d="M207.07,115.83a13.82,13.82,0,0,0,.14,2.08h-1.58a5.17,5.17,0,0,1-.16-1.25,3,3,0,0,1-2.94,1.48,2.89,2.89,0,0,1-3.22-2.92c0-2.13,1.68-3.11,4.51-3.11h1.63v-.81c0-.84-.27-1.87-2-1.87-1.6,0-1.87.79-2,1.54h-1.59c.12-1.32.93-2.84,3.68-2.83,2.33,0,3.62,1,3.62,3.13Zm-1.6-2.57h-1.55c-1.9,0-2.92.52-2.92,1.87a1.68,1.68,0,0,0,1.86,1.71c2.3,0,2.61-1.54,2.61-3.28Z"/><path class="cls-4" d="M209.93,117.91V104.09h1.64v13.82Z"/><path class="cls-4" d="M230.9,111.29c0,3.6-2,6.81-6.15,6.81-3.86,0-6-3-6-6.74s2.2-6.74,6.16-6.74C228.59,104.62,230.9,107.39,230.9,111.29Zm-10.34,0c0,2.83,1.45,5.31,4.26,5.31,3,0,4.26-2.51,4.26-5.31s-1.38-5.21-4.25-5.21S220.56,108.51,220.56,111.31Z"/><path class="cls-4" d="M234.9,116.73v4.94h-1.64v-11c0-.77,0-1.58,0-2.33h1.61c0,.32.05.9.05,1.51a3.29,3.29,0,0,1,3.12-1.73c2.21,0,3.82,1.85,3.82,4.75,0,3.41-1.84,5.25-4.16,5.25A2.91,2.91,0,0,1,234.9,116.73Zm5.24-3.77c0-2-.92-3.41-2.55-3.41-2,0-2.76,1.25-2.76,3.57s.64,3.63,2.63,3.63C239.21,116.75,240.14,115.31,240.14,113Z"/><path class="cls-4" d="M245.1,113.44c0,1.94,1,3.32,2.61,3.32a2.19,2.19,0,0,0,2.3-1.48h1.66a3.87,3.87,0,0,1-4,2.86c-3,0-4.23-2.44-4.23-4.9,0-2.84,1.43-5.1,4.33-5.1,3.08,0,4.09,2.47,4.09,4.51,0,.29,0,.53,0,.79Zm5.08-1.16c0-1.57-.81-2.84-2.44-2.84s-2.42,1.17-2.59,2.84Z"/><path class="cls-4" d="M254,111c0-1.34,0-2.09,0-2.6h1.62c0,.27,0,1,0,2a3.38,3.38,0,0,1,3.21-2.17v1.64c-1.95.06-3.21,1.08-3.21,3.5v4.63H254Z"/><path class="cls-4" d="M267.4,115.83a15.83,15.83,0,0,0,.13,2.08H266a4.7,4.7,0,0,1-.16-1.25,3,3,0,0,1-2.95,1.48,2.89,2.89,0,0,1-3.21-2.92c0-2.13,1.67-3.11,4.51-3.11h1.63v-.81c0-.84-.27-1.87-2.06-1.87-1.59,0-1.86.79-2,1.54h-1.6c.13-1.32.94-2.84,3.69-2.83,2.33,0,3.62,1,3.62,3.13Zm-1.61-2.57h-1.54c-1.91,0-2.93.52-2.93,1.87a1.68,1.68,0,0,0,1.86,1.71c2.3,0,2.61-1.54,2.61-3.28Z"/><path class="cls-4" d="M268.9,108.36h1.65v-2.81h1.64v2.81h2.11v1.35h-2.11v5.59c0,.93.23,1.41,1.09,1.41a4.18,4.18,0,0,0,.84-.08v1.24a4.49,4.49,0,0,1-1.43.17c-1.49,0-2.14-.77-2.14-2.35v-6H268.9Z"/><path class="cls-4" d="M276.05,104.09h1.65v2.06h-1.65Zm0,4.27h1.65v9.55h-1.65Z"/><path class="cls-4" d="M288.72,113.12c0,2.75-1.57,5-4.49,5-2.74,0-4.39-2.12-4.39-5s1.62-5,4.5-5C287,108.14,288.72,110.12,288.72,113.12Zm-7.18,0c0,2.09,1,3.62,2.76,3.62s2.73-1.45,2.73-3.62-1-3.62-2.77-3.62S281.54,111,281.54,113.14Z"/><path class="cls-4" d="M290.88,110.77c0-.83,0-1.67,0-2.41h1.61c0,.29.07,1.29.06,1.57a3,3,0,0,1,3-1.79c1.79,0,3.19,1.09,3.19,3.63v6.14h-1.65V112c0-1.44-.56-2.41-2-2.41-1.8,0-2.53,1.37-2.53,3.29v5h-1.65Z"/><path class="cls-4" d="M302.24,115.18a2.18,2.18,0,0,0,2.34,1.66c1.41,0,2-.61,2-1.47s-.44-1.31-2.26-1.75c-2.73-.67-3.3-1.5-3.3-2.8s1-2.68,3.44-2.68,3.48,1.42,3.6,2.75h-1.6a1.87,1.87,0,0,0-2.07-1.47c-1.33,0-1.73.64-1.73,1.27s.39,1.06,2.14,1.48c2.9.69,3.48,1.65,3.48,3.07,0,1.68-1.33,2.9-3.71,2.9s-3.68-1.25-3.93-3Z"/><path class="cls-4" d="M317.15,112.14v5.77h-1.72v-13.1h5.12c2.69,0,4.13,1.46,4.13,3.51a3,3,0,0,1-2.24,3.08c1.07.28,2,1.08,2,3.36v.56a9.18,9.18,0,0,0,.18,2.59h-1.69a8.87,8.87,0,0,1-.22-2.81v-.28c0-1.87-.53-2.68-2.88-2.68Zm0-1.46H320c2,0,2.88-.75,2.88-2.22s-.9-2.19-2.68-2.19h-3.05Z"/><path class="cls-4" d="M328.23,113.44c0,1.94,1,3.32,2.61,3.32a2.21,2.21,0,0,0,2.31-1.48h1.66a3.88,3.88,0,0,1-4,2.86c-3,0-4.22-2.44-4.22-4.9,0-2.84,1.43-5.1,4.33-5.1,3.08,0,4.09,2.47,4.09,4.51a6.7,6.7,0,0,1,0,.79Zm5.08-1.16c0-1.57-.8-2.84-2.44-2.84s-2.41,1.17-2.58,2.84Z"/><path class="cls-4" d="M338.76,116.73v4.94h-1.65v-11c0-.77,0-1.58,0-2.33h1.6a14.49,14.49,0,0,1,.06,1.51,3.27,3.27,0,0,1,3.12-1.73c2.21,0,3.81,1.85,3.81,4.75,0,3.41-1.84,5.25-4.15,5.25A2.9,2.9,0,0,1,338.76,116.73ZM344,113c0-2-.92-3.41-2.55-3.41-2,0-2.76,1.25-2.76,3.57s.64,3.63,2.63,3.63C343.06,116.75,344,115.31,344,113Z"/><path class="cls-4" d="M356.17,113.12c0,2.75-1.58,5-4.5,5-2.73,0-4.39-2.12-4.39-5s1.62-5,4.5-5C354.43,108.14,356.17,110.12,356.17,113.12Zm-7.19,0c0,2.09,1,3.62,2.76,3.62s2.73-1.45,2.73-3.62-1-3.62-2.77-3.62S349,111,349,113.14Z"/><path class="cls-4" d="M358.32,111c0-1.34,0-2.09,0-2.6h1.62c0,.27.05,1,.05,2a3.38,3.38,0,0,1,3.22-2.17v1.64c-2,.06-3.22,1.08-3.22,3.5v4.63h-1.65Z"/><path class="cls-4" d="M364.24,108.36h1.65v-2.81h1.64v2.81h2.11v1.35h-2.11v5.59c0,.93.23,1.41,1.09,1.41a4.25,4.25,0,0,0,.84-.08v1.24A4.53,4.53,0,0,1,368,118c-1.49,0-2.14-.77-2.14-2.35v-6h-1.65Z"/><path class="cls-4" d="M371.39,104.09H373v2.06h-1.65Zm0,4.27H373v9.55h-1.65Z"/><path class="cls-4" d="M375.86,110.77c0-.83,0-1.67,0-2.41h1.61c0,.29.07,1.29.06,1.57a3,3,0,0,1,3-1.79c1.79,0,3.19,1.09,3.19,3.63v6.14h-1.65V112c0-1.44-.56-2.41-2-2.41-1.8,0-2.53,1.37-2.53,3.29v5h-1.65Z"/><path class="cls-4" d="M394.38,117.05c0,3.06-1.26,4.8-4.38,4.8-2.89,0-3.78-1.62-3.95-2.92h1.68a2.16,2.16,0,0,0,2.34,1.6c2.17,0,2.71-1.37,2.71-3.57v-.77a2.92,2.92,0,0,1-3,1.68c-2.35,0-4-1.92-4-4.72,0-3.11,1.82-5,4.13-5,1.82,0,2.59.86,2.81,1.49,0-.43.06-1.07.08-1.27h1.55c0,.56,0,1.84,0,2.76Zm-6.82-4c0,2,1,3.38,2.6,3.38,2.06,0,2.66-1.38,2.66-3.5s-.56-3.42-2.6-3.42C388.45,109.54,387.56,111,387.56,113.08Z"/><path class="cls-4" d="M404.93,106.3H400.7v-1.49h10.21v1.49h-4.23v11.61h-1.75Z"/><path class="cls-4" d="M411.57,113.44c0,1.94,1,3.32,2.61,3.32a2.21,2.21,0,0,0,2.31-1.48h1.66a3.88,3.88,0,0,1-4,2.86c-3,0-4.22-2.44-4.22-4.9,0-2.84,1.43-5.1,4.33-5.1,3.08,0,4.09,2.47,4.09,4.51a6.7,6.7,0,0,1,0,.79Zm5.09-1.16c0-1.57-.81-2.84-2.44-2.84s-2.42,1.17-2.59,2.84Z"/><path class="cls-4" d="M428.09,115a3.81,3.81,0,0,1-3.95,3.15c-2.63,0-4.26-1.89-4.26-5,0-2.7,1.53-5,4.38-5a3.57,3.57,0,0,1,3.83,3.19h-1.64a2.12,2.12,0,0,0-2.22-1.81c-1.69,0-2.65,1.44-2.65,3.61s.93,3.64,2.59,3.64a2.27,2.27,0,0,0,2.28-1.78Z"/><path class="cls-4" d="M431.71,104.09v5.68a3.2,3.2,0,0,1,3-1.63c1.53,0,3.22.84,3.22,3.68v6.09h-1.65v-5.82c0-1.62-.68-2.52-2.07-2.52-1.72,0-2.48,1.13-2.48,3.12v5.22h-1.65V104.09Z"/><path class="cls-4" d="M440.73,110.77c0-.83,0-1.67,0-2.41h1.6c.05.29.07,1.29.07,1.57a3,3,0,0,1,3-1.79c1.79,0,3.19,1.09,3.19,3.63v6.14h-1.65V112c0-1.44-.56-2.41-2-2.41-1.8,0-2.52,1.37-2.52,3.29v5h-1.65Z"/><path class="cls-4" d="M451.38,104.09H453v2.06h-1.65Zm0,4.27H453v9.55h-1.65Z"/><path class="cls-4" d="M462.15,116.54a3,3,0,0,1-3,1.6c-2.16,0-4-1.72-4-4.9s1.9-5.1,4.2-5.1c1.77,0,2.56.81,2.78,1.44,0-.35,0-.83.06-1.22h1.56c0,1,0,1.77,0,2.64v10.67h-1.6Zm-5.27-3.37c0,1.93.84,3.57,2.65,3.57,2.06,0,2.66-1.42,2.66-3.65s-.53-3.54-2.6-3.54C457.81,109.55,456.88,111.06,456.88,113.17Z"/><path class="cls-4" d="M474.24,115.13c0,.93,0,2.22,0,2.78h-1.6a12.09,12.09,0,0,1-.06-1.43,2.85,2.85,0,0,1-2.9,1.66c-1.6,0-3.15-.8-3.15-3.5v-6.28h1.64v5.93c0,1.25.39,2.41,2,2.41,1.76,0,2.44-1,2.44-3.36v-5h1.64Z"/><path class="cls-4" d="M478.08,113.44c0,1.94,1,3.32,2.61,3.32a2.19,2.19,0,0,0,2.3-1.48h1.66a3.87,3.87,0,0,1-4,2.86c-3,0-4.23-2.44-4.23-4.9,0-2.84,1.43-5.1,4.33-5.1,3.08,0,4.09,2.47,4.09,4.51,0,.29,0,.53,0,.79Zm5.08-1.16c0-1.57-.81-2.84-2.44-2.84s-2.42,1.17-2.59,2.84Z"/><path class="cls-4" d="M487.89,115.18a2.18,2.18,0,0,0,2.34,1.66c1.4,0,2-.61,2-1.47s-.44-1.31-2.26-1.75c-2.73-.67-3.3-1.5-3.3-2.8s1-2.68,3.44-2.68,3.48,1.42,3.6,2.75h-1.6a1.87,1.87,0,0,0-2.07-1.47c-1.34,0-1.73.64-1.73,1.27s.39,1.06,2.14,1.48c2.9.69,3.47,1.65,3.47,3.07,0,1.68-1.32,2.9-3.7,2.9s-3.68-1.25-3.93-3Z"/><polygon class="cls-5" points="25.63 73.65 23.08 76.2 23.08 99.55 39.51 99.55 39.51 87.53 25.63 73.65"/><polygon class="cls-6" points="47.57 91.53 47.57 105.96 64 105.96 64 75.09 47.57 91.53"/><polygon class="cls-7" points="81.52 57.57 72.06 67.04 72.06 100.04 88.49 100.04 88.49 64.54 81.52 57.57"/><polygon class="cls-8" points="11.61 77.12 5.02 70.53 25.63 49.92 45.54 69.83 79.39 35.97 85.98 42.56 45.54 83 25.63 63.09 11.61 77.12"/><path class="cls-9" d="M102.55,85.39a55.44,55.44,0,1,0-17.72,17.74l18.82,18.81a12.54,12.54,0,0,0,17.72,0h0a12.52,12.52,0,0,0,0-17.72ZM56.31,100.91a44.84,44.84,0,1,1,44-44A44.85,44.85,0,0,1,56.31,100.91Z"/><polygon class="cls-10" points="65.83 31.34 90.62 56.12 98.59 23.37 65.83 31.34"/><path class="cls-11" d="M102.46,85.5A56.16,56.16,0,0,1,85,103l-.12.09,7.4,7.39a55.52,55.52,0,0,0,13.08-22.37l-2.76-2.76Z"/></svg>