<svg width="1123" height="406" viewBox="0 0 1123 406" fill="none" xmlns="http://www.w3.org/2000/svg">
<g clip-path="url(#clip0_1_7)">
<path d="M0 351.949H26.7185V356.638H5.42591V370.13H25.4031V374.82H5.42591V393.495H0V351.949Z" fill="#008080"/>
<path d="M32.7199 349.645H37.9814V356.227H32.7199V349.645ZM32.7199 363.22H37.9814V393.577H32.7199V363.22Z" fill="#008080"/>
<path d="M46.8602 370.871C46.8602 368.238 46.8602 365.606 46.778 363.22H51.875C52.0395 364.125 52.1217 367.333 52.0395 368.238C53.2726 365.606 55.739 362.562 61.5759 362.562C67.2485 362.562 71.6878 366.017 71.6878 374.079V393.577H66.5908V374.738C66.5908 370.13 64.7821 367.087 60.1783 367.087C54.4236 367.087 52.1217 371.447 52.1217 377.535V393.577H46.8602V370.871Z" fill="#008080"/>
<path d="M102.928 386.913C102.928 389.711 103.175 392.672 103.339 393.495H98.3242C98.0775 392.837 97.9131 391.356 97.8309 389.546C96.7621 391.603 94.378 394.235 88.4589 394.235C81.3065 394.235 78.2647 389.546 78.2647 384.939C78.2647 378.193 83.6084 375.067 92.5694 375.067C94.7069 375.067 96.5977 375.067 97.7487 375.067V372.516C97.7487 369.884 96.9266 366.593 91.254 366.593C86.157 366.593 85.3348 369.143 84.7594 371.447H79.7445C80.1556 367.251 82.7041 362.479 91.4184 362.479C98.8174 362.479 102.928 365.523 102.928 372.434V386.913ZM97.8309 378.769C96.8444 378.769 94.5425 378.769 92.8982 378.769C86.8968 378.769 83.6084 380.414 83.6084 384.692C83.6084 387.818 85.7459 390.122 89.5276 390.122C96.8444 390.122 97.8309 385.186 97.8309 379.674V378.769Z" fill="#008080"/>
<path d="M111.971 370.871C111.971 368.238 111.971 365.606 111.889 363.22H116.986C117.15 364.125 117.233 367.333 117.15 368.238C118.384 365.606 120.85 362.562 126.687 362.562C132.359 362.562 136.799 366.017 136.799 374.079V393.577H131.537V374.738C131.537 370.13 129.729 367.087 125.125 367.087C119.37 367.087 117.068 371.447 117.068 377.535V393.577H111.807V370.871H111.971Z" fill="#008080"/>
<path d="M169.683 384.281C168.368 389.464 164.833 394.235 157.187 394.235C148.884 394.235 143.705 388.23 143.705 378.522C143.705 369.966 148.555 362.479 157.598 362.479C166.313 362.479 169.354 368.732 169.765 372.599H164.586C163.846 369.472 161.873 366.84 157.516 366.84C152.172 366.84 149.13 371.447 149.13 378.357C149.13 385.268 152.09 389.875 157.352 389.875C161.133 389.875 163.353 387.818 164.586 384.199H169.683V384.281Z" fill="#008080"/>
<path d="M176.507 349.645H181.768V356.227H176.507V349.645ZM176.507 363.22H181.768V393.577H176.507V363.22Z" fill="#008080"/>
<path d="M212.844 386.913C212.844 389.711 213.09 392.672 213.255 393.495H208.24C207.993 392.837 207.829 391.356 207.747 389.546C206.678 391.603 204.294 394.235 198.375 394.235C191.222 394.235 188.181 389.546 188.181 384.939C188.181 378.193 193.524 375.067 202.485 375.067C204.623 375.067 206.514 375.067 207.665 375.067V372.516C207.665 369.884 206.842 366.593 201.17 366.593C196.073 366.593 195.251 369.143 194.675 371.447H189.578C189.989 367.251 192.538 362.479 201.252 362.479C208.651 362.479 212.762 365.523 212.762 372.434V386.913H212.844ZM207.747 378.769C206.76 378.769 204.458 378.769 202.814 378.769C196.813 378.769 193.524 380.414 193.524 384.692C193.524 387.818 195.662 390.122 199.443 390.122C206.76 390.122 207.747 385.186 207.747 379.674V378.769Z" fill="#008080"/>
<path d="M221.969 393.495V349.645H227.231V393.577H221.969V393.495Z" fill="#008080"/>
<path d="M288.478 372.516C288.478 383.952 282.065 394.153 268.994 394.153C256.744 394.153 249.921 384.692 249.921 372.763C249.921 360.834 256.909 351.373 269.487 351.373C281.161 351.291 288.478 360.094 288.478 372.516ZM255.676 372.516C255.676 381.484 260.28 389.382 269.24 389.382C278.859 389.382 282.723 381.401 282.723 372.516C282.723 363.549 278.366 355.98 269.24 355.98C259.786 356.062 255.676 363.631 255.676 372.516Z" fill="#008080"/>
<path d="M301.221 389.793V405.424H295.959V370.542C295.959 368.074 295.959 365.523 295.877 363.138H300.974C301.056 364.125 301.138 366.017 301.138 367.909C302.783 364.865 305.824 362.397 311.004 362.397C317.992 362.397 323.089 368.238 323.089 377.535C323.089 388.394 317.252 394.153 309.935 394.153C305.084 394.235 302.536 392.179 301.221 389.793ZM317.827 377.782C317.827 371.365 314.867 366.922 309.77 366.922C303.522 366.922 300.974 370.871 300.974 378.275C300.974 385.433 303.029 389.793 309.359 389.793C314.867 389.793 317.827 385.268 317.827 377.782Z" fill="#008080"/>
<path d="M333.529 379.345C333.529 385.515 336.653 389.875 341.833 389.875C346.601 389.875 348.163 387.407 349.149 385.186H354.411C353.178 389.052 349.972 394.235 341.668 394.235C332.132 394.235 328.268 386.502 328.268 378.687C328.268 369.637 332.789 362.479 341.997 362.479C351.78 362.479 354.986 370.295 354.986 376.794C354.986 377.699 354.986 378.522 354.904 379.345H333.529ZM349.643 375.643C349.56 370.624 347.094 366.675 341.915 366.675C336.571 366.675 334.269 370.377 333.694 375.643H349.643Z" fill="#008080"/>
<path d="M361.728 371.447C361.728 367.169 361.728 364.783 361.645 363.22H366.743C366.825 364.043 366.907 366.428 366.907 369.39C368.469 365.277 372.086 362.644 377.101 362.479V367.662C370.853 367.827 366.907 371.118 366.907 378.769V393.495H361.728V371.447Z" fill="#008080"/>
<path d="M404.313 386.913C404.313 389.711 404.56 392.672 404.724 393.495H399.709C399.462 392.837 399.298 391.356 399.216 389.546C398.147 391.603 395.763 394.235 389.844 394.235C382.691 394.235 379.65 389.546 379.65 384.939C379.65 378.193 384.993 375.067 393.954 375.067C396.092 375.067 397.983 375.067 399.134 375.067V372.516C399.134 369.884 398.312 366.593 392.639 366.593C387.542 366.593 386.72 369.143 386.144 371.447H381.047C381.458 367.251 384.007 362.479 392.721 362.479C400.12 362.479 404.231 365.523 404.231 372.434V386.913H404.313ZM399.216 378.769C398.229 378.769 395.927 378.769 394.283 378.769C388.282 378.769 384.993 380.414 384.993 384.692C384.993 387.818 387.131 390.122 390.913 390.122C398.229 390.122 399.216 385.186 399.216 379.674V378.769Z" fill="#008080"/>
<path d="M409.081 363.22H414.343V354.253H419.604V363.22H426.263V367.498H419.604V385.268C419.604 388.23 420.344 389.711 423.057 389.711C423.797 389.711 424.866 389.711 425.688 389.464V393.413C424.372 393.906 422.564 393.989 421.166 393.989C416.48 393.989 414.343 391.521 414.343 386.502V367.498H409.081V363.22Z" fill="#008080"/>
<path d="M431.771 349.645H437.033V356.227H431.771V349.645ZM431.771 363.22H437.033V393.577H431.771V363.22Z" fill="#008080"/>
<path d="M471.972 378.275C471.972 386.996 466.958 394.235 457.668 394.235C448.953 394.235 443.774 387.489 443.774 378.44C443.774 369.472 448.953 362.479 458.079 362.479C466.464 362.479 471.972 368.814 471.972 378.275ZM449.2 378.357C449.2 385.021 452.488 389.875 457.997 389.875C463.505 389.875 466.629 385.268 466.629 378.357C466.629 371.529 463.505 366.84 457.832 366.84C452.16 366.84 449.2 371.447 449.2 378.357Z" fill="#008080"/>
<path d="M478.796 370.871C478.796 368.238 478.796 365.606 478.714 363.22H483.811C483.975 364.125 484.057 367.333 483.975 368.238C485.208 365.606 487.675 362.562 493.512 362.562C499.184 362.562 503.624 366.017 503.624 374.079V393.577H498.362V374.738C498.362 370.13 496.553 367.087 491.95 367.087C486.195 367.087 483.893 371.447 483.893 377.535V393.577H478.632V370.871H478.796Z" fill="#008080"/>
<path d="M514.886 384.857C515.791 388.147 518.175 390.122 522.285 390.122C526.725 390.122 528.451 388.23 528.451 385.433C528.451 382.635 527.054 381.319 521.299 379.838C512.667 377.699 510.858 375.067 510.858 370.953C510.858 366.675 513.982 362.397 521.792 362.397C529.602 362.397 532.808 366.922 533.219 371.118H528.122C527.711 369.143 526.232 366.428 521.546 366.428C517.271 366.428 516.037 368.485 516.037 370.46C516.037 372.763 517.271 373.833 522.861 375.149C532.069 377.288 533.877 380.414 533.877 384.939C533.877 390.287 529.684 394.153 522.121 394.153C514.311 394.153 510.447 390.204 509.625 384.774H514.886V384.857Z" fill="#008080"/>
<path d="M562.158 375.231V393.577H556.732V351.949H573.01C581.559 351.949 586.081 356.556 586.081 363.055C586.081 368.485 582.957 371.776 579.011 372.845C582.382 373.75 585.341 376.301 585.341 383.54V385.35C585.341 388.23 585.177 391.85 585.917 393.577H580.573C579.833 391.767 579.833 388.559 579.833 384.61V383.705C579.833 377.782 578.189 375.231 570.708 375.231H562.158ZM562.158 370.542H571.201C577.531 370.542 580.326 368.156 580.326 363.467C580.326 359.024 577.449 356.556 571.776 356.556H562.076V370.542H562.158Z" fill="#008080"/>
<path d="M597.344 379.345C597.344 385.515 600.468 389.875 605.647 389.875C610.415 389.875 611.977 387.407 612.964 385.186H618.225C616.992 389.052 613.786 394.235 605.483 394.235C595.946 394.235 592.082 386.502 592.082 378.687C592.082 369.637 596.604 362.479 605.812 362.479C615.595 362.479 618.801 370.295 618.801 376.794C618.801 377.699 618.801 378.522 618.719 379.345H597.344ZM613.457 375.643C613.375 370.624 610.909 366.675 605.729 366.675C600.386 366.675 598.084 370.377 597.508 375.643H613.457Z" fill="#008080"/>
<path d="M630.722 389.793V405.424H625.542V370.542C625.542 368.074 625.542 365.523 625.46 363.138H630.557C630.639 364.125 630.722 366.017 630.722 367.909C632.366 364.865 635.408 362.397 640.587 362.397C647.575 362.397 652.672 368.238 652.672 377.535C652.672 388.394 646.835 394.153 639.518 394.153C634.668 394.235 632.119 392.179 630.722 389.793ZM647.328 377.782C647.328 371.365 644.369 366.922 639.271 366.922C633.023 366.922 630.475 370.871 630.475 378.275C630.475 385.433 632.53 389.793 638.86 389.793C644.369 389.793 647.328 385.268 647.328 377.782Z" fill="#008080"/>
<path d="M685.967 378.275C685.967 386.996 680.952 394.235 671.663 394.235C662.948 394.235 657.769 387.489 657.769 378.44C657.769 369.472 662.948 362.479 672.074 362.479C680.459 362.479 685.967 368.814 685.967 378.275ZM663.195 378.357C663.195 385.021 666.483 389.875 671.991 389.875C677.499 389.875 680.624 385.268 680.624 378.357C680.624 371.529 677.499 366.84 671.827 366.84C666.154 366.84 663.195 371.447 663.195 378.357Z" fill="#008080"/>
<path d="M692.791 371.447C692.791 367.169 692.791 364.783 692.708 363.22H697.806C697.888 364.043 697.97 366.428 697.97 369.39C699.532 365.277 703.149 362.644 708.164 362.479V367.662C701.916 367.827 697.97 371.118 697.97 378.769V393.495H692.708V371.447H692.791Z" fill="#008080"/>
<path d="M711.617 363.22H716.878V354.253H722.14V363.22H728.799V367.498H722.14V385.268C722.14 388.23 722.88 389.711 725.593 389.711C726.333 389.711 727.401 389.711 728.224 389.464V393.413C726.908 393.906 725.1 393.989 723.702 393.989C719.016 393.989 716.878 391.521 716.878 386.502V367.498H711.617V363.22Z" fill="#008080"/>
<path d="M734.307 349.645H739.569V356.227H734.307V349.645ZM734.307 363.22H739.569V393.577H734.307V363.22Z" fill="#008080"/>
<path d="M748.447 370.871C748.447 368.238 748.447 365.606 748.365 363.22H753.462C753.627 364.125 753.709 367.333 753.627 368.238C754.86 365.606 757.326 362.562 763.163 362.562C768.836 362.562 773.275 366.017 773.275 374.079V393.577H768.014V374.738C768.014 370.13 766.205 367.087 761.601 367.087C755.846 367.087 753.544 371.447 753.544 377.535V393.577H748.283V370.871H748.447Z" fill="#008080"/>
<path d="M807.228 390.78C807.228 400.488 803.2 406 793.335 406C784.127 406 781.332 400.817 780.756 396.704H786.1C787.004 399.994 789.635 401.804 793.581 401.804C800.487 401.804 802.131 397.444 802.131 390.451V387.983C800.487 391.356 797.774 393.33 792.677 393.33C785.196 393.33 780.099 387.243 780.099 378.357C780.099 368.485 785.853 362.397 793.17 362.397C798.925 362.397 801.391 365.112 802.131 367.169C802.213 365.77 802.296 363.796 802.378 363.138H807.31C807.31 364.865 807.228 368.979 807.228 371.858V390.78ZM785.607 378.193C785.607 384.61 788.895 388.888 793.91 388.888C800.487 388.888 802.378 384.528 802.378 377.782C802.378 370.953 800.569 366.922 794.074 366.922C788.402 366.922 785.607 371.611 785.607 378.193Z" fill="#008080"/>
<path d="M840.688 356.638H827.288V351.949H859.679V356.638H846.196V393.495H840.606V356.638H840.688Z" fill="#008080"/>
<path d="M861.816 379.345C861.816 385.515 864.94 389.875 870.119 389.875C874.888 389.875 876.45 387.407 877.436 385.186H882.698C881.465 389.052 878.258 394.235 869.955 394.235C860.419 394.235 856.555 386.502 856.555 378.687C856.555 369.637 861.076 362.479 870.284 362.479C880.067 362.479 883.273 370.295 883.273 376.794C883.273 377.699 883.273 378.522 883.191 379.345H861.816ZM877.93 375.643C877.847 370.624 875.381 366.675 870.202 366.675C864.858 366.675 862.556 370.377 861.981 375.643H877.93Z" fill="#008080"/>
<path d="M914.184 384.281C912.869 389.464 909.334 394.235 901.688 394.235C893.385 394.235 888.206 388.23 888.206 378.522C888.206 369.966 893.056 362.479 902.1 362.479C910.814 362.479 913.856 368.732 914.267 372.599H909.087C908.348 369.472 906.374 366.84 902.017 366.84C896.674 366.84 893.632 371.447 893.632 378.357C893.632 385.268 896.591 389.875 901.853 389.875C905.635 389.875 907.854 387.818 909.087 384.199H914.184V384.281Z" fill="#008080"/>
<path d="M925.694 349.645V367.662C927.256 365.03 929.969 362.479 935.148 362.479C939.999 362.479 945.342 365.112 945.342 374.162V393.495H940.163V374.984C940.163 369.801 937.943 367.004 933.586 367.004C928.16 367.004 925.694 370.624 925.694 376.959V393.495H920.432V349.645H925.694Z" fill="#008080"/>
<path d="M954.303 370.871C954.303 368.238 954.303 365.606 954.221 363.22H959.318C959.483 364.125 959.565 367.333 959.483 368.238C960.716 365.606 963.182 362.562 969.019 362.562C974.692 362.562 979.131 366.017 979.131 374.079V393.577H973.87V374.738C973.87 370.13 972.061 367.087 967.457 367.087C961.702 367.087 959.4 371.447 959.4 377.535V393.577H954.139V370.871H954.303Z" fill="#008080"/>
<path d="M988.092 349.645H993.354V356.227H988.092V349.645ZM988.092 363.22H993.354V393.577H988.092V363.22Z" fill="#008080"/>
<path d="M1022.29 389.135C1020.73 392.343 1017.93 394.235 1012.67 394.235C1005.77 394.235 1000.09 388.806 1000.09 378.687C1000.09 368.485 1006.18 362.479 1013.41 362.479C1019 362.479 1021.55 365.03 1022.21 367.087C1022.21 366.017 1022.29 364.454 1022.37 363.22H1027.31C1027.31 366.346 1027.22 368.814 1027.22 371.611V405.506H1022.13V389.135H1022.29ZM1005.6 378.44C1005.6 384.528 1008.23 389.793 1013.99 389.793C1020.57 389.793 1022.46 385.268 1022.46 378.193C1022.46 371.035 1020.73 366.922 1014.24 366.922C1008.56 367.004 1005.6 371.776 1005.6 378.44Z" fill="#008080"/>
<path d="M1060.68 384.692C1060.68 387.654 1060.68 391.767 1060.77 393.495H1055.67C1055.59 392.672 1055.5 390.862 1055.5 388.97C1054.03 392.343 1051.07 394.235 1046.3 394.235C1041.2 394.235 1036.27 391.685 1036.27 383.129V363.22H1041.45V382.06C1041.45 386.008 1042.68 389.711 1047.69 389.711C1053.29 389.711 1055.42 386.584 1055.42 379.016V363.22H1060.68V384.692Z" fill="#008080"/>
<path d="M1072.85 379.345C1072.85 385.515 1075.98 389.875 1081.15 389.875C1085.92 389.875 1087.48 387.407 1088.47 385.186H1093.73C1092.5 389.052 1089.29 394.235 1080.99 394.235C1071.45 394.235 1067.59 386.502 1067.59 378.687C1067.59 369.637 1072.11 362.479 1081.32 362.479C1091.1 362.479 1094.31 370.295 1094.31 376.794C1094.31 377.699 1094.31 378.522 1094.23 379.345H1072.85ZM1088.96 375.643C1088.88 370.624 1086.42 366.675 1081.24 366.675C1075.89 366.675 1073.59 370.377 1073.02 375.643H1088.96Z" fill="#008080"/>
<path d="M1104.01 384.857C1104.91 388.147 1107.3 390.122 1111.41 390.122C1115.85 390.122 1117.57 388.23 1117.57 385.433C1117.57 382.635 1116.18 381.319 1110.42 379.838C1101.79 377.699 1099.98 375.067 1099.98 370.953C1099.98 366.675 1103.11 362.397 1110.92 362.397C1118.73 362.397 1121.93 366.922 1122.34 371.118H1117.25C1116.83 369.143 1115.35 366.428 1110.67 366.428C1106.39 366.428 1105.16 368.485 1105.16 370.46C1105.16 372.763 1106.39 373.833 1111.98 375.149C1121.19 377.288 1123 380.414 1123 384.939C1123 390.287 1118.81 394.153 1111.24 394.153C1103.43 394.153 1099.57 390.204 1098.75 384.774H1104.01V384.857Z" fill="#008080"/>
<path d="M7.15234 24.1872H23.1012V311.226H7.15234V24.1872ZM54.9168 24.1872H190.4V40.1475H54.9168V24.1872ZM54.9168 71.9858H190.4V87.9461H70.8657V135.827H190.4V151.787H54.9168V143.807V88.0284V71.9858ZM54.9168 183.626H190.4V199.586H70.8657V311.226H54.9168V199.586V183.626Z" fill="#008080"/>
<path d="M649.466 24.1872H665.414V311.226H649.466V24.1872ZM697.312 24.1872H769C817.587 24.1872 856.637 63.2652 856.637 111.887C856.637 144.548 838.304 174.905 808.79 190.043L872.504 311.226H854.582L794.157 195.966L786.593 181.24C790.539 180.006 794.157 178.854 797.774 177.62C801.72 176.057 804.926 174 808.544 171.614C828.439 158.451 840.77 136.156 840.77 111.804C840.77 72.3149 808.544 40.0652 769.082 40.0652H697.394V24.1872H697.312ZM697.312 71.9858H769C790.868 71.9858 808.872 89.9206 808.872 111.887C808.872 133.852 790.95 151.787 769 151.787H697.312V139.858V88.0284V71.9858ZM733.567 183.626H751.9L818.409 311.226H800.487L741.953 199.586H713.261V311.226H697.312V199.586V183.626H733.567ZM713.261 87.9461V135.827H769.082C782.236 135.827 793.006 125.05 793.006 111.887C793.006 98.7234 782.236 87.9461 769.082 87.9461H713.261Z" fill="#008080"/>
<path d="M899.798 32.9078H1122.92V48.8681H899.798V32.9078ZM899.798 80.7887H979.46H995.409V96.7489V320.028H979.46V96.6667H899.798V80.7887ZM1027.31 80.7887H1043.26H1122.92V96.7489H1043.26V320.028H1027.31V96.6667V80.7887Z" fill="#008080"/>
<path d="M376.937 193.416L372.744 199.586V256.023H399.874C399.462 242.695 399.051 229.367 398.64 216.04C391.406 208.471 384.171 200.984 376.937 193.416Z" fill="black"/>
<path d="M413.192 229.614V259.313H440.321V195.801L413.192 229.614Z" fill="black"/>
<path d="M469.177 166.925L453.557 186.752V256.023H480.687V181.487L469.177 166.925Z" fill="black"/>
<path d="M590.274 140.681L551.224 131.055C548.922 123.651 545.88 116.494 542.18 109.583C548.017 99.7929 560.349 79.3078 560.349 79.3078C562.733 75.3589 562.075 70.3404 558.869 67.1319L530.671 38.9135C527.465 35.705 522.45 35.0468 518.504 37.4326L488.168 55.6142C481.344 51.9943 474.192 49.0326 466.875 46.6468L457.339 7.56879C456.27 3.12624 452.242 0.0822695 447.72 0H407.766C403.244 0 399.216 3.12624 398.147 7.56879C398.147 7.56879 391.488 34.8823 388.611 46.6468C380.801 49.1149 373.155 52.4057 366.003 56.2723L334.516 37.3504C330.57 34.9645 325.637 35.6227 322.349 38.8312L294.15 67.0496C290.944 70.2582 290.286 75.2766 292.588 79.2255L312.072 111.722C308.948 117.892 306.318 124.309 304.262 130.973L265.13 140.681C260.691 141.75 257.567 145.782 257.567 150.306V190.207C257.567 194.814 260.691 198.763 265.13 199.915L304.18 209.458C306.564 216.945 309.606 224.267 313.388 231.26L295.959 260.383C293.657 264.25 294.233 269.268 297.521 272.559L325.719 300.777C328.926 303.986 333.94 304.644 337.887 302.34C337.887 302.34 357.453 290.658 366.989 284.899C373.895 288.601 381.129 291.645 388.611 294.031L398.147 333.109C399.216 337.552 403.244 340.678 407.766 340.678H447.638C452.16 340.678 456.188 337.552 457.257 333.109L466.793 294.031C474.439 291.645 481.838 288.437 488.908 284.652C498.773 290.576 518.421 302.423 518.421 302.423C522.368 304.726 527.383 304.15 530.589 300.86L558.787 272.641C561.993 269.433 562.651 264.414 560.267 260.465L542.345 230.519C545.88 223.855 548.84 216.862 551.059 209.54L590.274 199.915C594.713 198.763 597.837 194.814 597.837 190.207V150.306C597.837 145.699 594.713 141.75 590.274 140.681ZM427.743 287.614C363.043 287.614 310.428 234.962 310.428 170.298C310.428 105.634 363.043 52.9816 427.743 52.9816C492.361 52.9816 544.976 105.634 544.976 170.298C544.976 234.962 492.361 287.614 427.743 287.614ZM427.743 61.4553C367.811 61.4553 318.978 110.241 318.978 170.298C318.978 230.272 367.811 279.14 427.743 279.14C487.675 279.14 536.508 230.355 536.508 170.298C536.508 110.241 487.675 61.4553 427.743 61.4553ZM426.921 257.174C378.581 257.174 339.284 217.85 339.284 169.475C339.284 121.183 378.581 81.8582 426.921 81.8582C475.179 81.8582 514.475 121.183 514.475 169.475C514.558 217.85 475.261 257.174 426.921 257.174Z" fill="#008080"/>
<path d="M497.293 118.057L484.14 172.19L469.095 157.135L409.739 216.533L376.854 183.708L353.753 206.826L342.901 195.966L376.854 161.906L409.739 194.814L458.243 146.275L443.199 131.302L497.293 118.057Z" fill="#008080"/>
</g>
<defs>
<clipPath id="clip0_1_7">
<rect width="1123" height="406" fill="white"/>
</clipPath>
</defs>
</svg>