<svg width="1826" height="470" viewBox="0 0 1826 470" fill="none" xmlns="http://www.w3.org/2000/svg">
<path d="M0 38.002H300.749V122.643H122.277V191.423H274.693V271.039H122.277V431.998H0V38.002Z" fill="#ffffff"/>
<path d="M950.594 431.998V38.002H1153.24C1182.46 36.7216 1211.72 39.791 1240.04 47.1099C1259.33 53.7175 1275.89 66.5279 1287.13 83.5416C1299.65 102.456 1306.01 124.781 1305.34 147.454C1306.08 167.227 1301.42 186.829 1291.84 204.143C1282.53 220.052 1269.29 233.301 1253.38 242.616C1240.04 250.015 1225.64 255.312 1210.69 258.319C1221.82 261.522 1232.41 266.393 1242.08 272.766C1249.34 278.907 1255.87 285.862 1261.55 293.495C1268 301.109 1273.73 309.31 1278.66 317.992L1337.52 432.155H1200.33L1135.34 311.711C1130.19 300.159 1122.64 289.831 1113.21 281.403C1104.42 275.159 1093.85 271.911 1083.07 272.138H1072.24V431.998H950.594ZM1072.71 197.705H1124.04C1134.65 196.785 1145.15 194.946 1155.44 192.208C1163.35 190.81 1170.43 186.426 1175.21 179.96C1180.62 173.536 1183.61 165.429 1183.69 157.033C1184.02 151.566 1183.1 146.096 1181.01 141.036C1178.92 135.976 1175.7 131.458 1171.6 127.825C1158.01 119.545 1142.07 115.959 1126.24 117.618H1072.71V197.705Z" fill="#ffffff"/>
<path d="M1456.19 38.002H1826V135.363H1701.84V431.998H1580.19V135.363H1456.19V38.002Z" fill="#ffffff"/>
<path d="M571.204 266.956L565.396 275.436V353.953H602.754C602.754 335.58 601.655 317.05 601.028 298.677L571.204 266.956Z" fill="#008180"/>
<path d="M621.119 316.893V357.878H658.635V270.254L621.119 316.893Z" fill="#008180"/>
<path d="M698.504 230.368L677 257.691V353.324H714.358V250.468L698.504 230.368Z" fill="#008180"/>
<path d="M865.674 194.093L811.835 180.902C808.554 170.674 804.406 160.744 799.434 151.223L824.549 109.923C826.099 107.276 826.725 104.188 826.327 101.145C825.929 98.1031 824.53 95.2799 822.351 93.1206L783.58 53.7053C781.392 51.5134 778.532 50.1205 775.457 49.7503C772.383 49.3801 769.274 50.054 766.628 51.6639L724.718 76.7892C715.337 71.7577 705.51 67.6048 695.365 64.3836L682.18 10.5212C681.421 7.54424 679.703 4.90035 677.291 2.9985C674.879 1.09665 671.908 0.0428127 668.837 0L613.742 0C610.664 0.016021 607.68 1.05989 605.263 2.96597C602.846 4.87204 601.134 7.53111 600.4 10.5212C600.4 10.5212 591.139 48.0521 587.214 64.3836C576.333 67.7785 565.816 72.2498 555.821 77.7314L512.498 51.6639C509.885 50.0382 506.795 49.3544 503.741 49.7257C500.686 50.0969 497.85 51.501 495.703 53.7053L456.775 92.6495C454.581 94.9168 453.229 97.8668 452.944 101.009C452.658 104.152 453.456 107.297 455.205 109.923L482.203 154.835C477.656 163.164 473.874 171.889 470.902 180.902L416.905 194.093C413.945 194.857 411.323 196.582 409.448 198.998C407.573 201.413 406.552 204.383 406.545 207.441V262.559C406.552 265.617 407.573 268.587 409.448 271.002C411.323 273.418 413.945 275.143 416.905 275.907L470.902 289.098C474.137 299.518 478.341 309.613 483.459 319.248L459.443 359.292C457.671 361.998 456.905 365.241 457.278 368.455C457.651 371.669 459.139 374.651 461.484 376.879L500.255 415.824C502.413 418.003 505.235 419.403 508.276 419.801C511.317 420.199 514.404 419.573 517.05 418.022L557.234 392.583C566.81 397.704 576.848 401.91 587.214 405.145L600.4 459.008C601.109 462.011 602.814 464.686 605.236 466.597C607.659 468.507 610.657 469.541 613.742 469.529H668.837C671.922 469.541 674.92 468.507 677.343 466.597C679.766 464.686 681.47 462.011 682.18 459.008L695.365 405.145C705.89 401.932 716.087 397.725 725.817 392.583C739.473 400.591 766.628 417.08 766.628 417.08C769.298 418.643 772.412 419.275 775.48 418.877C778.548 418.479 781.397 417.074 783.58 414.881L822.351 376.879C824.53 374.72 825.929 371.897 826.327 368.855C826.725 365.812 826.099 362.724 824.549 360.077L800.533 317.992C805.456 308.76 809.502 299.086 812.619 289.098L866.459 275.907C869.435 275.148 872.078 273.429 873.979 271.016C875.88 268.603 876.933 265.631 876.976 262.559V207.441C876.891 204.261 875.725 201.206 873.671 198.779C871.616 196.352 868.795 194.699 865.674 194.093ZM641.211 396.98C609.146 396.979 577.802 387.459 551.149 369.624C524.497 351.789 503.735 326.441 491.493 296.792C479.251 267.144 476.08 234.527 482.381 203.074C488.683 171.621 504.173 142.746 526.891 120.107C549.608 97.4678 578.531 82.083 609.995 75.901C641.459 69.7191 674.05 73.0181 703.638 85.3803C733.227 97.7425 758.483 118.612 776.207 145.344C793.931 172.077 803.326 203.471 803.201 235.55C802.994 278.408 785.841 319.443 755.489 349.69C725.137 379.938 684.052 396.939 641.211 396.98ZM641.211 84.7979C611.521 84.798 582.497 93.6001 557.804 110.092C533.111 126.585 513.857 150.028 502.474 177.46C491.09 204.893 488.088 235.085 493.846 264.224C499.605 293.363 513.865 320.141 534.826 341.177C555.787 362.212 582.509 376.562 611.618 382.414C640.726 388.266 670.915 385.357 698.372 374.055C725.828 362.752 749.321 343.564 765.884 318.912C782.447 294.261 791.336 265.252 791.429 235.55C791.491 215.775 787.651 196.182 780.13 177.895C772.608 159.608 761.553 142.985 747.598 128.98C733.643 114.976 717.062 103.864 698.806 96.2822C680.55 88.7005 660.978 84.7978 641.211 84.7979ZM640.269 354.895C616.32 354.926 592.9 347.847 572.974 334.556C553.048 321.264 537.512 302.357 528.333 280.227C519.154 258.098 516.744 233.741 521.409 210.241C526.073 186.74 537.603 165.153 554.537 148.211C571.472 131.269 593.05 119.735 616.541 115.069C640.031 110.402 664.378 112.813 686.498 121.996C708.618 131.179 727.518 146.722 740.804 166.656C754.09 186.59 761.165 210.02 761.134 233.979C761.093 266.035 748.345 296.767 725.688 319.434C703.03 342.101 672.312 354.853 640.269 354.895Z" fill="#ffffff"/>
<path d="M737.275 163L719.067 237.591L698.347 216.863L616.411 298.834L571.047 253.451L539.183 285.486L524.114 270.568L571.047 223.458L616.411 268.841L683.436 201.945L662.716 181.216L737.275 163Z" fill="#ffffff"/>
</svg>
