<svg viewBox="0 0 1290 265" fill="none" xmlns="http://www.w3.org/2000/svg">
<g clip-path="url(#clip0_18_183)">
<path d="M204.299 97.9175H111.879C105.705 97.9384 99.7888 100.4 95.4216 104.766C91.0543 109.132 88.5898 115.048 88.5654 121.224V241.68C88.5863 247.858 91.0493 253.778 95.4169 258.147C99.7845 262.515 105.702 264.979 111.879 265H204.299C210.475 264.979 216.391 262.515 220.756 258.146C225.122 253.777 227.582 247.857 227.6 241.68V121.224C227.579 115.049 225.117 109.133 220.752 104.767C216.387 100.401 210.472 97.9384 204.299 97.9175ZM214.433 238.977C214.422 242.063 213.192 245.019 211.011 247.201C208.829 249.383 205.874 250.613 202.789 250.624H113.429C110.344 250.613 107.388 249.383 105.207 247.201C103.026 245.019 101.796 242.063 101.785 238.977V123.954C101.792 120.866 103.021 117.906 105.203 115.721C107.384 113.536 110.342 112.304 113.429 112.294H202.789C205.876 112.304 208.834 113.536 211.015 115.721C213.197 117.906 214.426 120.866 214.433 123.954V238.977Z" fill="#238DC1"/>
<path d="M24.8635 152.693C21.7753 152.686 18.8157 151.455 16.6333 149.269C14.4508 147.084 13.2234 144.122 13.2199 141.033V26.0363C13.2269 22.947 14.455 19.986 16.6363 17.7991C18.8177 15.6122 21.7751 14.377 24.8635 14.363H114.21C117.296 14.3805 120.251 15.6172 122.429 17.8037C124.608 19.9902 125.834 22.9493 125.841 26.0363V39.2863H139.087V23.3863C139.089 20.3169 138.486 17.2772 137.314 14.4408C136.141 11.6044 134.421 9.02678 132.253 6.85516C130.084 4.68355 127.509 2.96044 124.675 1.78423C121.84 0.608023 118.802 0.00173952 115.734 0L23.3137 0C17.1359 0.0174809 11.2161 2.48002 6.84772 6.84958C2.47934 11.2191 0.0174762 17.1405 0 23.32L0 143.763C0.0209686 149.94 2.48438 155.858 6.85237 160.224C11.2204 164.591 17.1382 167.052 23.3137 167.069H33.4074V152.693H24.8635Z" fill="#CE0E2D"/>
<path d="M70.696 202.433C67.6124 202.426 64.6568 201.199 62.4751 199.019C60.2934 196.839 59.0629 193.884 59.0524 190.8V75.7767C59.0594 72.6887 60.288 69.729 62.4697 67.5443C64.6514 65.3595 67.6089 64.1272 70.696 64.1167H160.056C163.143 64.1272 166.101 65.3595 168.283 67.5443C170.464 69.729 171.693 72.6887 171.7 75.7767V86.6417H184.88V73.0605C184.862 66.8879 182.406 60.9725 178.046 56.604C173.686 52.2356 167.777 49.7684 161.606 49.7405H69.1462C62.9707 49.7615 57.0543 52.2255 52.6888 56.5947C48.3233 60.9639 45.8632 66.8833 45.8458 73.0605V193.45C45.8632 199.627 48.3233 205.547 52.6888 209.916C57.0543 214.285 62.9707 216.749 69.1462 216.77H76.1403V202.433H70.696Z" fill="#F7BE00"/>
<path d="M355.705 71.9077C365.577 71.8155 375.362 73.7408 384.463 77.5654L390.12 56.2197C384.675 53.3974 372.224 49.7007 354.606 49.7007C309.754 49.7007 276.002 78.8507 276.002 127.253C276.002 172.131 304.309 201.32 350.91 201.32C368.78 201.32 382.702 197.822 389.033 194.788L384.675 173.654C377.496 176.702 366.13 178.888 355.533 178.888C323.066 178.888 304.349 158.404 304.349 125.888C304.309 90.6432 325.861 71.9077 355.705 71.9077Z" fill="#1D1D1B"/>
<path d="M436.932 44.2417H410.148V198.922H436.932V44.2417Z" fill="#1D1D1B"/>
<path d="M511.205 90.4312C477.228 90.4312 459.372 118.097 459.372 147.512C459.372 179.975 479.612 201.108 514.04 201.108C529.286 201.108 541.857 198.273 551.05 194.351L547.142 176.053C537.697 179.363 527.743 180.986 517.735 180.849C500.515 180.849 485.719 172.568 485.07 153.395H556.07C556.682 149.651 556.97 145.86 556.931 142.066C556.931 118.76 545.619 90.4312 511.205 90.4312ZM531.671 134.66H485.07C486.143 123.768 493.137 108.729 509.681 108.729C527.551 108.729 531.896 124.855 531.671 134.66Z" fill="#1D1D1B"/>
<path d="M660.823 135.309C660.823 112.002 651.02 90.4312 617.043 90.4312C600.287 90.4312 586.577 95.0024 578.708 99.7989L583.941 117.236C592.577 112.11 602.431 109.397 612.473 109.379C631.204 109.379 634.039 120.933 634.039 127.929V129.664C594.829 129.439 571.092 143.179 571.092 169.759C571.092 185.871 583.08 201.347 604.42 201.347C618.355 201.347 629.469 195.464 635.774 187.183H636.423L638.397 198.949H662.571C661.247 192.416 660.823 183.049 660.823 173.469V135.309ZM634.688 161.65C634.793 163.629 634.574 165.612 634.039 167.52C632.483 171.854 629.607 175.591 625.818 178.205C622.028 180.82 617.514 182.18 612.911 182.095C604.42 182.095 597.664 177.298 597.664 166.857C597.664 150.732 615.745 146.81 634.688 146.982V161.65Z" fill="#1D1D1B"/>
<path d="M713.093 112.877H712.444L711.331 92.8295H688.269C688.918 102.197 689.13 112.704 689.13 127.041V198.922H715.928V143.802C715.908 141.103 716.125 138.407 716.577 135.746C718.988 123.543 727.903 115.487 740.526 115.487C743.225 115.455 745.921 115.673 748.58 116.136V91.0937C746.511 90.6276 744.395 90.4053 742.275 90.4312C730.724 90.4312 718.312 98.05 713.093 112.877Z" fill="#1D1D1B"/>
<path d="M831.132 120.496V119.846C846.365 114.401 855.955 101.972 855.955 87.609C855.955 76.055 851.16 67.3365 843.544 61.6788C834.616 54.272 822.416 50.9993 803.46 50.9993C790.399 50.9993 777.113 52.3243 768.847 54.272V198.485C778.595 199.729 788.415 200.313 798.241 200.234C822.204 200.234 838.748 195.875 848.776 186.507C852.861 182.792 856.101 178.244 858.279 173.17C860.457 168.095 861.521 162.613 861.4 157.092C861.4 135.309 845.12 123.768 831.132 120.496ZM787.789 66.8993C793.319 65.8796 798.939 65.4356 804.559 65.5743C823.714 65.5743 836.576 72.557 836.576 89.5435C836.576 103.708 824.813 114.387 804.997 114.387H787.776L787.789 66.8993ZM803.685 185.421C798.372 185.545 793.057 185.252 787.789 184.546V128.525H803.46C824.164 128.525 841.371 137.032 841.371 156.854C841.371 178.226 823.29 185.421 803.685 185.421Z" fill="#1D1D1B"/>
<path d="M931.738 91.3057C902.781 91.3057 879.468 112.002 879.468 147.075C879.468 180.399 901.682 201.32 930.003 201.32C955.264 201.32 982.498 184.321 982.498 145.326C982.498 113.314 962.019 91.3057 931.738 91.3057ZM930.877 186.944C912.147 186.944 899.086 169.52 899.086 146.426C899.086 126.551 908.875 105.682 931.314 105.682C953.966 105.682 962.894 128.114 962.894 145.975C962.894 169.732 949.17 186.944 930.877 186.944Z" fill="#1D1D1B"/>
<path d="M1051.31 91.3057C1022.33 91.3057 999.043 112.002 999.043 147.075C999.043 180.399 1021.26 201.32 1049.56 201.32C1074.83 201.32 1102.05 184.321 1102.05 145.326C1102.1 113.314 1081.58 91.3057 1051.31 91.3057ZM1050.44 186.944C1031.71 186.944 1018.65 169.52 1018.65 146.426C1018.65 126.551 1028.45 105.682 1050.89 105.682C1073.54 105.682 1082.47 128.114 1082.47 145.975C1082.46 169.732 1068.75 186.944 1050.44 186.944Z" fill="#1D1D1B"/>
<path d="M1208.77 93.4919H1185.9L1154.75 129.85C1151.71 133.56 1148.22 138.118 1145.6 141.775H1145.18V44.2417H1126.22V198.922H1145.18V159.265L1154.97 148.373L1191.13 198.922H1214.69L1168.33 136.833L1208.77 93.4919Z" fill="#1D1D1B"/>
<path d="M1262.38 137.919C1248.62 132.5 1242.51 128.525 1242.51 119.846C1242.51 112.002 1248.61 105.457 1259.93 105.457C1267.57 105.503 1275.04 107.698 1281.5 111.79L1286.07 97.8379C1280.41 94.1279 1271.04 91.3057 1260.37 91.3057C1237.95 91.3057 1223.97 105.245 1223.97 122.244C1223.97 134.872 1232.91 145.114 1252.08 152.083C1266.01 157.383 1271.46 162.1 1271.46 171.256C1271.46 180.2 1264.92 186.944 1251.2 186.944C1241.61 186.944 1231.6 182.969 1225.72 179.537L1221.13 193.914C1228.55 198.273 1239.21 201.32 1250.76 201.32C1275.38 201.32 1289.96 188.243 1289.96 169.52C1290 153.832 1280.42 144.69 1262.38 137.919Z" fill="#1D1D1B"/>
</g>
<defs>
<clipPath id="clip0_18_183">
<rect width="1290" height="265" fill="white"/>
</clipPath>
</defs>
</svg>
