<svg viewBox="0 0 1377 265" fill="none" xmlns="http://www.w3.org/2000/svg">
<path d="M1369.65 201.035C1369.65 198.424 1367.03 197.379 1364.68 197.379H1360.25V210.434H1362.6V205.212H1364.42L1367.3 210.434H1370.17L1366.77 204.69C1367.58 204.564 1368.31 204.152 1368.84 203.528C1369.37 202.905 1369.65 202.112 1369.65 201.296V201.035ZM1362.6 203.123V199.468H1364.68C1365.99 199.468 1367.3 199.729 1367.3 201.296C1367.3 202.862 1365.73 203.123 1364.42 203.123H1362.6ZM1364.68 192.68C1362.41 192.732 1360.21 193.457 1358.35 194.762C1356.49 196.067 1355.06 197.894 1354.24 200.012C1353.42 202.13 1353.24 204.444 1353.74 206.662C1354.23 208.879 1355.37 210.901 1357.01 212.47C1358.65 214.039 1360.73 215.087 1362.96 215.479C1365.2 215.872 1367.5 215.592 1369.58 214.676C1371.66 213.759 1373.42 212.247 1374.64 210.33C1375.86 208.413 1376.48 206.178 1376.43 203.906C1376.43 202.376 1376.13 200.86 1375.53 199.449C1374.94 198.038 1374.07 196.76 1372.98 195.69C1371.88 194.62 1370.59 193.779 1369.16 193.217C1367.74 192.655 1366.22 192.384 1364.68 192.419V192.68ZM1364.68 213.567C1362.71 213.566 1360.78 212.977 1359.15 211.875C1357.51 210.773 1356.24 209.207 1355.5 207.379C1354.75 205.551 1354.57 203.543 1354.98 201.612C1355.38 199.681 1356.35 197.914 1357.77 196.537C1359.18 195.161 1360.97 194.237 1362.91 193.884C1364.86 193.531 1366.86 193.765 1368.67 194.556C1370.47 195.348 1372 196.66 1373.06 198.325C1374.12 199.991 1374.66 201.934 1374.61 203.906C1374.61 206.538 1373.56 209.061 1371.7 210.922C1369.84 212.782 1367.32 213.828 1364.68 213.828V213.567ZM617.985 194.507C601.015 194.507 592.399 179.104 592.399 164.483C592.399 149.862 601.798 135.241 617.202 135.241C624.512 135.241 633.65 138.897 637.305 144.118L655.059 126.104C650.044 121.263 644.111 117.476 637.609 114.965C631.107 112.454 624.169 111.27 617.202 111.483C585.872 111.483 563.158 133.936 563.158 164.744C563.158 196.074 585.611 218.266 617.985 218.266C633.128 218.266 647.227 213.828 655.581 204.69L638.089 185.892C635.49 188.606 632.369 190.768 628.915 192.249C625.461 193.729 621.743 194.497 617.985 194.507ZM517.468 215.394H545.665V114.355H517.729L517.468 215.394ZM466.557 169.704C466.557 181.453 458.724 194.246 444.626 194.246C433.399 194.246 427.394 186.414 427.394 169.966V114.616H399.458V177.276C399.458 198.163 409.901 218.527 437.837 218.527C450.892 218.527 461.857 208.084 467.34 200.251H467.862V215.655H494.493V114.355H466.557V169.704ZM349.069 127.148H348.547C344.631 122.709 333.926 111.483 316.695 111.483C288.236 111.483 266.305 133.675 266.305 164.483C266.305 195.813 286.67 218.266 315.389 218.266C321.532 218.077 327.571 216.637 333.138 214.033C338.705 211.429 343.681 207.717 347.764 203.123H348.286V265H375.961V114.355H349.33L349.069 127.148ZM322.177 194.507C304.946 194.507 295.025 179.365 295.025 164.483C295.025 150.123 303.901 134.98 322.177 134.98C338.626 134.98 348.808 150.645 348.808 164.744C348.808 178.842 338.887 194.507 322.177 194.507ZM957.394 111.483C925.803 111.483 902.567 133.675 902.567 164.483C902.567 196.335 926.064 218.527 957.394 218.527C988.724 218.527 1012.22 196.074 1012.22 164.483C1012.22 133.675 989.246 111.483 957.394 111.483ZM957.394 194.507C939.118 194.507 931.025 178.842 931.025 164.483C931.025 150.123 939.379 134.98 957.394 134.98C975.409 134.98 984.286 150.123 984.286 164.483C984.286 178.842 975.931 194.507 957.655 194.507H957.394ZM1306.2 153.256C1291.84 149.862 1286.62 148.035 1286.62 142.03C1286.62 134.197 1297.06 132.37 1301.5 132.37C1310.12 132.37 1319.78 137.591 1323.69 142.291L1340.14 126.626C1332.31 117.227 1317.43 111.744 1301.76 111.744C1281.4 111.744 1260.25 121.926 1260.25 144.379C1260.25 163.961 1275.66 169.704 1290.54 173.36C1306.2 177.015 1311.95 179.626 1311.95 186.153C1311.95 195.291 1301.5 196.857 1297.59 196.857C1292.78 196.634 1288.07 195.458 1283.72 193.396C1279.37 191.334 1275.48 188.428 1272.26 184.847L1255.29 202.079C1264.43 212.522 1280.35 218.527 1296.54 218.527C1323.96 218.527 1340.14 205.473 1340.14 184.064C1340.14 163.7 1320.3 156.65 1306.2 153.256ZM1253.2 114.355H1217.17L1181.14 156.128H1180.62V58.7439H1152.68V215.394H1180.62V165.788H1181.14L1218.48 215.394H1255.03L1211.69 160.305L1253.2 114.355ZM839.645 111.744C826.591 111.744 817.453 116.966 808.315 125.32H808.054V58.7439H780.118V215.394H806.749V201.035H807.271C810.707 206.271 815.396 210.565 820.913 213.529C826.43 216.493 832.6 218.031 838.862 218.005C867.581 218.005 889.512 195.552 889.512 164.483C889.512 133.675 868.103 111.483 839.645 111.483V111.744ZM834.163 194.507C817.192 194.507 807.271 179.365 807.271 164.744C807.271 150.123 817.714 134.98 834.163 134.98C852.177 134.98 861.054 150.123 861.054 164.483C861.054 179.365 851.394 194.507 834.163 194.507ZM769.675 114.355H733.645L697.616 156.128H697.094V58.7439H669.158V215.394H697.094V165.788H697.616L734.951 215.394H771.502L728.424 160.305L769.675 114.355ZM1079.84 111.744C1047.99 111.744 1025.01 133.936 1025.01 164.483C1025.01 196.335 1048.51 218.527 1079.84 218.527C1111.17 218.527 1134.67 196.074 1134.67 164.483C1134.67 133.675 1111.43 111.483 1079.84 111.483V111.744ZM1079.84 194.507C1061.57 194.507 1053.21 178.842 1053.21 164.483C1053.21 150.123 1061.57 134.98 1079.84 134.98C1098.12 134.98 1106.21 150.123 1106.21 164.483C1106.21 178.842 1097.86 194.507 1079.84 194.507Z" fill="black"/>
<path d="M117.488 234.975C182.374 234.975 234.975 182.374 234.975 117.488C234.975 52.601 182.374 0 117.488 0C52.601 0 0 52.601 0 117.488C0 182.374 52.601 234.975 117.488 234.975Z" fill="#2CA01C"/>
<path d="M32.6355 117.488C32.6355 129.605 37.4492 141.227 46.0177 149.795C54.5862 158.364 66.2075 163.177 78.3252 163.177H84.8522V146.207H78.3252C70.7083 146.207 63.4035 143.181 58.0176 137.795C52.6317 132.409 49.6059 125.105 49.6059 117.488C49.6059 109.871 52.6317 102.566 58.0176 97.1802C63.4035 91.7943 70.7083 88.7685 78.3252 88.7685H93.9902V177.537C93.9902 179.766 94.4291 181.972 95.282 184.031C96.1348 186.09 97.3849 187.961 98.9607 189.537C100.537 191.113 102.407 192.363 104.466 193.216C106.525 194.068 108.732 194.507 110.961 194.507V71.7981H78.3252C66.2075 71.7981 54.5862 76.6118 46.0177 85.1803C37.4492 93.7487 32.6355 105.37 32.6355 117.488ZM156.65 71.7981H150.123V88.7685H156.65C164.267 88.7685 171.572 91.7943 176.958 97.1802C182.344 102.566 185.369 109.871 185.369 117.488C185.369 125.105 182.344 132.409 176.958 137.795C171.572 143.181 164.267 146.207 156.65 146.207H140.985V57.4385C140.985 52.9376 139.197 48.6211 136.015 45.4385C132.832 42.256 128.516 40.468 124.015 40.468V163.177H156.65C162.65 163.177 168.592 161.996 174.135 159.699C179.678 157.403 184.715 154.038 188.958 149.795C193.2 145.553 196.566 140.516 198.862 134.972C201.158 129.429 202.34 123.488 202.34 117.488C202.34 111.488 201.158 105.546 198.862 100.003C196.566 94.4597 193.2 89.4229 188.958 85.1803C184.715 80.9376 179.678 77.5721 174.135 75.276C168.592 72.9799 162.65 71.7981 156.65 71.7981Z" fill="white"/>
<path d="M381.182 26.8914C382.731 26.8914 384.246 26.4321 385.534 25.5714C386.822 24.7108 387.826 23.4875 388.419 22.0563C389.011 20.6251 389.167 19.0502 388.864 17.5309C388.562 16.0115 387.816 14.6159 386.721 13.5205C385.625 12.4251 384.23 11.6791 382.71 11.3769C381.191 11.0747 379.616 11.2298 378.185 11.8226C376.754 12.4155 375.53 13.4194 374.67 14.7074C373.809 15.9955 373.35 17.5098 373.35 19.0589C373.35 21.1362 374.175 23.1285 375.644 24.5974C377.113 26.0662 379.105 26.8914 381.182 26.8914ZM334.97 32.1131C331.72 32.1087 328.532 33.0102 325.765 34.7165C322.998 36.4228 320.761 38.8665 319.305 41.7732H318.783V33.4185H306.773V84.852H319.567V56.655C319.567 49.8668 323.483 42.8176 331.576 42.8176C339.67 42.8176 341.236 50.389 341.236 56.3939V85.1131H354.03V52.4777C354.03 42.0343 348.547 31.591 334.97 31.591V32.1131ZM280.665 84.852H293.719V33.4185H280.665V84.852ZM514.335 26.6304C515.884 26.6304 517.398 26.171 518.687 25.3103C519.975 24.4497 520.978 23.2264 521.571 21.7952C522.164 20.364 522.319 18.7892 522.017 17.2698C521.715 15.7504 520.969 14.3548 519.873 13.2594C518.778 12.164 517.382 11.4181 515.863 11.1158C514.344 10.8136 512.769 10.9687 511.338 11.5616C509.906 12.1544 508.683 13.1583 507.822 14.4463C506.962 15.7344 506.502 17.2487 506.502 18.7978C506.502 20.8752 507.328 22.8674 508.797 24.3363C510.265 25.8052 512.258 26.6304 514.335 26.6304ZM493.448 33.4185V44.9062H507.808V84.852H520.862V44.9062H535.222V33.4185H493.448ZM471.517 84.852H484.571V33.4185H471.517V84.852ZM360.557 44.9062H374.916V84.852H387.97V44.9062H402.33V33.4185H360.557V44.9062ZM445.67 61.8767C445.67 68.6648 441.754 75.7141 433.66 75.7141C425.567 75.7141 424 67.8816 424 61.8767V33.4185H410.946V65.5318C410.946 75.9752 416.69 86.4185 430.005 86.4185C433.3 86.472 436.543 85.5936 439.361 83.8846C442.178 82.1755 444.456 79.7053 445.931 76.7584H446.192V85.1131H458.463V33.4185H445.409V61.6156L445.67 61.8767Z" fill="black"/>
</svg>
