<svg viewBox="0 0 1269 265" fill="none" xmlns="http://www.w3.org/2000/svg">
<path d="M1246.76 162.816V173.628C1246.76 180.995 1240.81 186.957 1233.45 186.957H1222.75C1215.4 186.957 1209.44 180.995 1209.44 173.628V162.816C1209.44 155.449 1215.4 149.486 1222.75 149.486H1233.45C1240.81 149.513 1246.76 155.475 1246.76 162.816Z" fill="#443635"/>
<path d="M103.052 166.526V171.561C103.052 178.928 97.0961 184.891 89.7372 184.891H84.0723C70.5456 184.891 60.0101 181.578 52.4393 174.953C44.8686 168.328 41.1097 157.516 41.1097 142.517V94.0485H39.5744C32.2154 94.0485 26.2594 88.086 26.2594 80.719V76.3465C26.2594 68.9795 32.2154 63.017 39.5744 63.017H41.1097V46.64C41.1097 39.273 47.0657 33.3105 54.4247 33.3105H65.119C72.478 33.3105 78.434 39.273 78.434 46.64V63.017H89.5519C96.9108 63.017 102.867 68.9795 102.867 76.3465V80.719C102.867 88.086 96.9108 94.0485 89.5519 94.0485H78.434V142.968C78.434 146.598 79.3075 149.222 81.0546 150.838C82.8017 152.428 85.7135 153.25 89.7901 153.25C97.0961 153.223 103.052 159.186 103.052 166.526Z" fill="#00CE7C"/>
<path d="M185.298 65.7202C184.16 66.2502 183.021 66.8597 181.936 67.4957C175.398 71.3647 169.945 76.6382 165.577 83.3162V76.3202C165.577 68.9532 159.621 62.9907 152.262 62.9907H141.568C134.209 62.9907 128.253 68.9532 128.253 76.3202V171.535C128.253 178.902 134.209 184.864 141.568 184.864H152.262C159.621 184.864 165.577 178.902 165.577 171.535V128.313C165.577 118.27 167.906 111.247 172.565 107.246C177.224 103.244 184.186 101.23 193.504 101.23C199.169 101.23 203.748 96.6457 203.748 90.9747V77.9897C203.748 68.5027 193.901 61.6657 185.298 65.7202Z" fill="#00CE7C"/>
<path d="M329.539 63.0436H318.845C311.486 63.0436 305.53 69.0061 305.53 76.3731V129.214C305.53 137.376 303.412 143.71 299.203 148.215C294.994 152.72 289.25 154.972 281.971 154.972C274.85 154.972 269.185 152.72 264.95 148.215C260.741 143.71 258.623 137.376 258.623 129.214V76.3466C258.623 68.9796 252.667 63.0171 245.308 63.0171H234.825C227.467 63.0171 221.51 68.9796 221.51 76.3466V134.223C221.51 144.849 223.469 154.098 227.414 161.942C231.331 169.812 236.864 175.801 243.984 179.962C251.105 184.122 259.311 186.189 268.629 186.189C276.491 186.189 283.638 184.546 290.124 181.287C296.583 178.001 301.718 173.681 305.503 168.302V171.588C305.503 178.955 311.459 184.917 318.818 184.917H329.513C336.872 184.917 342.828 178.955 342.828 171.588V76.3466C342.854 69.0061 336.898 63.0436 329.539 63.0436Z" fill="#00CE7C"/>
<path d="M396.591 23.2935H385.896C378.537 23.2935 372.581 29.256 372.581 36.623V171.561C372.581 178.928 378.537 184.89 385.896 184.89H396.591C403.95 184.89 409.906 178.928 409.906 171.561V36.623C409.879 29.256 403.923 23.2935 396.591 23.2935Z" fill="#00CE7C"/>
<path d="M648.913 118.376C643.249 116.123 635.89 113.818 626.89 111.486C619.028 109.737 613.257 107.988 609.551 106.239C605.845 104.49 603.992 101.866 603.992 98.3682C603.992 95.4532 605.157 93.1742 607.486 91.4782C609.816 89.8087 613.151 88.9607 617.519 88.9607C622.601 88.9607 626.704 90.2062 629.854 92.6707C631.284 93.8102 632.448 95.1087 633.348 96.6192C635.678 100.488 639.993 102.714 644.493 102.714H651.825C662.255 102.714 668.714 91.1867 663.155 82.3622C660.878 78.7317 658.073 75.4987 654.711 72.5837C645.922 65.0047 633.878 61.2417 618.604 61.2417C608.28 61.2417 599.386 62.9112 591.895 66.2767C584.403 69.6157 578.739 74.1737 574.874 79.9242C571.009 85.6747 569.103 92.0347 569.103 99.0307C569.103 107.325 571.221 113.924 575.43 118.8C579.639 123.676 584.668 127.253 590.492 129.506C596.315 131.758 603.568 133.905 612.304 135.945C620.457 137.986 626.334 139.841 629.96 141.51C633.587 143.18 635.413 145.777 635.413 149.248C635.413 152.163 634.143 154.522 631.601 156.35C629.06 158.179 625.46 159.08 620.801 159.08C615.719 159.08 611.43 157.781 607.936 155.158C606.242 153.886 604.892 152.428 603.939 150.759C601.689 146.943 597.348 144.876 592.927 144.876H583.927C573.18 144.876 566.588 157.198 573.021 165.837C573.1 165.943 573.18 166.049 573.285 166.182C578.077 172.515 584.615 177.497 592.927 181.128C601.213 184.758 610.663 186.587 621.278 186.587C631.178 186.587 639.86 184.997 647.352 181.79C654.843 178.584 660.587 174.185 664.584 168.567C668.582 162.975 670.593 156.589 670.593 149.46C670.435 141.007 668.237 134.276 663.949 129.267C659.555 124.285 654.578 120.655 648.913 118.376Z" fill="#00CE7C"/>
<path d="M845.806 61.7183C837.229 61.7183 829.288 63.8383 822.035 68.0518C814.755 72.2653 809.011 77.7243 804.802 84.4288C800.725 77.1413 795.087 71.5498 787.887 67.6278C780.687 63.7058 772.507 61.7448 763.348 61.7448C755.645 61.7448 748.736 63.2288 742.621 66.2233C736.506 69.2178 731.556 73.2458 727.797 78.3338V76.3728C727.797 69.0058 721.841 63.0433 714.482 63.0433H703.788C696.429 63.0433 690.473 69.0058 690.473 76.3728V171.587C690.473 178.954 696.429 184.917 703.788 184.917H714.482C721.841 184.917 727.797 178.954 727.797 171.587V118.72C727.797 110.849 729.862 104.781 734.018 100.488C738.174 96.1948 743.865 94.0483 751.145 94.0483C758.425 94.0483 764.116 96.1948 768.272 100.488C772.428 104.781 774.493 110.849 774.493 118.72V171.561C774.493 178.928 780.449 184.89 787.807 184.89H798.29C805.649 184.89 811.605 178.928 811.605 171.561V118.72C811.605 110.849 813.67 104.781 817.826 100.488C821.982 96.1948 827.673 94.0483 834.953 94.0483C842.232 94.0483 847.924 96.1948 852.08 100.488C856.235 104.781 858.3 110.849 858.3 118.72V171.561C858.3 178.928 864.256 184.89 871.615 184.89H882.098C889.457 184.89 895.413 178.928 895.413 171.561V113.685C895.413 97.3873 890.939 84.6408 881.992 75.4718C872.965 66.3028 860.921 61.7183 845.806 61.7183Z" fill="#00CE7C"/>
<path d="M1099.24 23.2935H1088.55C1081.19 23.2935 1075.23 29.256 1075.23 36.623V171.561C1075.23 178.928 1081.19 184.89 1088.55 184.89H1099.24C1106.6 184.89 1112.56 178.928 1112.56 171.561V36.623C1112.53 29.256 1106.57 23.2935 1099.24 23.2935Z" fill="#00CE7C"/>
<path d="M1166.34 23.2935H1155.65C1148.29 23.2935 1142.34 29.256 1142.34 36.623V171.561C1142.34 178.928 1148.29 184.89 1155.65 184.89H1166.34C1173.7 184.89 1179.66 178.928 1179.66 171.561V36.623C1179.66 29.256 1173.7 23.2935 1166.34 23.2935Z" fill="#00CE7C"/>
<path d="M1032.08 63.0434H1021.39C1014.03 63.0434 1008.07 69.0059 1008.07 76.3729V80.2949C1004.58 74.6239 999.603 70.0394 993.118 66.5414C986.659 63.0434 979.115 61.2944 970.538 61.2944C960.505 61.2944 951.399 63.8384 943.273 68.9264C935.119 74.0144 928.687 81.3019 923.975 90.7624C919.237 100.223 916.881 111.22 916.881 123.728C916.881 136.236 919.237 147.287 923.975 156.8C928.687 166.34 935.119 173.681 943.273 178.848C951.399 184.016 960.426 186.586 970.326 186.586C978.903 186.586 986.421 184.837 992.906 181.339C999.365 177.841 1004.42 173.257 1008.07 167.586V171.508C1008.07 178.875 1014.03 184.837 1021.39 184.837H1032.08C1039.44 184.837 1045.4 178.875 1045.4 171.508V76.3464C1045.4 69.0059 1039.44 63.0434 1032.08 63.0434ZM999.577 146.015C994.415 151.394 988.115 154.097 980.703 154.097C973.291 154.097 966.991 151.368 961.855 145.909C956.693 140.45 954.099 133.056 954.099 123.755C954.099 114.453 956.693 107.113 961.855 101.813C967.017 96.5129 973.317 93.8364 980.703 93.8364C988.115 93.8364 994.415 96.5394 999.577 101.919C1004.74 107.298 1007.33 114.665 1007.33 123.967C1007.33 133.268 1004.77 140.635 999.577 146.015Z" fill="#00CE7C"/>
<path d="M540.302 63.0435H529.37C523.784 63.0435 518.808 66.5415 516.875 71.7885L492.151 139.257L467.216 71.762C465.283 66.5415 460.307 63.07 454.748 63.07H442.386C432.883 63.07 426.424 72.769 430.13 81.567L471.874 180.783L467.586 189.819C466.21 192.708 464.516 195.411 462.265 197.69C458.427 201.612 450.459 205.03 442.227 205.507C437.171 205.799 432.327 209.588 432.141 214.491L431.983 227.317C431.85 233.942 435.768 239.719 442.28 239.719C442.333 239.719 442.359 239.719 442.412 239.719C462.186 239.719 479.445 232.458 491.357 217.644C495.434 212.583 498.875 206.647 501.575 199.81L552.585 81.62C556.265 72.769 549.832 63.0435 540.302 63.0435Z" fill="#00CE7C"/>
</svg>
