<svg  viewBox="0 0 624 266" fill="none" xmlns="http://www.w3.org/2000/svg">
<path d="M192.305 262.205L208.443 238.883H194.956C194.631 238.883 194.319 238.754 194.089 238.524C193.86 238.295 193.73 237.983 193.73 237.658V235.431C193.73 235.106 193.86 234.794 194.089 234.564C194.319 234.335 194.631 234.206 194.956 234.206H214.914C215.239 234.206 215.55 234.335 215.78 234.564C216.01 234.794 216.139 235.106 216.139 235.431V236.155C216.135 236.4 216.062 236.64 215.927 236.845L200.179 260.178H214.479C214.804 260.178 215.116 260.307 215.346 260.537C215.575 260.767 215.705 261.078 215.705 261.403V263.631C215.705 263.956 215.575 264.267 215.346 264.497C215.116 264.727 214.804 264.856 214.479 264.856H193.318C192.993 264.856 192.682 264.727 192.452 264.497C192.222 264.267 192.093 263.956 192.093 263.631V262.918C192.092 262.665 192.166 262.417 192.305 262.205Z" fill="black"/>
<path d="M256.713 249.43C256.713 240.398 263.395 233.838 272.595 233.838C281.794 233.838 288.053 240.431 288.053 249.531C288.053 258.63 281.605 265.323 272.327 265.323C263.05 265.323 256.713 258.741 256.713 249.43ZM281.905 249.542C281.905 243.539 278.765 238.516 272.26 238.516C265.756 238.516 262.905 243.617 262.905 249.731C262.905 255.489 266.335 260.59 272.628 260.59C279.077 260.579 281.905 255.222 281.905 249.542Z" fill="black"/>
<path d="M332.536 234.25H336.033C336.358 234.25 336.67 234.38 336.9 234.609C337.129 234.839 337.258 235.151 337.258 235.476V247.226H351.47V235.476C351.47 235.151 351.599 234.839 351.829 234.609C352.058 234.38 352.37 234.25 352.695 234.25H356.17C356.331 234.25 356.49 234.282 356.639 234.344C356.787 234.405 356.922 234.496 357.036 234.609C357.15 234.723 357.24 234.858 357.302 235.007C357.363 235.155 357.395 235.315 357.395 235.476V263.653C357.395 263.814 357.363 263.973 357.302 264.122C357.24 264.271 357.15 264.406 357.036 264.52C356.922 264.633 356.787 264.724 356.639 264.785C356.49 264.847 356.331 264.878 356.17 264.878H352.695C352.37 264.878 352.058 264.749 351.829 264.52C351.599 264.29 351.47 263.978 351.47 263.653V251.881H337.325V263.653C337.325 263.978 337.196 264.29 336.966 264.52C336.737 264.749 336.425 264.878 336.1 264.878H332.536C332.211 264.878 331.9 264.749 331.67 264.52C331.44 264.29 331.311 263.978 331.311 263.653V235.476C331.311 235.151 331.44 234.839 331.67 234.609C331.9 234.38 332.211 234.25 332.536 234.25Z" fill="black"/>
<path d="M400.608 249.43C400.608 240.398 407.29 233.838 416.49 233.838C425.69 233.838 431.949 240.431 431.949 249.531C431.949 258.63 425.5 265.323 416.223 265.323C406.945 265.323 400.608 258.741 400.608 249.43ZM425.79 249.542C425.79 243.539 422.649 238.516 416.145 238.516C409.64 238.516 406.789 243.617 406.789 249.731C406.789 255.489 410.22 260.59 416.512 260.59C422.983 260.579 425.79 255.222 425.79 249.542Z" fill="black"/>
<path d="M280.279 212.666C275.599 212.651 270.972 211.665 266.692 209.77L166.232 164.998C158.134 161.368 151.805 154.676 148.632 146.388C145.459 138.1 145.7 128.893 149.303 120.782L194.076 20.3229C197.706 12.2249 204.398 5.89599 212.686 2.72284C220.974 -0.450306 230.181 -0.208965 238.291 3.39399L338.751 48.1664C346.849 51.7966 353.178 58.4887 356.351 66.7765C359.524 75.0642 359.283 84.2718 355.68 92.382L310.907 192.842C309.128 196.861 306.567 200.486 303.374 203.507C300.181 206.528 296.419 208.884 292.308 210.439C288.461 211.885 284.389 212.639 280.279 212.666ZM224.704 18.7636C221.761 18.7671 218.882 19.6203 216.412 21.2206C213.942 22.8209 211.987 25.1003 210.782 27.7849L166.009 128.244C164.356 131.937 164.237 136.135 165.678 139.915C167.119 143.695 170.003 146.748 173.694 148.403L274.154 193.176C275.982 193.997 277.954 194.45 279.957 194.509C281.96 194.567 283.955 194.229 285.828 193.516C287.7 192.802 289.413 191.726 290.869 190.349C292.325 188.971 293.495 187.321 294.313 185.491L339.085 85.0313C340.738 81.3389 340.857 77.1411 339.416 73.3608C337.975 69.5806 335.092 66.5274 331.4 64.8726L230.941 20.1001C228.988 19.1918 226.857 18.735 224.704 18.7636Z" fill="#009C3E"/>
<path d="M589.811 212.644H479.884C470.996 212.635 462.474 209.1 456.189 202.815C449.904 196.53 446.37 188.009 446.361 179.12V69.1941C446.37 60.3057 449.904 51.784 456.189 45.499C462.474 39.214 470.996 35.6793 479.884 35.6704H589.811C598.699 35.6793 607.221 39.214 613.506 45.499C619.791 51.784 623.325 60.3057 623.334 69.1941V179.12C623.325 188.009 619.791 196.53 613.506 202.815C607.221 209.1 598.699 212.635 589.811 212.644ZM479.929 53.9358C475.884 53.9417 472.006 55.5511 469.146 58.4113C466.286 61.2715 464.677 65.1491 464.671 69.1941V179.12C464.677 183.165 466.286 187.043 469.146 189.903C472.006 192.763 475.884 194.373 479.929 194.379H589.811C593.856 194.373 597.733 192.763 600.593 189.903C603.454 187.043 605.063 183.165 605.069 179.12V69.1941C605.063 65.1491 603.454 61.2715 600.593 58.4113C597.733 55.5511 593.856 53.9417 589.811 53.9358H479.929Z" fill="#FFAF00"/>
<path d="M182.76 90.5549L169.184 121.005L175.365 159.072C176.008 163.059 175.044 167.138 172.685 170.416C170.326 173.693 166.764 175.902 162.78 176.558L54.1897 194.155C50.1986 194.799 46.115 193.838 42.8295 191.482C41.1968 190.324 39.8132 188.85 38.761 187.148C37.7087 185.445 37.0092 183.548 36.7039 181.57L19.1068 73.0914C18.4637 69.1047 19.4272 65.0256 21.7862 61.7479C24.1453 58.4703 27.7074 56.2616 31.6921 55.6057L140.282 38.0085C141.093 37.8791 141.911 37.8047 142.732 37.7858C146.349 37.7939 149.846 39.0858 152.6 41.4314C155.353 43.777 157.185 47.024 157.768 50.5938L163.86 88.1381L177.425 57.6884L175.81 47.6647C174.391 38.8925 169.546 31.043 162.341 25.8424C155.135 20.6419 146.159 18.5161 137.386 19.9325L28.7964 37.563C20.0255 38.9849 12.1779 43.8307 6.97784 51.0355C1.77782 58.2404 -0.349191 67.2149 1.06418 75.9872L18.6613 184.466C20.0826 193.241 24.9298 201.092 32.1376 206.295C37.8004 210.417 44.6237 212.64 51.6281 212.643C53.4915 212.606 55.3511 212.457 57.1968 212.198L165.675 194.601C174.446 193.179 182.294 188.333 187.494 181.128C192.694 173.923 194.821 164.949 193.407 156.177L182.76 90.5549Z" fill="#F40014"/>
<path d="M313.491 142.111L327.669 110.269L322.513 72.201C322 68.2076 323.076 64.1726 325.509 60.9647C327.942 57.7568 331.537 55.6326 335.521 55.0493L444.445 40.2366C445.109 40.144 445.78 40.1067 446.45 40.1252C448.463 40.1297 450.455 40.5315 452.313 41.3074C454.171 42.0834 455.857 43.2182 457.275 44.647C461.969 40.3163 467.805 37.4214 474.093 36.305C472.082 33.4377 469.645 30.8949 466.865 28.765C463.371 26.0703 459.375 24.1009 455.11 22.9725C450.845 21.8441 446.397 21.5794 442.028 22.1939L333.104 37.0067C324.29 38.2104 316.314 42.8622 310.927 49.9409C305.54 57.0196 303.181 65.9467 304.37 74.7626L313.491 142.111Z" fill="#006EB9"/>
<path d="M494.563 159.853L480.174 54.0474H479.929C475.884 54.0533 472.006 55.6627 469.146 58.5229C466.286 61.3831 464.677 65.2607 464.671 69.3056V75.899L476.409 162.192C476.922 166.188 475.842 170.226 473.405 173.435C470.967 176.643 467.366 178.765 463.379 179.343L354.455 194.156C352.473 194.429 350.456 194.308 348.521 193.801C346.585 193.293 344.769 192.409 343.176 191.199C341.583 189.988 340.244 188.476 339.236 186.747C338.228 185.018 337.571 183.108 337.303 181.125L332.336 144.65L318.169 176.448L319.149 183.654C320.276 191.664 324.252 199 330.347 204.318C336.442 209.636 344.249 212.58 352.339 212.611C353.867 212.606 355.392 212.495 356.905 212.277L465.829 197.575C474.627 196.352 482.585 191.7 487.967 184.634C493.35 177.568 495.721 168.66 494.563 159.853Z" fill="#006EB9"/>
</svg>
